{
.appVersion = "1192";
customParameters = (
{
name = fsType;
value = (
);
},
{
name = licenseURL;
value = "http://scripts.sil.org/OFL";
},
{
name = license;
value = "This Font Software is licensed under the SIL Open Font License, Version 1.1. This license is available with a FAQ at: http://scripts.sil.org/OFL";
},
{
name = trademark;
value = "Public Sans is based on Libre Franklin, which is a trademark of Impallari Type.";
},
{
name = description;
value = "Libre Franklin is a reinterpretation and expansion of the 1912 Morris Fuller Benton￢ﾀﾙs classic.";
},
{
name = vendorID;
value = IMPA;
},
{
name = note;
value = "Based on Libre Franklin\012\012";
},
{
name = vsuffix;
value = "";
},
{
name = Axes;
value = (
{
Name = Weight;
Tag = wght;
}
);
}
);
date = "2018-10-05 14:56:17 +0000";
designer = "Pablo Impallari, Rodrigo Fuenzalida (Modified by Dan O. Williams)";
designerURL = "https://designsystem.digital.gov";
familyName = "Public Sans";
featurePrefixes = (
{
automatic = 1;
code = "languagesystem DFLT dflt;\012languagesystem latn dflt;\012languagesystem latn CAT;\012languagesystem latn ROM;\012languagesystem latn MOL;\012languagesystem latn KAZ;\012languagesystem latn TAT;\012languagesystem latn TRK;\012languagesystem latn CRT;\012languagesystem latn AZE;\012";
name = Languagesystems;
}
);
features = (
{
automatic = 1;
code = "feature locl;\012feature subs;\012feature sinf;\012feature sups;\012feature numr;\012feature dnom;\012feature frac;\012feature ordn;\012feature lnum;\012feature pnum;\012feature tnum;\012feature onum;\012feature salt;\012feature ss01;\012";
name = aalt;
},
{
automatic = 1;

glyphs = (
{
glyphname = A;
lastChange = "2019-04-16 04:59:04 +0000";
layers = (
{
anchors = (
{
name = bottom;
position = "{328, 0}";
},
{
name = ogonek;
position = "{659, 5}";
},
{
name = top;
position = "{438, 723}";
}
);
background = {
anchors = (
{
name = ogonek;
position = "{743, 9}";
},
{
name = top;
position = "{392, 742}";
}
);
paths = (
{
closed = 1;
nodes = (
"192 0 LINE SMOOTH",
"206 0 OFFCURVE",
"213 7 OFFCURVE",
"216 15 CURVE SMOOTH",
"257 133 LINE SMOOTH",
"259 140 OFFCURVE",
"264 144 OFFCURVE",
"272 144 CURVE SMOOTH",
"484 144 LINE SMOOTH",
"494 144 OFFCURVE",
"496 139 OFFCURVE",
"499 132 CURVE SMOOTH",
"538 17 LINE SMOOTH",
"542 4 OFFCURVE",
"550 0 OFFCURVE",
"560 0 CURVE SMOOTH",
"756 0 LINE SMOOTH",
"771 0 OFFCURVE",
"775 20 OFFCURVE",
"770 34 CURVE SMOOTH",
"530 715 LINE SMOOTH",
"524 731 OFFCURVE",
"511 742 OFFCURVE",
"494 742 CURVE SMOOTH",
"297 742 LINE SMOOTH",
"279 742 OFFCURVE",
"273 735 OFFCURVE",
"267 719 CURVE SMOOTH",
"25 37 LINE SMOOTH",
"17 15 OFFCURVE",
"25 0 OFFCURVE",
"40 0 CURVE SMOOTH"
);
},
{
closed = 1;
nodes = (
"308 314 OFFCURVE",
"305 322 OFFCURVE",
"310 335 CURVE SMOOTH",
"371 505 LINE SMOOTH",
"373 512 OFFCURVE",
"380 512 OFFCURVE",
"383 505 CURVE SMOOTH",
"443 334 LINE SMOOTH",
"447 321 OFFCURVE",
"445 314 OFFCURVE",
"434 314 CURVE SMOOTH",
"320 314 LINE SMOOTH"
);
}
);
};
layerId = "258ED206-D907-4350-8EBA-CBDDA1C16BF7";
paths = (
{
closed = 1;
nodes = (
"167 0 LINE",
"237 140 LINE",
"464 140 LINE",
"490 0 LINE",
"681 0 LINE",
"536 723 LINE",
"339 723 LINE",
"-26 0 LINE"
);
},
{
closed = 1;
nodes = (
"410 537 LINE",
"445 306 LINE",
"303 306 LINE"
);
}
);
width = 727;
},
{
anchors = (
{
name = bottom;
position = "{287, 0}";
},
{
name = ogonek;
position = "{556, 12}";
},
{
name = top;
position = "{389, 723}";
}
);
background = {
anchors = (
{
name = ogonek;
position = "{637, 11}";
},
{
name = top;
position = "{348, 742}";
}
);
paths = (
{
closed = 1;
nodes = (
"83 0 LINE SMOOTH",
"89 0 OFFCURVE",
"93 2 OFFCURVE",
"94 7 CURVE SMOOTH",
"177 231 LINE SMOOTH",
"179 236 OFFCURVE",
"181 238 OFFCURVE",
"187 238 CURVE SMOOTH",
"509 238 LINE SMOOTH",
"515 238 OFFCURVE",
"517 236 OFFCURVE",
"519 231 CURVE SMOOTH",
"600 8 LINE SMOOTH",
"602 2 OFFCURVE",
"606 0 OFFCURVE",
"613 0 CURVE SMOOTH",
"637 0 LINE SMOOTH",
"644 0 OFFCURVE",
"647 4 OFFCURVE",
"645 10 CURVE SMOOTH",
"383 732 LINE SMOOTH",
"381 739 OFFCURVE",
"375 742 OFFCURVE",
"365 742 CURVE SMOOTH",
"332 742 LINE SMOOTH",
"323 742 OFFCURVE",
"319 739 OFFCURVE",
"316 731 CURVE SMOOTH",
"51 9 LINE SMOOTH",
"49 3 OFFCURVE",
"52 0 OFFCURVE",
"58 0 CURVE SMOOTH"
);
},
{
closed = 1;
nodes = (
"195 278 OFFCURVE",
"193 279 OFFCURVE",
"196 286 CURVE SMOOTH",
"341 677 LINE SMOOTH",
"346 691 OFFCURVE",
"351 691 OFFCURVE",
"356 678 CURVE SMOOTH",
"499 288 LINE SMOOTH",
"501 282 OFFCURVE",
"500 278 OFFCURVE",
"492 278 CURVE SMOOTH",
"201 278 LINE SMOOTH"
);
}
);
};
guideLines = (
{
angle = 69.4967;
position = "{99, 110}";
},
{
angle = 110.0797;
position = "{473, 110}";
}
);
layerId = "91AB5BCA-6A50-42DA-B2F7-8181BF189245";
paths = (
{
closed = 1;
nodes = (
"57 0 LINE",
"167 228 LINE",
"472 228 LINE",
"516 0 LINE",
"556 0 LINE",
"415 723 LINE",
"364 723 LINE",
"19 0 LINE"
);
},
{
closed = 1;
nodes = (
"384 681 LINE",
"464 271 LINE",
"186 271 LINE"
);
}
);
width = 647;
}
);
leftKerningGroup = A;
rightKerningGroup = A;
unicode = 0041;
},
{
glyphname = Aringacute;
lastChange = "2019-04-16 05:02:33 +0000";
layers = (
{
background = {
paths = (
{
closed = 1;
nodes = (
"214 3 LINE",
"264 147 LINE",
"498 147 LINE",
"547 3 LINE",
"785 3 LINE",
"523 745 LINE",
"278 745 LINE",
"15 3 LINE"
);
},
{
closed = 1;
nodes = (
"380 524 LINE",
"453 317 LINE",
"306 317 LINE"
);
},
{
closed = 1;
nodes = (
"461 693 OFFCURVE",
"510 734 OFFCURVE",
"510 796 CURVE SMOOTH",
"510 856 OFFCURVE",
"461 899 OFFCURVE",
"400 899 CURVE SMOOTH",
"340 899 OFFCURVE",
"290 857 OFFCURVE",
"290 798 CURVE SMOOTH",
"290 735 OFFCURVE",
"339 693 OFFCURVE",
"400 693 CURVE SMOOTH"
);
},
{
closed = 1;
nodes = (
"373 746 OFFCURVE",
"350 769 OFFCURVE",
"350 795 CURVE SMOOTH",
"350 822 OFFCURVE",
"373 842 OFFCURVE",
"399 842 CURVE SMOOTH",
"426 842 OFFCURVE",
"447 822 OFFCURVE",
"447 795 CURVE SMOOTH",
"447 769 OFFCURVE",
"426 746 OFFCURVE",
"399 746 CURVE SMOOTH"
);
},
{
closed = 1;
nodes = (
"443 875 LINE",
"468 935 LINE SMOOTH",
"474 949 OFFCURVE",
"470 964 OFFCURVE",
"454 964 CURVE SMOOTH",
"409 964 LINE SMOOTH",
"390 964 OFFCURVE",
"377 958 OFFCURVE",
"371 933 CURVE SMOOTH",
"357 875 LINE"
);
}
);
};
components = (
{
name = A;
},
{
name = _ringacute;
transform = "{1, 0, 0, 1, 7, 0}";
}
);
layerId = "258ED206-D907-4350-8EBA-CBDDA1C16BF7";
width = 727;
},
{
background = {
paths = (
{
closed = 1;
nodes = (
"438 857 OFFCURVE",
"394 900 OFFCURVE",
"338 900 CURVE SMOOTH",
"283 900 OFFCURVE",
"238 857 OFFCURVE",
"238 804 CURVE SMOOTH",
"238 746 OFFCURVE",
"282 702 OFFCURVE",
"338 702 CURVE SMOOTH",
"394 702 OFFCURVE",
"438 745 OFFCURVE",
"438 802 CURVE SMOOTH"
);
},
{
closed = 1;
nodes = (
"395 770 OFFCURVE",
"370 742 OFFCURVE",
"337 742 CURVE SMOOTH",
"306 742 OFFCURVE",
"278 770 OFFCURVE",
"278 801 CURVE SMOOTH",
"278 836 OFFCURVE",
"306 860 OFFCURVE",
"337 860 CURVE SMOOTH",
"370 860 OFFCURVE",
"395 836 OFFCURVE",
"395 801 CURVE SMOOTH"
);
},
{
closed = 1;
nodes = (
"314 742 OFFCURVE",
"310 739 OFFCURVE",
"307 731 CURVE SMOOTH",
"60 9 LINE",
"58 4 OFFCURVE",
"61 0 OFFCURVE",
"67 0 CURVE SMOOTH",
"89 0 LINE SMOOTH",
"95 0 OFFCURVE",
"98 2 OFFCURVE",
"100 7 CURVE",
"177 231 LINE SMOOTH",
"179 236 OFFCURVE",
"181 238 OFFCURVE",
"187 238 CURVE SMOOTH",
"483 238 LINE SMOOTH",
"489 238 OFFCURVE",
"491 236 OFFCURVE",
"493 231 CURVE SMOOTH",
"569 8 LINE SMOOTH",
"571 2 OFFCURVE",
"574 0 OFFCURVE",
"581 0 CURVE SMOOTH",
"608 0 LINE SMOOTH",
"615 0 OFFCURVE",
"618 4 OFFCURVE",
"616 10 CURVE SMOOTH",
"373 732 LINE",
"371 739 OFFCURVE",
"365 742 OFFCURVE",
"355 742 CURVE SMOOTH",
"323 742 LINE SMOOTH"
);
},
{
closed = 1;
nodes = (
"477 282 OFFCURVE",
"476 278 OFFCURVE",
"468 278 CURVE SMOOTH",
"199 278 LINE SMOOTH",
"193 278 OFFCURVE",
"192 279 OFFCURVE",
"195 286 CURVE SMOOTH",
"328 677 LINE SMOOTH",
"333 691 OFFCURVE",
"339 691 OFFCURVE",
"343 678 CURVE SMOOTH",
"475 288 LINE SMOOTH"
);
},
{
closed = 1;
nodes = (
"348 964 OFFCURVE",
"343 960 OFFCURVE",
"341 951 CURVE SMOOTH",
"323 875 LINE",
"361 875 LINE",
"392 948 LINE SMOOTH",
"396 958 OFFCURVE",
"393 964 OFFCURVE",
"382 964 CURVE SMOOTH",
"359 964 LINE SMOOTH"
);
}
);
};
components = (
{
name = A;
},
{
name = _ringacute;
transform = "{1, 0, 0, 1, -15, 0}";
}
);
layerId = "91AB5BCA-6A50-42DA-B2F7-8181BF189245";
width = 647;
}
);
leftKerningGroup = A;
leftMetricsKey = A;
rightKerningGroup = A;
rightMetricsKey = A;
unicode = 01FA;
},
{
glyphname = AE;
lastChange = "2019-04-16 04:59:04 +0000";
layers = (
{
anchors = (
{
name = top;
position = "{760, 723}";
}
);
background = {
anchors = (
{
name = top;
position = "{713, 742}";
}
);
paths = (
{
closed = 1;
nodes = (
"739 164 LINE SMOOTH",
"730 164 OFFCURVE",
"727 167 OFFCURVE",
"727 178 CURVE SMOOTH",
"727 278 LINE SMOOTH",
"727 286 OFFCURVE",
"733 292 OFFCURVE",
"743 292 CURVE SMOOTH",
"928 292 LINE SMOOTH",
"941 292 OFFCURVE",
"946 300 OFFCURVE",
"946 309 CURVE SMOOTH",
"946 433 LINE SMOOTH",
"946 446 OFFCURVE",
"939 453 OFFCURVE",
"925 453 CURVE SMOOTH",
"745 453 LINE SMOOTH",
"735 453 OFFCURVE",
"727 460 OFFCURVE",
"727 474 CURVE SMOOTH",
"727 559 LINE SMOOTH",
"727 572 OFFCURVE",
"735 578 OFFCURVE",
"750 578 CURVE SMOOTH",
"1050 578 LINE SMOOTH",
"1068 578 OFFCURVE",
"1076 589 OFFCURVE",
"1076 605 CURVE SMOOTH",
"1077 721 LINE SMOOTH",
"1077 734 OFFCURVE",
"1071 742 OFFCURVE",
"1059 742 CURVE SMOOTH",
"410 742 LINE SMOOTH",
"393 742 OFFCURVE",
"385 735 OFFCURVE",
"377 719 CURVE SMOOTH",
"23 37 LINE SMOOTH",
"11 15 OFFCURVE",
"17 0 OFFCURVE",
"32 0 CURVE SMOOTH",
"184 0 LINE SMOOTH",
"198 0 OFFCURVE",
"206 7 OFFCURVE",
"210 15 CURVE SMOOTH",
"269 133 LINE",
"272 140 OFFCURVE",
"278 144 OFFCURVE",
"286 144 CURVE SMOOTH",
"487 144 LINE SMOOTH",
"497 144 OFFCURVE",
"500 139 OFFCURVE",
"500 130 CURVE SMOOTH",
"500 25 LINE SMOOTH",
"500 8 OFFCURVE",
"507 0 OFFCURVE",
"527 0 CURVE SMOOTH",
"1062 0 LINE SMOOTH",
"1079 0 OFFCURVE",
"1086 10 OFFCURVE",
"1086 22 CURVE SMOOTH",
"1086 145 LINE SMOOTH",
"1086 159 OFFCURVE",
"1078 164 OFFCURVE",
"1064 164 CURVE SMOOTH"
);
},
{
closed = 1;
nodes = (
"364 314 LINE SMOOTH",
"352 314 OFFCURVE",
"350 322 OFFCURVE",
"358 335 CURVE",
"460 537 LINE SMOOTH",
"476 567 OFFCURVE",
"500 565 OFFCURVE",
"500 535 CURVE SMOOTH",
"500 334 LINE SMOOTH",
"500 321 OFFCURVE",
"493 314 OFFCURVE",
"481 314 CURVE SMOOTH"
);
}
);
};
layerId = "258ED206-D907-4350-8EBA-CBDDA1C16BF7";
paths = (
{
closed = 1;
nodes = (
"157 0 LINE",
"246 140 LINE",
"465 140 LINE",
"444 0 LINE",
"1012 0 LINE",
"1036 160 LINE",
"689 160 LINE",
"708 285 LINE",
"919 285 LINE",
"943 442 LINE",
"731 442 LINE",
"750 564 LINE",
"1088 564 LINE",
"1113 723 LINE",
"446 723 LINE",
"-36 0 LINE"
);
},
{
closed = 1;
nodes = (
"535 601 LINE",
"490 306 LINE",
"342 306 LINE"
);
}
);
width = 1105;
},
{
anchors = (
{
name = top;
position = "{633, 723}";
}
);
background = {
anchors = (
{
name = top;
position = "{616, 742}";
}
);
paths = (
{
closed = 1;
nodes = (
"485 40 LINE SMOOTH",
"478 40 OFFCURVE",
"476 41 OFFCURVE",
"476 49 CURVE SMOOTH",
"476 346 LINE SMOOTH",
"476 354 OFFCURVE",
"478 355 OFFCURVE",
"485 355 CURVE SMOOTH",
"753 355 LINE SMOOTH",
"759 355 OFFCURVE",
"761 356 OFFCURVE",
"761 362 CURVE SMOOTH",
"761 388 LINE SMOOTH",
"761 393 OFFCURVE",
"759 395 OFFCURVE",
"754 395 CURVE SMOOTH",
"485 395 LINE SMOOTH",
"478 395 OFFCURVE",
"476 396 OFFCURVE",
"476 402 CURVE SMOOTH",
"476 693 LINE SMOOTH",
"476 701 OFFCURVE",
"478 702 OFFCURVE",
"485 702 CURVE SMOOTH",
"823 702 LINE SMOOTH",
"829 702 OFFCURVE",
"831 703 OFFCURVE",
"831 709 CURVE SMOOTH",
"831 735 LINE SMOOTH",
"831 740 OFFCURVE",
"829 742 OFFCURVE",
"824 742 CURVE SMOOTH",
"419 742 LINE SMOOTH",
"410 742 OFFCURVE",
"405 739 OFFCURVE",
"401 731 CURVE",
"-12 9 LINE SMOOTH",
"-15 4 OFFCURVE",
"-13 0 OFFCURVE",
"-7 0 CURVE SMOOTH",
"18 0 LINE SMOOTH",
"24 0 OFFCURVE",
"27 2 OFFCURVE",
"30 7 CURVE SMOOTH",
"159 231 LINE SMOOTH",
"162 236 OFFCURVE",
"165 238 OFFCURVE",
"171 238 CURVE SMOOTH",
"425 238 LINE SMOOTH",
"428 238 OFFCURVE",
"430 236 OFFCURVE",
"430 233 CURVE SMOOTH",
"430 10 LINE SMOOTH",
"430 2 OFFCURVE",
"432 0 OFFCURVE",
"439 0 CURVE SMOOTH",
"839 0 LINE SMOOTH",
"844 0 OFFCURVE",
"846 2 OFFCURVE",
"846 7 CURVE SMOOTH",
"846 33 LINE SMOOTH",
"846 39 OFFCURVE",
"844 40 OFFCURVE",
"838 40 CURVE SMOOTH"
);
},
{
closed = 1;
nodes = (
"190 278 LINE SMOOTH",
"184 278 OFFCURVE",
"183 279 OFFCURVE",
"187 286 CURVE SMOOTH",
"415 677 LINE SMOOTH",
"423 691 OFFCURVE",
"429 691 OFFCURVE",
"430 678 CURVE",
"430 287 LINE SMOOTH",
"430 282 OFFCURVE",
"428 278 OFFCURVE",
"422 278 CURVE SMOOTH"
);
}
);
};
layerId = "91AB5BCA-6A50-42DA-B2F7-8181BF189245";
paths = (
{
closed = 1;
nodes = (
"2 0 LINE",
"157 232 LINE",
"398 232 LINE",
"365 0 LINE",
"738 0 LINE",
"743 39 LINE",
"411 39 LINE",
"454 346 LINE",
"710 346 LINE",
"715 385 LINE",
"460 385 LINE",
"502 684 LINE",
"821 684 LINE",
"826 723 LINE",
"445 723 LINE",
"-36 0 LINE"
);
},
{
closed = 1;
nodes = (
"461 685 LINE",
"403 271 LINE",
"180 271 LINE"
);
}
);
width = 844;
}
);
leftKerningGroup = AE;
rightKerningGroup = E;
rightMetricsKey = E;
unicode = 00C6;
},
{
glyphname = B;
lastChange = "2019-04-16 04:59:23 +0000";
layers = (
{
background = {
paths = (
{
closed = 1;
nodes = (
"408 0 LINE SMOOTH",
"624 0 OFFCURVE",
"727 65 OFFCURVE",
"727 202 CURVE SMOOTH",
"727 287 OFFCURVE",
"688 338 OFFCURVE",
"578 379 CURVE SMOOTH",
"575 380 OFFCURVE",
"575 385 OFFCURVE",
"578 386 CURVE SMOOTH",
"678 432 OFFCURVE",
"709 477 OFFCURVE",
"709 546 CURVE SMOOTH",
"709 675 OFFCURVE",
"599 742 OFFCURVE",
"392 742 CURVE SMOOTH",
"94 742 LINE SMOOTH",
"79 742 OFFCURVE",
"69 731 OFFCURVE",
"69 716 CURVE SMOOTH",
"69 22 LINE SMOOTH",
"69 10 OFFCURVE",
"78 0 OFFCURVE",
"92 0 CURVE SMOOTH"
);
},
{
closed = 1;
nodes = (
"300 150 OFFCURVE",
"296 157 OFFCURVE",
"296 172 CURVE SMOOTH",
"296 277 LINE SMOOTH",
"296 292 OFFCURVE",
"302 298 OFFCURVE",
"319 298 CURVE SMOOTH",
"408 298 LINE SMOOTH",
"458 298 OFFCURVE",
"491 268 OFFCURVE",
"491 227 CURVE SMOOTH",
"491 188 OFFCURVE",
"461 150 OFFCURVE",
"403 150 CURVE SMOOTH",
"313 150 LINE SMOOTH"
);
},
{
closed = 1;
nodes = (
"300 452 OFFCURVE",
"296 459 OFFCURVE",
"296 474 CURVE SMOOTH",
"296 572 LINE SMOOTH",
"296 587 OFFCURVE",
"302 592 OFFCURVE",
"319 592 CURVE SMOOTH",
"401 592 LINE SMOOTH",
"448 592 OFFCURVE",
"485 564 OFFCURVE",
"485 520 CURVE SMOOTH",
"485 481 OFFCURVE",
"455 452 OFFCURVE",
"408 452 CURVE SMOOTH",
"313 452 LINE SMOOTH"
);
}
);
};
layerId = "258ED206-D907-4350-8EBA-CBDDA1C16BF7";
paths = (
{
closed = 1;
nodes = (
"337 0 LINE SMOOTH",
"545 0 OFFCURVE",
"635 62 OFFCURVE",
"656 197 CURVE",
"664 251 OFFCURVE",
"670 334 OFFCURVE",
"549 372 CURVE",
"644 416 OFFCURVE",
"680 465 OFFCURVE",
"690 532 CURVE SMOOTH",
"708 655 OFFCURVE",
"631 723 OFFCURVE",
"431 723 CURVE SMOOTH",
"143 723 LINE",
"34 0 LINE"
);
},
{
closed = 1;
nodes = (
"272 291 LINE",
"393 291 LINE",
"441 291 OFFCURVE",
"469 261 OFFCURVE",
"463 221 CURVE SMOOTH",
"457 183 OFFCURVE",
"422 146 OFFCURVE",
"366 146 CURVE",
"250 146 LINE"
);
},
{
closed = 1;
nodes = (
"315 577 LINE",
"429 577 LINE SMOOTH",
"475 577 OFFCURVE",
"507 550 OFFCURVE",
"500 507 CURVE SMOOTH",
"494 469 OFFCURVE",
"461 441 OFFCURVE",
"416 441 CURVE SMOOTH",
"294 441 LINE"
);
}
);
width = 705;
},
{
background = {
paths = (
{
closed = 1;
nodes = (
"318 0 LINE SMOOTH",
"493 0 OFFCURVE",
"596 65 OFFCURVE",
"596 197 CURVE SMOOTH",
"596 297 OFFCURVE",
"537 356 OFFCURVE",
"447 373 CURVE SMOOTH",
"441 374 OFFCURVE",
"441 380 OFFCURVE",
"447 382 CURVE SMOOTH",
"535 409 OFFCURVE",
"578 467 OFFCURVE",
"578 551 CURVE SMOOTH",
"578 675 OFFCURVE",
"481 742 OFFCURVE",
"315 742 CURVE SMOOTH",
"110 742 LINE SMOOTH",
"103 742 OFFCURVE",
"101 740 OFFCURVE",
"101 732 CURVE SMOOTH",
"101 8 LINE SMOOTH",
"101 3 OFFCURVE",
"104 0 OFFCURVE",
"109 0 CURVE SMOOTH"
);
},
{
closed = 1;
nodes = (
"149 40 OFFCURVE",
"147 43 OFFCURVE",
"147 50 CURVE SMOOTH",
"147 346 LINE SMOOTH",
"147 353 OFFCURVE",
"150 355 OFFCURVE",
"158 355 CURVE SMOOTH",
"327 355 LINE SMOOTH",
"452 355 OFFCURVE",
"548 311 OFFCURVE",
"548 191 CURVE SMOOTH",
"548 82 OFFCURVE",
"471 40 OFFCURVE",
"313 40 CURVE SMOOTH",
"154 40 LINE SMOOTH"
);
},
{
closed = 1;
nodes = (
"149 395 OFFCURVE",
"147 398 OFFCURVE",
"147 405 CURVE SMOOTH",
"147 694 LINE SMOOTH",
"147 700 OFFCURVE",
"150 702 OFFCURVE",
"156 702 CURVE SMOOTH",
"311 702 LINE SMOOTH",
"446 702 OFFCURVE",
"530 654 OFFCURVE",
"530 546 CURVE SMOOTH",
"530 424 OFFCURVE",
"420 395 OFFCURVE",
"327 395 CURVE SMOOTH",
"154 395 LINE SMOOTH"
);
}
);
};
layerId = "91AB5BCA-6A50-42DA-B2F7-8181BF189245";
paths = (
{
closed = 1;
nodes = (
"259 0 LINE",
"416 0 OFFCURVE",
"517 64 OFFCURVE",
"535 193 CURVE",
"549 289 OFFCURVE",
"507 349 OFFCURVE",
"412 367 CURVE",
"511 397 OFFCURVE",
"555 454 OFFCURVE",
"567 536 CURVE SMOOTH",
"584 657 OFFCURVE",
"507 723 OFFCURVE",
"358 723 CURVE SMOOTH",
"171 723 LINE",
"69 0 LINE"
);
},
{
closed = 1;
nodes = (
"154 345 LINE",
"316 345 LINE SMOOTH",
"428 345 OFFCURVE",
"515 304 OFFCURVE",
"499 187 CURVE SMOOTH",
"484 81 OFFCURVE",
"402 41 OFFCURVE",
"260 41 CURVE",
"111 41 LINE"
);
},
{
closed = 1;
nodes = (
"201 683 LINE",
"348 683 LINE SMOOTH",
"470 683 OFFCURVE",
"545 637 OFFCURVE",
"530 531 CURVE SMOOTH",
"514 412 OFFCURVE",
"404 386 OFFCURVE",
"321 386 CURVE SMOOTH",
"159 386 LINE"
);
}
);
width = 609;
}
);
leftKerningGroup = N;
leftMetricsKey = N;
rightKerningGroup = B;
unicode = 0042;
},
{
glyphname = C;
lastChange = "2019-04-16 04:59:23 +0000";
layers = (
{
anchors = (
{
name = bottom;
position = "{349, 0}";
},
{
name = top;
position = "{458, 723}";
}
);
background = {
anchors = (
{
name = bottom;
position = "{401, 0}";
},
{
name = top;
position = "{403, 742}";
}
);
paths = (
{
closed = 1;
nodes = (
"186 752 OFFCURVE",
"48 606 OFFCURVE",
"48 381 CURVE SMOOTH",
"48 155 OFFCURVE",
"186 -10 OFFCURVE",
"401 -10 CURVE SMOOTH",
"632 -10 OFFCURVE",
"718 167 OFFCURVE",
"728 221 CURVE SMOOTH",
"732 247 OFFCURVE",
"721 252 OFFCURVE",
"714 254 CURVE SMOOTH",
"589 279 LINE SMOOTH",
"573 282 OFFCURVE",
"564 279 OFFCURVE",
"561 271 CURVE SMOOTH",
"526 183 OFFCURVE",
"475 154 OFFCURVE",
"408 154 CURVE SMOOTH",
"327 154 OFFCURVE",
"286 212 OFFCURVE",
"286 377 CURVE SMOOTH",
"286 540 OFFCURVE",
"334 598 OFFCURVE",
"409 598 CURVE SMOOTH",
"477 598 OFFCURVE",
"504 544 OFFCURVE",
"516 475 CURVE",
"706 487 LINE",
"721 489 OFFCURVE",
"725 494 OFFCURVE",
"719 522 CURVE SMOOTH",
"693 655 OFFCURVE",
"572 752 OFFCURVE",
"403 752 CURVE SMOOTH"
);
}
);
};
guideLines = (
{
angle = -183.559;
position = "{514, 299}";
}
);
layerId = "258ED206-D907-4350-8EBA-CBDDA1C16BF7";
paths = (
{
closed = 1;
nodes = (
"577 -10 OFFCURVE",
"659 120 OFFCURVE",
"702 270 CURVE",
"500 270 LINE",
"479 203 OFFCURVE",
"430 146 OFFCURVE",
"364 146 CURVE SMOOTH",
"291 146 OFFCURVE",
"248 207 OFFCURVE",
"272 368 CURVE SMOOTH",
"296 527 OFFCURVE",
"357 577 OFFCURVE",
"429 577 CURVE SMOOTH",
"496 577 OFFCURVE",
"529 535 OFFCURVE",
"530 468 CURVE",
"732 468 LINE",
"739 624 OFFCURVE",
"631 733 OFFCURVE",
"460 733 CURVE SMOOTH",
"250 733 OFFCURVE",
"94 591 OFFCURVE",
"61 371 CURVE SMOOTH",
"28 151 OFFCURVE",
"139 -10 OFFCURVE",
"347 -10 CURVE SMOOTH"
);
}
);
width = 743;
},
{
anchors = (
{
name = bottom;
position = "{301, 0}";
},
{
name = top;
position = "{396, 723}";
}
);
background = {
anchors = (
{
name = bottom;
position = "{369, 0}";
},
{
name = top;
position = "{363, 742}";
}
);
guideLines = (
{
angle = 90;
position = "{624, 369}";
}
);
paths = (
{
closed = 1;
nodes = (
"176 752 OFFCURVE",
"66 610 OFFCURVE",
"66 368 CURVE SMOOTH",
"66 127 OFFCURVE",
"176 -10 OFFCURVE",
"369 -10 CURVE SMOOTH",
"490 -10 OFFCURVE",
"590 61 OFFCURVE",
"625 171 CURVE SMOOTH",
"626 175 OFFCURVE",
"625 177 OFFCURVE",
"623 178 CURVE SMOOTH",
"589 188 LINE SMOOTH",
"586 189 OFFCURVE",
"584 188 OFFCURVE",
"583 186 CURVE SMOOTH",
"543 81 OFFCURVE",
"477 32 OFFCURVE",
"373 32 CURVE SMOOTH",
"200 32 OFFCURVE",
"114 153 OFFCURVE",
"114 368 CURVE SMOOTH",
"114 591 OFFCURVE",
"202 710 OFFCURVE",
"365 710 CURVE SMOOTH",
"466 710 OFFCURVE",
"546 647 OFFCURVE",
"569 552 CURVE SMOOTH",
"570 546 OFFCURVE",
"572 544 OFFCURVE",
"576 545 CURVE SMOOTH",
"612 549 LINE SMOOTH",
"617 549 OFFCURVE",
"618 551 OFFCURVE",
"617 556 CURVE SMOOTH",
"605 659 OFFCURVE",
"485 752 OFFCURVE",
"363 752 CURVE SMOOTH"
);
}
);
};
guideLines = (
{
angle = 90;
position = "{625, 342}";
}
);
layerId = "91AB5BCA-6A50-42DA-B2F7-8181BF189245";
paths = (
{
closed = 1;
nodes = (
"409 -10 OFFCURVE",
"526 69 OFFCURVE",
"550 173 CURVE",
"513 184 LINE",
"478 87 OFFCURVE",
"398 31 OFFCURVE",
"307 31 CURVE SMOOTH",
"151 31 OFFCURVE",
"95 149 OFFCURVE",
"125 359 CURVE SMOOTH",
"155 576 OFFCURVE",
"246 692 OFFCURVE",
"392 692 CURVE SMOOTH",
"506 692 OFFCURVE",
"560 623 OFFCURVE",
"564 529 CURVE",
"605 536 LINE",
"609 640 OFFCURVE",
"532 733 OFFCURVE",
"396 733 CURVE SMOOTH",
"229 733 OFFCURVE",
"117 595 OFFCURVE",
"84 359 CURVE SMOOTH",
"51 124 OFFCURVE",
"126 -10 OFFCURVE",
"299 -10 CURVE SMOOTH"
);
}
);
width = 631;
}
);
leftKerningGroup = O;
leftMetricsKey = O;
rightKerningGroup = C;
unicode = 0043;
},
{
glyphname = D;
lastChange = "2019-04-16 04:59:23 +0000";
layers = (
{
anchors = (
{
name = bottom;
position = "{317, 0}";
},
{
name = center;
position = "{391, 362}";
},
{
name = top;
position = "{446, 723}";
}
);
background = {
anchors = (
{
name = center;
position = "{387, 371}";
},
{
name = top;
position = "{387, 742}";
}
);
paths = (
{
closed = 1;
nodes = (
"49 0 LINE",
"341 0 LINE SMOOTH",
"604 0 OFFCURVE",
"737 157 OFFCURVE",
"737 373 CURVE SMOOTH",
"737 584 OFFCURVE",
"610 731 OFFCURVE",
"342 741 CURVE SMOOTH",
"278 743 OFFCURVE",
"70 742 OFFCURVE",
"49 742 CURVE"
);
},
{
closed = 1;
nodes = (
"296 585 LINE SMOOTH",
"448 585 OFFCURVE",
"499 513 OFFCURVE",
"499 376 CURVE SMOOTH",
"499 215 OFFCURVE",
"423 157 OFFCURVE",
"297 157 CURVE SMOOTH",
"276 157 LINE",
"276 585 LINE"
);
}
);
};
layerId = "258ED206-D907-4350-8EBA-CBDDA1C16BF7";
paths = (
{
closed = 1;
nodes = (
"291 0 LINE SMOOTH",
"546 0 OFFCURVE",
"687 153 OFFCURVE",
"719 364 CURVE SMOOTH",
"750 569 OFFCURVE",
"660 713 OFFCURVE",
"402 722 CURVE SMOOTH",
"340 724 OFFCURVE",
"165 723 OFFCURVE",
"144 723 CURVE",
"34 0 LINE"
);
},
{
closed = 1;
nodes = (
"314 570 LINE",
"384 570 LINE SMOOTH",
"482 570 OFFCURVE",
"538 500 OFFCURVE",
"518 367 CURVE SMOOTH",
"494 210 OFFCURVE",
"394 153 OFFCURVE",
"320 153 CURVE SMOOTH",
"251 153 LINE"
);
}
);
width = 744;
},
{
anchors = (
{
name = bottom;
position = "{296, 0}";
},
{
name = center;
position = "{323, 362}";
},
{
name = top;
position = "{368, 723}";
}
);
background = {
anchors = (
{
name = center;
position = "{330, 371}";
},
{
name = top;
position = "{324, 742}";
}
);
paths = (
{
closed = 1;
nodes = (
"102 0 LINE",
"213 0 LINE SMOOTH",
"485 0 OFFCURVE",
"614 115 OFFCURVE",
"614 376 CURVE SMOOTH",
"614 624 OFFCURVE",
"502 739 OFFCURVE",
"227 741 CURVE SMOOTH",
"165 741 OFFCURVE",
"104 742 OFFCURVE",
"102 742 CURVE"
);
},
{
closed = 1;
nodes = (
"150 701 OFFCURVE",
"198 701 OFFCURVE",
"216 701 CURVE SMOOTH",
"460 696 OFFCURVE",
"566 628 OFFCURVE",
"566 372 CURVE SMOOTH",
"566 130 OFFCURVE",
"467 40 OFFCURVE",
"209 40 CURVE SMOOTH",
"148 40 LINE",
"148 701 LINE"
);
}
);
};
layerId = "91AB5BCA-6A50-42DA-B2F7-8181BF189245";
paths = (
{
closed = 1;
nodes = (
"167 0 LINE SMOOTH",
"411 0 OFFCURVE",
"542 112 OFFCURVE",
"578 367 CURVE SMOOTH",
"612 608 OFFCURVE",
"527 721 OFFCURVE",
"281 722 CURVE SMOOTH",
"226 722 OFFCURVE",
"173 723 OFFCURVE",
"171 723 CURVE",
"69 0 LINE"
);
},
{
closed = 1;
nodes = (
"204 682 LINE",
"265 682 LINE SMOOTH",
"469 682 OFFCURVE",
"574 612 OFFCURVE",
"539 363 CURVE SMOOTH",
"506 127 OFFCURVE",
"385 41 OFFCURVE",
"170 41 CURVE SMOOTH",
"114 41 LINE"
);
}
);
width = 628;
}
);
leftKerningGroup = N;
leftMetricsKey = N;
rightKerningGroup = O;
unicode = 0044;
},
{
glyphname = Eth;
lastChange = "2019-04-16 04:59:23 +0000";
layers = (
{
background = {
components = (
{
name = D;
transform = "{1, 0, 0, 1, 73, 0}";
}
);
paths = (
{
closed = 1;
nodes = (
"463 415 OFFCURVE",
"456 423 OFFCURVE",
"445 423 CURVE SMOOTH",
"84 423 LINE SMOOTH",
"72 423 OFFCURVE",
"65 415 OFFCURVE",
"65 401 CURVE SMOOTH",
"65 310 LINE SMOOTH",
"65 293 OFFCURVE",
"71 286 OFFCURVE",
"91 286 CURVE SMOOTH",
"431 286 LINE SMOOTH",
"453 286 OFFCURVE",
"463 293 OFFCURVE",
"463 313 CURVE SMOOTH",
"463 404 LINE SMOOTH"
);
}
);
};
components = (
{
name = D;
transform = "{1, 0, 0, 1, 73, 0}";
}
);
layerId = "258ED206-D907-4350-8EBA-CBDDA1C16BF7";
paths = (
{
closed = 1;
nodes = (
"469 286 LINE",
"489 423 LINE",
"59 423 LINE",
"39 286 LINE"
);
}
);
width = 817;
},
{
background = {
components = (
{
name = D;
transform = "{1, 0, 0, 1, 16, 0}";
}
);
paths = (
{
closed = 1;
nodes = (
"352 382 OFFCURVE",
"350 385 OFFCURVE",
"346 385 CURVE SMOOTH",
"60 385 LINE SMOOTH",
"55 385 OFFCURVE",
"53 382 OFFCURVE",
"53 376 CURVE SMOOTH",
"53 354 LINE SMOOTH",
"53 347 OFFCURVE",
"55 344 OFFCURVE",
"63 344 CURVE SMOOTH",
"340 344 LINE SMOOTH",
"349 344 OFFCURVE",
"352 347 OFFCURVE",
"352 355 CURVE SMOOTH",
"352 377 LINE SMOOTH"
);
}
);
};
components = (
{
name = D;
transform = "{1, 0, 0, 1, 16, 0}";
}
);
layerId = "91AB5BCA-6A50-42DA-B2F7-8181BF189245";
paths = (
{
closed = 1;
nodes = (
"352 344 LINE",
"352 385 LINE",
"53 385 LINE",
"53 344 LINE"
);
}
);
width = 644;
}
);
leftKerningGroup = N;
rightKerningGroup = O;
rightMetricsKey = D;
unicode = 00D0;
},
{
glyphname = E;
lastChange = "2019-04-16 05:00:06 +0000";
layers = (
{
anchors = (
{
name = bottom;
position = "{299, 0}";
},
{
name = ogonek;
position = "{566, 10}";
},
{
name = top;
position = "{398, 723}";
}
);
background = {
anchors = (
{
name = bottom;
position = "{351, 0}";
},
{
name = ogonek;
position = "{625, 10}";
},
{
name = top;
position = "{351, 742}";
}
);
paths = (
{
closed = 1;
nodes = (
"67 25 LINE SMOOTH",
"67 8 OFFCURVE",
"74 0 OFFCURVE",
"94 0 CURVE SMOOTH",
"629 0 LINE SMOOTH",
"646 0 OFFCURVE",
"653 10 OFFCURVE",
"653 22 CURVE SMOOTH",
"653 145 LINE SMOOTH",
"653 159 OFFCURVE",
"645 164 OFFCURVE",
"631 164 CURVE SMOOTH",
"306 164 LINE SMOOTH",
"297 164 OFFCURVE",
"294 167 OFFCURVE",
"294 178 CURVE SMOOTH",
"294 278 LINE SMOOTH",
"294 286 OFFCURVE",
"300 292 OFFCURVE",
"310 292 CURVE SMOOTH",
"495 292 LINE SMOOTH",
"508 292 OFFCURVE",
"513 300 OFFCURVE",
"513 309 CURVE SMOOTH",
"513 433 LINE SMOOTH",
"513 446 OFFCURVE",
"506 453 OFFCURVE",
"492 453 CURVE SMOOTH",
"312 453 LINE SMOOTH",
"302 453 OFFCURVE",
"294 460 OFFCURVE",
"294 474 CURVE SMOOTH",
"294 559 LINE SMOOTH",
"294 572 OFFCURVE",
"302 578 OFFCURVE",
"317 578 CURVE SMOOTH",
"617 578 LINE SMOOTH",
"635 578 OFFCURVE",
"643 589 OFFCURVE",
"643 605 CURVE SMOOTH",
"644 721 LINE SMOOTH",
"644 734 OFFCURVE",
"638 742 OFFCURVE",
"626 742 CURVE SMOOTH",
"86 742 LINE SMOOTH",
"74 742 OFFCURVE",
"67 734 OFFCURVE",
"67 719 CURVE SMOOTH"
);
}
);
};
layerId = "258ED206-D907-4350-8EBA-CBDDA1C16BF7";
paths = (
{
closed = 1;
nodes = (
"565 0 LINE",
"590 162 LINE",
"252 162 LINE",
"271 285 LINE",
"552 285 LINE",
"576 442 LINE",
"296 442 LINE",
"314 562 LINE",
"649 562 LINE",
"674 723 LINE",
"144 723 LINE",
"34 0 LINE"
);
}
);
width = 664;
},
{
anchors = (
{
name = bottom;
position = "{271, 0}";
},
{
name = ogonek;
position = "{461, 10}";
},
{
name = top;
position = "{353, 723}";
}
);
background = {
anchors = (
{
name = bottom;
position = "{353, 0}";
},
{
name = ogonek;
position = "{538, 10}";
},
{
name = top;
position = "{334, 742}";
}
);
paths = (
{
closed = 1;
nodes = (
"103 10 LINE SMOOTH",
"103 2 OFFCURVE",
"105 0 OFFCURVE",
"112 0 CURVE SMOOTH",
"542 0 LINE SMOOTH",
"547 0 OFFCURVE",
"549 2 OFFCURVE",
"549 7 CURVE SMOOTH",
"549 33 LINE SMOOTH",
"549 39 OFFCURVE",
"547 40 OFFCURVE",
"541 40 CURVE SMOOTH",
"158 40 LINE SMOOTH",
"151 40 OFFCURVE",
"149 41 OFFCURVE",
"149 49 CURVE SMOOTH",
"149 346 LINE SMOOTH",
"149 354 OFFCURVE",
"151 355 OFFCURVE",
"158 355 CURVE SMOOTH",
"446 355 LINE SMOOTH",
"452 355 OFFCURVE",
"454 356 OFFCURVE",
"454 362 CURVE SMOOTH",
"454 388 LINE SMOOTH",
"454 393 OFFCURVE",
"452 395 OFFCURVE",
"447 395 CURVE SMOOTH",
"158 395 LINE SMOOTH",
"151 395 OFFCURVE",
"149 396 OFFCURVE",
"149 402 CURVE SMOOTH",
"149 693 LINE SMOOTH",
"149 701 OFFCURVE",
"151 702 OFFCURVE",
"158 702 CURVE SMOOTH",
"526 702 LINE SMOOTH",
"532 702 OFFCURVE",
"534 703 OFFCURVE",
"534 709 CURVE SMOOTH",
"534 735 LINE SMOOTH",
"534 740 OFFCURVE",
"532 742 OFFCURVE",
"527 742 CURVE SMOOTH",
"112 742 LINE SMOOTH",
"105 742 OFFCURVE",
"103 740 OFFCURVE",
"103 732 CURVE SMOOTH"
);
}
);
};
layerId = "91AB5BCA-6A50-42DA-B2F7-8181BF189245";
paths = (
{
closed = 1;
nodes = (
"464 0 LINE",
"470 41 LINE",
"111 42 LINE",
"154 345 LINE",
"476 345 LINE",
"481 386 LINE",
"159 386 LINE",
"201 683 LINE",
"547 683 LINE",
"553 723 LINE",
"171 723 LINE",
"69 0 LINE"
);
}
);
width = 571;
}
);
leftKerningGroup = N;
leftMetricsKey = N;
rightKerningGroup = E;
unicode = 0045;
},
{
glyphname = F;
lastChange = "2019-04-16 04:59:23 +0000";
layers = (
{
background = {
paths = (
{
closed = 1;
nodes = (
"51 25 LINE SMOOTH",
"51 8 OFFCURVE",
"57 0 OFFCURVE",
"78 0 CURVE",
"245 0 LINE SMOOTH",
"268 0 OFFCURVE",
"278 8 OFFCURVE",
"278 29 CURVE SMOOTH",
"278 271 LINE SMOOTH",
"278 280 OFFCURVE",
"284 286 OFFCURVE",
"294 286 CURVE SMOOTH",
"481 286 LINE SMOOTH",
"495 286 OFFCURVE",
"499 293 OFFCURVE",
"499 303 CURVE SMOOTH",
"499 425 LINE SMOOTH",
"499 438 OFFCURVE",
"493 445 OFFCURVE",
"479 445 CURVE SMOOTH",
"296 445 LINE SMOOTH",
"285 445 OFFCURVE",
"278 451 OFFCURVE",
"278 465 CURVE SMOOTH",
"278 559 LINE SMOOTH",
"278 572 OFFCURVE",
"285 578 OFFCURVE",
"301 578 CURVE SMOOTH",
"595 578 LINE SMOOTH",
"613 578 OFFCURVE",
"620 589 OFFCURVE",
"620 605 CURVE SMOOTH",
"621 721 LINE SMOOTH",
"621 734 OFFCURVE",
"615 742 OFFCURVE",
"603 742 CURVE SMOOTH",
"70 742 LINE SMOOTH",
"59 742 OFFCURVE",
"51 734 OFFCURVE",
"51 719 CURVE SMOOTH"
);
}
);
};
layerId = "258ED206-D907-4350-8EBA-CBDDA1C16BF7";
paths = (
{
closed = 1;
nodes = (
"228 0 LINE",
"270 279 LINE",
"547 279 LINE",
"571 434 LINE",
"293 434 LINE",
"313 564 LINE",
"645 564 LINE",
"670 723 LINE",
"144 723 LINE",
"34 0 LINE"
);
}
);
width = 635;
},
{
background = {
paths = (
{
closed = 1;
nodes = (
"107 10 LINE SMOOTH",
"107 2 OFFCURVE",
"109 0 OFFCURVE",
"116 0 CURVE SMOOTH",
"146 0 LINE SMOOTH",
"151 0 OFFCURVE",
"153 2 OFFCURVE",
"153 7 CURVE SMOOTH",
"153 333 LINE SMOOTH",
"153 341 OFFCURVE",
"155 342 OFFCURVE",
"162 342 CURVE SMOOTH",
"460 342 LINE SMOOTH",
"466 342 OFFCURVE",
"468 343 OFFCURVE",
"468 349 CURVE SMOOTH",
"468 375 LINE SMOOTH",
"468 380 OFFCURVE",
"466 382 OFFCURVE",
"461 382 CURVE SMOOTH",
"162 382 LINE SMOOTH",
"155 382 OFFCURVE",
"153 383 OFFCURVE",
"153 389 CURVE SMOOTH",
"153 693 LINE SMOOTH",
"153 701 OFFCURVE",
"155 702 OFFCURVE",
"162 702 CURVE SMOOTH",
"520 702 LINE SMOOTH",
"526 702 OFFCURVE",
"528 703 OFFCURVE",
"528 709 CURVE SMOOTH",
"528 735 LINE SMOOTH",
"528 740 OFFCURVE",
"526 742 OFFCURVE",
"521 742 CURVE SMOOTH",
"116 742 LINE SMOOTH",
"109 742 OFFCURVE",
"107 740 OFFCURVE",
"107 732 CURVE SMOOTH"
);
}
);
};
layerId = "91AB5BCA-6A50-42DA-B2F7-8181BF189245";
paths = (
{
closed = 1;
nodes = (
"108 0 LINE",
"157 346 LINE",
"470 346 LINE",
"475 387 LINE",
"163 387 LINE",
"204 683 LINE",
"541 683 LINE",
"546 723 LINE",
"170 723 LINE",
"69 0 LINE"
);
}
);
width = 526;
}
);
leftKerningGroup = N;
leftMetricsKey = N;
rightKerningGroup = E;
unicode = 0046;
},
{
glyphname = G;
lastChange = "2019-04-16 04:59:23 +0000";
layers = (
{
anchors = (
{
name = bottom;
position = "{346, 0}";
},
{
name = top;
position = "{460, 723}";
}
);
background = {
anchors = (
{
name = bottom;
position = "{399, 0}";
},
{
name = top;
position = "{399, 742}";
}
);
paths = (
{
closed = 1;
nodes = (
"515 -10 OFFCURVE",
"566 40 OFFCURVE",
"602 75 CURVE SMOOTH",
"607 81 OFFCURVE",
"610 81 OFFCURVE",
"613 77 CURVE SMOOTH",
"653 19 LINE SMOOTH",
"663 5 OFFCURVE",
"673 0 OFFCURVE",
"685 0 CURVE SMOOTH",
"723 0 LINE SMOOTH",
"733 0 OFFCURVE",
"740 8 OFFCURVE",
"740 17 CURVE SMOOTH",
"740 344 LINE SMOOTH",
"740 362 OFFCURVE",
"727 375 OFFCURVE",
"702 375 CURVE SMOOTH",
"422 377 LINE SMOOTH",
"407 377 OFFCURVE",
"401 370 OFFCURVE",
"401 360 CURVE SMOOTH",
"401 264 LINE SMOOTH",
"401 247 OFFCURVE",
"407 242 OFFCURVE",
"421 242 CURVE SMOOTH",
"515 242 LINE SMOOTH",
"525 242 OFFCURVE",
"528 236 OFFCURVE",
"524 225 CURVE",
"521 216 LINE",
"503 170 OFFCURVE",
"469 146 OFFCURVE",
"413 146 CURVE SMOOTH",
"337 146 OFFCURVE",
"285 193 OFFCURVE",
"285 374 CURVE SMOOTH",
"285 544 OFFCURVE",
"331 597 OFFCURVE",
"405 597 CURVE SMOOTH",
"477 597 OFFCURVE",
"512 547 OFFCURVE",
"522 492 CURVE SMOOTH",
"525 479 OFFCURVE",
"526 472 OFFCURVE",
"542 472 CURVE SMOOTH",
"713 498 LINE SMOOTH",
"729 500 OFFCURVE",
"733 505 OFFCURVE",
"727 533 CURVE SMOOTH",
"703 640 OFFCURVE",
"590 752 OFFCURVE",
"410 752 CURVE SMOOTH",
"196 752 OFFCURVE",
"47 599 OFFCURVE",
"47 368 CURVE SMOOTH",
"47 145 OFFCURVE",
"186 -10 OFFCURVE",
"397 -10 CURVE SMOOTH"
);
}
);
};
layerId = "258ED206-D907-4350-8EBA-CBDDA1C16BF7";
paths = (
{
closed = 1;
nodes = (
"461 -10 OFFCURVE",
"519 43 OFFCURVE",
"561 80 CURVE",
"549 0 LINE",
"676 0 LINE",
"734 382 LINE",
"405 384 LINE",
"385 253 LINE",
"510 253 LINE",
"498 227 LINE",
"483 194 OFFCURVE",
"438 159 OFFCURVE",
"383 159 CURVE SMOOTH",
"321 159 OFFCURVE",
"243 188 OFFCURVE",
"270 365 CURVE SMOOTH",
"294 521 OFFCURVE",
"366 572 OFFCURVE",
"438 572 CURVE SMOOTH",
"505 572 OFFCURVE",
"535 527 OFFCURVE",
"539 468 CURVE",
"741 468 LINE",
"759 603 OFFCURVE",
"660 733 OFFCURVE",
"467 733 CURVE SMOOTH",
"260 733 OFFCURVE",
"93 584 OFFCURVE",
"59 359 CURVE SMOOTH",
"25 141 OFFCURVE",
"138 -10 OFFCURVE",
"342 -10 CURVE SMOOTH"
);
}
);
width = 782;
},
{
anchors = (
{
name = bottom;
position = "{298, 0}";
},
{
name = top;
position = "{401, 723}";
}
);
background = {
anchors = (
{
name = bottom;
position = "{366, 0}";
},
{
name = top;
position = "{361, 742}";
}
);
paths = (
{
closed = 1;
nodes = (
"471 -10 OFFCURVE",
"544 45 OFFCURVE",
"583 115 CURVE SMOOTH",
"587 122 OFFCURVE",
"591 121 OFFCURVE",
"591 115 CURVE SMOOTH",
"591 9 LINE SMOOTH",
"591 0 OFFCURVE",
"596 0 OFFCURVE",
"604 0 CURVE SMOOTH",
"621 0 LINE SMOOTH",
"628 0 OFFCURVE",
"631 2 OFFCURVE",
"631 11 CURVE SMOOTH",
"631 371 LINE SMOOTH",
"631 375 OFFCURVE",
"629 377 OFFCURVE",
"625 377 CURVE SMOOTH",
"389 377 LINE SMOOTH",
"386 377 OFFCURVE",
"384 375 OFFCURVE",
"384 371 CURVE SMOOTH",
"384 348 LINE SMOOTH",
"384 344 OFFCURVE",
"386 342 OFFCURVE",
"391 342 CURVE SMOOTH",
"580 342 LINE SMOOTH",
"586 342 OFFCURVE",
"591 341 OFFCURVE",
"591 334 CURVE SMOOTH",
"591 255 LINE SMOOTH",
"591 161 OFFCURVE",
"519 32 OFFCURVE",
"361 32 CURVE SMOOTH",
"198 32 OFFCURVE",
"113 153 OFFCURVE",
"113 374 CURVE SMOOTH",
"113 584 OFFCURVE",
"200 710 OFFCURVE",
"361 710 CURVE SMOOTH",
"467 710 OFFCURVE",
"552 640 OFFCURVE",
"568 551 CURVE SMOOTH",
"569 546 OFFCURVE",
"572 544 OFFCURVE",
"575 545 CURVE SMOOTH",
"610 551 LINE SMOOTH",
"615 552 OFFCURVE",
"615 555 OFFCURVE",
"615 559 CURVE SMOOTH",
"603 663 OFFCURVE",
"484 752 OFFCURVE",
"361 752 CURVE SMOOTH",
"180 752 OFFCURVE",
"65 614 OFFCURVE",
"65 368 CURVE SMOOTH",
"65 129 OFFCURVE",
"175 -10 OFFCURVE",
"360 -10 CURVE SMOOTH"
);
}
);
};
layerId = "91AB5BCA-6A50-42DA-B2F7-8181BF189245";
paths = (
{
closed = 1;
nodes = (
"400 -10 OFFCURVE",
"476 50 OFFCURVE",
"523 126 CURVE",
"505 0 LINE",
"541 0 LINE",
"593 368 LINE",
"371 368 LINE",
"366 333 LINE",
"552 333 LINE",
"540 249 LINE SMOOTH",
"527 157 OFFCURVE",
"445 29 OFFCURVE",
"303 29 CURVE SMOOTH",
"157 29 OFFCURVE",
"92 149 OFFCURVE",
"122 365 CURVE SMOOTH",
"151 569 OFFCURVE",
"252 692 OFFCURVE",
"396 692 CURVE SMOOTH",
"492 692 OFFCURVE",
"558 621 OFFCURVE",
"559 530 CURVE",
"603 538 LINE",
"608 644 OFFCURVE",
"513 733 OFFCURVE",
"402 733 CURVE SMOOTH",
"239 733 OFFCURVE",
"117 599 OFFCURVE",
"84 359 CURVE SMOOTH",
"51 126 OFFCURVE",
"130 -10 OFFCURVE",
"297 -10 CURVE SMOOTH"
);
}
);
width = 668;
}
);
leftKerningGroup = O;
leftMetricsKey = O;
rightKerningGroup = G;
unicode = 0047;
},
{
glyphname = H;
lastChange = "2019-04-16 04:59:23 +0000";
layers = (
{
anchors = (
{
name = bottom;
position = "{332, 0}";
},
{
name = top;
position = "{446, 723}";
}
);
background = {
anchors = (
{
name = bottom;
position = "{385, 0}";
},
{
name = top;
position = "{387, 742}";
}
);
paths = (
{
closed = 1;
nodes = (
"484 297 OFFCURVE",
"490 290 OFFCURVE",
"490 282 CURVE SMOOTH",
"490 29 LINE SMOOTH",
"490 8 OFFCURVE",
"500 0 OFFCURVE",
"523 0 CURVE SMOOTH",
"690 0 LINE SMOOTH",
"711 0 OFFCURVE",
"717 8 OFFCURVE",
"717 25 CURVE SMOOTH",
"717 719 LINE SMOOTH",
"717 734 OFFCURVE",
"709 742 OFFCURVE",
"698 742 CURVE SMOOTH",
"508 742 LINE SMOOTH",
"497 742 OFFCURVE",
"490 734 OFFCURVE",
"490 721 CURVE SMOOTH",
"490 489 LINE SMOOTH",
"490 476 OFFCURVE",
"483 469 OFFCURVE",
"472 469 CURVE SMOOTH",
"304 469 LINE SMOOTH",
"293 469 OFFCURVE",
"286 476 OFFCURVE",
"286 489 CURVE SMOOTH",
"286 721 LINE SMOOTH",
"286 734 OFFCURVE",
"279 742 OFFCURVE",
"268 742 CURVE SMOOTH",
"78 742 LINE SMOOTH",
"67 742 OFFCURVE",
"59 734 OFFCURVE",
"59 719 CURVE SMOOTH",
"59 25 LINE SMOOTH",
"59 8 OFFCURVE",
"65 0 OFFCURVE",
"86 0 CURVE SMOOTH",
"253 0 LINE SMOOTH",
"276 0 OFFCURVE",
"286 8 OFFCURVE",
"286 29 CURVE SMOOTH",
"286 282 LINE SMOOTH",
"286 290 OFFCURVE",
"292 297 OFFCURVE",
"302 297 CURVE SMOOTH",
"474 297 LINE SMOOTH"
);
}
);
};
layerId = "258ED206-D907-4350-8EBA-CBDDA1C16BF7";
paths = (
{
closed = 1;
nodes = (
"228 0 LINE",
"272 290 LINE",
"489 290 LINE",
"445 0 LINE",
"639 0 LINE",
"749 723 LINE",
"555 723 LINE",
"514 449 LINE",
"296 449 LINE",
"338 723 LINE",
"144 723 LINE",
"34 0 LINE"
);
}
);
width = 754;
},
{
anchors = (
{
name = bottom;
position = "{289, 0}";
},
{
name = top;
position = "{391, 723}";
}
);
background = {
anchors = (
{
name = bottom;
position = "{350, 0}";
},
{
name = top;
position = "{350, 742}";
}
);
paths = (
{
closed = 1;
nodes = (
"550 366 OFFCURVE",
"552 364 OFFCURVE",
"552 359 CURVE SMOOTH",
"552 9 LINE SMOOTH",
"552 2 OFFCURVE",
"555 0 OFFCURVE",
"562 0 CURVE SMOOTH",
"589 0 LINE SMOOTH",
"595 0 OFFCURVE",
"598 3 OFFCURVE",
"598 10 CURVE SMOOTH",
"598 732 LINE SMOOTH",
"598 740 OFFCURVE",
"596 742 OFFCURVE",
"589 742 CURVE SMOOTH",
"560 742 LINE SMOOTH",
"554 742 OFFCURVE",
"552 739 OFFCURVE",
"552 733 CURVE SMOOTH",
"552 414 LINE SMOOTH",
"552 408 OFFCURVE",
"550 406 OFFCURVE",
"544 406 CURVE SMOOTH",
"156 406 LINE SMOOTH",
"149 406 OFFCURVE",
"147 407 OFFCURVE",
"147 415 CURVE SMOOTH",
"147 732 LINE SMOOTH",
"147 740 OFFCURVE",
"145 742 OFFCURVE",
"138 742 CURVE SMOOTH",
"110 742 LINE SMOOTH",
"103 742 OFFCURVE",
"101 740 OFFCURVE",
"101 732 CURVE SMOOTH",
"101 10 LINE SMOOTH",
"101 3 OFFCURVE",
"103 0 OFFCURVE",
"110 0 CURVE SMOOTH",
"137 0 LINE SMOOTH",
"144 0 OFFCURVE",
"147 3 OFFCURVE",
"147 9 CURVE SMOOTH",
"147 360 LINE SMOOTH",
"147 363 OFFCURVE",
"149 366 OFFCURVE",
"153 366 CURVE SMOOTH",
"545 366 LINE SMOOTH"
);
}
);
};
layerId = "91AB5BCA-6A50-42DA-B2F7-8181BF189245";
paths = (
{
closed = 1;
nodes = (
"105 0 LINE",
"155 356 LINE",
"522 356 LINE",
"472 0 LINE",
"508 0 LINE",
"610 723 LINE",
"574 723 LINE",
"528 397 LINE",
"161 397 LINE",
"207 723 LINE",
"171 723 LINE",
"69 0 LINE"
);
}
);
width = 645;
}
);
leftKerningGroup = N;
leftMetricsKey = N;
rightKerningGroup = N;
rightMetricsKey = N;
unicode = 0048;
},
{
glyphname = Hbar;
lastChange = "2019-04-16 04:59:23 +0000";
layers = (
{
background = {
components = (
{
name = H;
transform = "{1, 0, 0, 1, 36, 0}";
}
);
paths = (
{
closed = 1;
nodes = (
"779 635 OFFCURVE",
"773 642 OFFCURVE",
"763 642 CURVE SMOOTH",
"15 642 LINE SMOOTH",
"6 642 OFFCURVE",
"0 635 OFFCURVE",
"0 622 CURVE SMOOTH",
"0 563 LINE SMOOTH",
"0 548 OFFCURVE",
"5 541 OFFCURVE",
"21 541 CURVE SMOOTH",
"751 541 LINE SMOOTH",
"770 541 OFFCURVE",
"779 548 OFFCURVE",
"779 565 CURVE SMOOTH",
"779 624 LINE SMOOTH"
);
}
);
};
components = (
{
name = H;
transform = "{1, 0, 0, 1, 36, 0}";
}
);
layerId = "258ED206-D907-4350-8EBA-CBDDA1C16BF7";
paths = (
{
closed = 1;
nodes = (
"834 541 LINE",
"849 642 LINE",
"75 642 LINE",
"60 541 LINE"
);
}
);
width = 815;
},
{
background = {
components = (
{
name = H;
transform = "{1, 0, 0, 1, 20, 0}";
}
);
paths = (
{
closed = 1;
nodes = (
"708 600 OFFCURVE",
"706 603 OFFCURVE",
"702 603 CURVE SMOOTH",
"36 603 LINE SMOOTH",
"31 603 OFFCURVE",
"29 600 OFFCURVE",
"29 594 CURVE SMOOTH",
"29 573 LINE SMOOTH",
"29 566 OFFCURVE",
"31 564 OFFCURVE",
"39 564 CURVE SMOOTH",
"696 564 LINE SMOOTH",
"705 564 OFFCURVE",
"708 566 OFFCURVE",
"708 574 CURVE SMOOTH",
"708 595 LINE SMOOTH"
);
}
);
};
components = (
{
name = H;
transform = "{1, 0, 0, 1, 20, 0}";
}
);
layerId = "91AB5BCA-6A50-42DA-B2F7-8181BF189245";
paths = (
{
closed = 1;
nodes = (
"678 564 LINE",
"684 603 LINE",
"59 603 LINE",
"53 564 LINE"
);
}
);
width = 646;
}
);
leftKerningGroup = N;
rightKerningGroup = N;
unicode = 0126;
},
{
glyphname = I;
lastChange = "2019-04-16 04:59:23 +0000";
layers = (
{
anchors = (
{
name = bottom;
position = "{141, 0}";
},
{
name = ogonek;
position = "{204, 3}";
},
{
name = top;
position = "{241, 723}";
}
);
background = {
anchors = (
{
name = bottom;
position = "{192, 0}";
},
{
name = ogonek;
position = "{274, 10}";
},
{
name = top;
position = "{193, 742}";
}
);
paths = (
{
closed = 1;
nodes = (
"87 742 OFFCURVE",
"79 734 OFFCURVE",
"79 719 CURVE SMOOTH",
"79 25 LINE SMOOTH",
"79 8 OFFCURVE",
"85 0 OFFCURVE",
"106 0 CURVE SMOOTH",
"273 0 LINE SMOOTH",
"296 0 OFFCURVE",
"306 8 OFFCURVE",
"306 29 CURVE SMOOTH",
"306 721 LINE SMOOTH",
"306 734 OFFCURVE",
"300 742 OFFCURVE",
"288 742 CURVE SMOOTH",
"98 742 LINE SMOOTH"
);
}
);
};
layerId = "258ED206-D907-4350-8EBA-CBDDA1C16BF7";
paths = (
{
closed = 1;
nodes = (
"228 0 LINE",
"337 723 LINE",
"143 723 LINE",
"34 0 LINE"
);
}
);
width = 342;
},
{
anchors = (
{
name = bottom;
position = "{88, 0}";
},
{
name = ogonek;
position = "{101, 10}";
},
{
name = top;
position = "{189, 723}";
}
);
background = {
anchors = (
{
name = bottom;
position = "{143, 0}";
},
{
name = ogonek;
position = "{155, 10}";
},
{
name = top;
position = "{146, 742}";
}
);
paths = (
{
closed = 1;
nodes = (
"122 742 OFFCURVE",
"120 740 OFFCURVE",
"120 732 CURVE SMOOTH",
"120 10 LINE SMOOTH",
"120 2 OFFCURVE",
"122 0 OFFCURVE",
"131 0 CURVE SMOOTH",
"154 0 LINE SMOOTH",
"164 0 OFFCURVE",
"166 2 OFFCURVE",
"166 12 CURVE SMOOTH",
"166 732 LINE SMOOTH",
"166 740 OFFCURVE",
"164 742 OFFCURVE",
"157 742 CURVE SMOOTH",
"129 742 LINE SMOOTH"
);
}
);
};
layerId = "91AB5BCA-6A50-42DA-B2F7-8181BF189245";
paths = (
{
closed = 1;
nodes = (
"105 0 LINE",
"206 723 LINE",
"170 723 LINE",
"69 0 LINE"
);
}
);
width = 241;
}
);
leftKerningGroup = N;
leftMetricsKey = N;
rightKerningGroup = N;
rightMetricsKey = N;
unicode = 0049;
},
{
glyphname = J;
lastChange = "2019-04-16 04:59:23 +0000";
layers = (
{
anchors = (
{
name = top;
position = "{340, 723}";
}
);
background = {
anchors = (
{
name = top;
position = "{235, 742}";
}
);
paths = (
{
closed = 1;
nodes = (
"412 721 LINE SMOOTH",
"412 734 OFFCURVE",
"406 742 OFFCURVE",
"394 742 CURVE SMOOTH",
"205 742 LINE SMOOTH",
"193 742 OFFCURVE",
"185 734 OFFCURVE",
"185 719 CURVE SMOOTH",
"185 268 LINE SMOOTH",
"185 200 OFFCURVE",
"156 175 OFFCURVE",
"107 175 CURVE SMOOTH",
"85 175 OFFCURVE",
"68 180 OFFCURVE",
"52 182 CURVE SMOOTH",
"36 184 OFFCURVE",
"29 174 OFFCURVE",
"28 159 CURVE SMOOTH",
"19 45 LINE SMOOTH",
"17 17 OFFCURVE",
"27 6 OFFCURVE",
"50 2 CURVE SMOOTH",
"95 -6 OFFCURVE",
"133 -10 OFFCURVE",
"174 -10 CURVE SMOOTH",
"330 -10 OFFCURVE",
"412 48 OFFCURVE",
"412 212 CURVE SMOOTH"
);
}
);
};
layerId = "258ED206-D907-4350-8EBA-CBDDA1C16BF7";
paths = (
{
closed = 1;
nodes = (
"291 -10 OFFCURVE",
"342 69 OFFCURVE",
"366 229 CURVE SMOOTH",
"441 723 LINE",
"248 723 LINE",
"180 279 LINE SMOOTH",
"169 204 OFFCURVE",
"147 170 OFFCURVE",
"78 170 CURVE SMOOTH",
"57 170 OFFCURVE",
"33 173 OFFCURVE",
"15 175 CURVE",
"-11 0 LINE",
"18 -6 OFFCURVE",
"77 -10 OFFCURVE",
"118 -10 CURVE SMOOTH"
);
}
);
width = 431;
},
{
anchors = (
{
name = top;
position = "{285, 723}";
}
);
background = {
anchors = (
{
name = top;
position = "{251, 742}";
}
);
paths = (
{
closed = 1;
nodes = (
"274 732 LINE SMOOTH",
"274 739 OFFCURVE",
"272 742 OFFCURVE",
"266 742 CURVE SMOOTH",
"236 742 LINE SMOOTH",
"230 742 OFFCURVE",
"228 739 OFFCURVE",
"228 733 CURVE SMOOTH",
"228 154 LINE SMOOTH",
"228 61 OFFCURVE",
"206 34 OFFCURVE",
"141 34 CURVE SMOOTH",
"92 34 OFFCURVE",
"70 49 OFFCURVE",
"49 59 CURVE SMOOTH",
"45 61 OFFCURVE",
"42 60 OFFCURVE",
"41 55 CURVE SMOOTH",
"32 24 LINE SMOOTH",
"31 20 OFFCURVE",
"33 17 OFFCURVE",
"36 15 CURVE SMOOTH",
"43 10 OFFCURVE",
"88 -10 OFFCURVE",
"143 -10 CURVE SMOOTH",
"240 -10 OFFCURVE",
"274 49 OFFCURVE",
"274 144 CURVE SMOOTH"
);
}
);
};
layerId = "91AB5BCA-6A50-42DA-B2F7-8181BF189245";
paths = (
{
closed = 1;
nodes = (
"174 -10 OFFCURVE",
"208 48 OFFCURVE",
"221 140 CURVE SMOOTH",
"303 723 LINE",
"267 723 LINE",
"187 154 LINE SMOOTH",
"175 63 OFFCURVE",
"150 31 OFFCURVE",
"92 31 CURVE SMOOTH",
"45 31 OFFCURVE",
"25 52 OFFCURVE",
"6 62 CURVE",
"-9 19 LINE",
"-4 13 OFFCURVE",
"36 -10 OFFCURVE",
"88 -10 CURVE SMOOTH"
);
}
);
width = 343;
}
);
leftKerningGroup = J;
rightKerningGroup = N;
rightMetricsKey = U;
unicode = 004A;
},
{
glyphname = K;
lastChange = "2019-04-16 04:59:23 +0000";
layers = (
{
anchors = (
{
name = bottom;
position = "{325, 0}";
},
{
name = top;
position = "{447, 723}";
}
);
background = {
anchors = (
{
name = bottom;
position = "{376, 0}";
},
{
name = top;
position = "{376, 742}";
}
);
paths = (
{
closed = 1;
nodes = (
"532 480 LINE SMOOTH",
"526 494 OFFCURVE",
"527 501 OFFCURVE",
"535 512 CURVE SMOOTH",
"699 713 LINE SMOOTH",
"712 728 OFFCURVE",
"700 742 OFFCURVE",
"678 742 CURVE SMOOTH",
"526 742 LINE SMOOTH",
"502 742 OFFCURVE",
"494 736 OFFCURVE",
"483 721 CURVE SMOOTH",
"299 463 LINE",
"291 453 OFFCURVE",
"284 452 OFFCURVE",
"284 468 CURVE SMOOTH",
"284 721 LINE SMOOTH",
"284 734 OFFCURVE",
"278 742 OFFCURVE",
"266 742 CURVE SMOOTH",
"76 742 LINE SMOOTH",
"65 742 OFFCURVE",
"57 734 OFFCURVE",
"57 719 CURVE SMOOTH",
"57 25 LINE SMOOTH",
"57 8 OFFCURVE",
"63 0 OFFCURVE",
"84 0 CURVE SMOOTH",
"251 0 LINE SMOOTH",
"274 0 OFFCURVE",
"284 8 OFFCURVE",
"284 29 CURVE SMOOTH",
"284 180 LINE SMOOTH",
"284 190 OFFCURVE",
"285 196 OFFCURVE",
"290 202 CURVE SMOOTH",
"361 293 LINE SMOOTH",
"371 306 OFFCURVE",
"377 308 OFFCURVE",
"383 298 CURVE SMOOTH",
"505 20 LINE SMOOTH",
"512 5 OFFCURVE",
"524 0 OFFCURVE",
"541 0 CURVE SMOOTH",
"736 0 LINE SMOOTH",
"756 0 OFFCURVE",
"758 15 OFFCURVE",
"750 31 CURVE SMOOTH"
);
}
);
};
guideLines = (
{
angle = 54.4985;
position = "{690, 670}";
},
{
angle = -62.8805;
position = "{377, 283}";
}
);
hints = (
{
horizontal = 1;
origin = "{0, 11}";
target = up;
type = BottomGhost;
},
{
horizontal = 1;
origin = "{0, 10}";
target = down;
type = TopGhost;
},
{
place = "{31, 169}";
type = Stem;
}
);
layerId = "258ED206-D907-4350-8EBA-CBDDA1C16BF7";
paths = (
{
closed = 1;
nodes = (
"235 0 LINE",
"264 189 LINE",
"371 305 LINE",
"485 0 LINE",
"692 0 LINE",
"530 447 LINE",
"770 723 LINE",
"553 723 LINE",
"301 431 LINE",
"345 723 LINE",
"144 723 LINE",
"34 0 LINE"
);
}
);
width = 748;
},
{
anchors = (
{
name = bottom;
position = "{273, 0}";
},
{
name = top;
position = "{391, 723}";
}
);
background = {
anchors = (
{
name = bottom;
position = "{333, 0}";
},
{
name = top;
position = "{363, 742}";
}
);
paths = (
{
closed = 1;
nodes = (
"333 445 LINE SMOOTH",
"331 449 OFFCURVE",
"331 449 OFFCURVE",
"333 451 CURVE SMOOTH",
"592 734 LINE SMOOTH",
"596 738 OFFCURVE",
"595 742 OFFCURVE",
"589 742 CURVE SMOOTH",
"551 742 LINE SMOOTH",
"545 742 OFFCURVE",
"543 741 OFFCURVE",
"540 738 CURVE SMOOTH",
"157 322 LINE SMOOTH",
"152 317 OFFCURVE",
"150 317 OFFCURVE",
"150 323 CURVE SMOOTH",
"150 734 LINE SMOOTH",
"150 740 OFFCURVE",
"147 742 OFFCURVE",
"142 742 CURVE SMOOTH",
"112 742 LINE SMOOTH",
"106 742 OFFCURVE",
"104 739 OFFCURVE",
"104 734 CURVE SMOOTH",
"104 9 LINE SMOOTH",
"104 2 OFFCURVE",
"107 0 OFFCURVE",
"114 0 CURVE SMOOTH",
"140 0 LINE SMOOTH",
"147 0 OFFCURVE",
"150 3 OFFCURVE",
"150 9 CURVE SMOOTH",
"150 246 LINE SMOOTH",
"150 254 OFFCURVE",
"152 257 OFFCURVE",
"158 263 CURVE SMOOTH",
"290 409 LINE SMOOTH",
"295 414 OFFCURVE",
"298 415 OFFCURVE",
"302 409 CURVE SMOOTH",
"560 5 LINE SMOOTH",
"562 2 OFFCURVE",
"566 0 OFFCURVE",
"571 0 CURVE SMOOTH",
"610 0 LINE SMOOTH",
"614 0 OFFCURVE",
"616 3 OFFCURVE",
"613 7 CURVE SMOOTH"
);
}
);
};
layerId = "91AB5BCA-6A50-42DA-B2F7-8181BF189245";
paths = (
{
closed = 1;
nodes = (
"107 0 LINE",
"142 248 LINE",
"296 407 LINE",
"478 0 LINE",
"525 0 LINE",
"331 438 LINE",
"611 723 LINE",
"562 723 LINE",
"150 306 LINE",
"208 723 LINE",
"171 723 LINE",
"69 0 LINE"
);
}
);
width = 601;
}
);
leftKerningGroup = N;
leftMetricsKey = N;
rightKerningGroup = K;
unicode = 004B;
},
{
glyphname = L;
lastChange = "2019-04-16 04:59:23 +0000";
layers = (
{
anchors = (
{
name = bottom;
position = "{271, 0}";
},
{
name = top;
position = "{236, 723}";
},
{
name = topright;
position = "{562, 723}";
}
);
background = {
anchors = (
{
name = bottom;
position = "{320, 0}";
},
{
name = top;
position = "{174, 742}";
},
{
name = topright;
position = "{516, 742}";
}
);
paths = (
{
closed = 1;
nodes = (
"58 25 LINE SMOOTH",
"58 8 OFFCURVE",
"64 0 OFFCURVE",
"85 0 CURVE SMOOTH",
"596 0 LINE SMOOTH",
"613 0 OFFCURVE",
"621 10 OFFCURVE",
"621 22 CURVE SMOOTH",
"621 145 LINE SMOOTH",
"621 159 OFFCURVE",
"612 164 OFFCURVE",
"598 164 CURVE SMOOTH",
"297 164 LINE SMOOTH",
"288 164 OFFCURVE",
"285 167 OFFCURVE",
"285 178 CURVE SMOOTH",
"285 721 LINE SMOOTH",
"285 734 OFFCURVE",
"279 742 OFFCURVE",
"267 742 CURVE SMOOTH",
"77 742 LINE SMOOTH",
"66 742 OFFCURVE",
"58 734 OFFCURVE",
"58 719 CURVE SMOOTH"
);
}
);
};
layerId = "258ED206-D907-4350-8EBA-CBDDA1C16BF7";
paths = (
{
closed = 1;
nodes = (
"515 0 LINE",
"539 160 LINE",
"252 160 LINE",
"337 723 LINE",
"144 723 LINE",
"34 0 LINE"
);
}
);
width = 578;
},
{
anchors = (
{
name = bottom;
position = "{253, 0}";
},
{
name = top;
position = "{191, 723}";
},
{
name = topright;
position = "{446, 723}";
}
);
background = {
anchors = (
{
name = bottom;
position = "{312, 0}";
},
{
name = top;
position = "{130, 742}";
},
{
name = topright;
position = "{416, 742}";
}
);
paths = (
{
closed = 1;
nodes = (
"107 10 LINE SMOOTH",
"107 3 OFFCURVE",
"109 0 OFFCURVE",
"116 0 CURVE",
"526 0 LINE",
"531 0 OFFCURVE",
"533 2 OFFCURVE",
"533 7 CURVE SMOOTH",
"533 33 LINE SMOOTH",
"533 39 OFFCURVE",
"531 40 OFFCURVE",
"525 40 CURVE SMOOTH",
"162 40 LINE SMOOTH",
"155 40 OFFCURVE",
"153 41 OFFCURVE",
"153 49 CURVE SMOOTH",
"153 732 LINE SMOOTH",
"153 740 OFFCURVE",
"151 742 OFFCURVE",
"144 742 CURVE SMOOTH",
"116 742 LINE SMOOTH",
"109 742 OFFCURVE",
"107 740 OFFCURVE",
"107 732 CURVE SMOOTH"
);
}
);
};
layerId = "91AB5BCA-6A50-42DA-B2F7-8181BF189245";
paths = (
{
closed = 1;
nodes = (
"448 0 LINE",
"454 43 LINE",
"114 43 LINE",
"210 723 LINE",
"171 723 LINE",
"69 0 LINE"
);
}
);
width = 519;
}
);
leftKerningGroup = N;
leftMetricsKey = N;
rightKerningGroup = L;
unicode = 004C;
},
{
glyphname = Lslash;
lastChange = "2019-04-16 04:59:23 +0000";
layers = (
{
background = {
components = (
{
name = L;
transform = "{1, 0, 0, 1, 44, 0}";
}
);
paths = (
{
closed = 1;
nodes = (
"461 536 OFFCURVE",
"454 543 OFFCURVE",
"437 538 CURVE SMOOTH",
"43 433 LINE SMOOTH",
"31 430 OFFCURVE",
"24 425 OFFCURVE",
"24 410 CURVE SMOOTH",
"24 293 LINE SMOOTH",
"24 277 OFFCURVE",
"30 270 OFFCURVE",
"49 276 CURVE SMOOTH",
"441 387 LINE SMOOTH",
"455 391 OFFCURVE",
"461 399 OFFCURVE",
"461 410 CURVE SMOOTH",
"461 521 LINE SMOOTH"
);
}
);
};
components = (
{
name = L;
transform = "{1, 0, 0, 1, 44, 0}";
}
);
layerId = "258ED206-D907-4350-8EBA-CBDDA1C16BF7";
paths = (
{
closed = 1;
nodes = (
"461 393 LINE",
"461 544 LINE",
"24 428 LINE",
"24 269 LINE"
);
}
);
width = 622;
},
{
background = {
components = (
{
name = L;
transform = "{1, 0, 0, 1, 9, 0}";
}
);
paths = (
{
closed = 1;
nodes = (
"331 425 OFFCURVE",
"329 427 OFFCURVE",
"324 426 CURVE SMOOTH",
"49 356 LINE SMOOTH",
"46 355 OFFCURVE",
"44 352 OFFCURVE",
"44 347 CURVE SMOOTH",
"44 324 LINE SMOOTH",
"44 319 OFFCURVE",
"46 318 OFFCURVE",
"51 319 CURVE SMOOTH",
"325 390 LINE SMOOTH",
"329 391 OFFCURVE",
"331 394 OFFCURVE",
"331 398 CURVE SMOOTH",
"331 421 LINE SMOOTH"
);
}
);
};
components = (
{
name = L;
transform = "{1, 0, 0, 1, 9, 0}";
}
);
layerId = "91AB5BCA-6A50-42DA-B2F7-8181BF189245";
paths = (
{
closed = 1;
nodes = (
"331 392 LINE",
"331 428 LINE",
"44 355 LINE",
"44 317 LINE"
);
}
);
width = 528;
}
);
leftKerningGroup = N;
rightKerningGroup = L;
rightMetricsKey = L;
unicode = 0141;
},
{
glyphname = M;
lastChange = "2019-04-16 04:59:23 +0000";
layers = (
{
background = {
paths = (
{
closed = 1;
nodes = (
"231 0 LINE SMOOTH",
"249 0 OFFCURVE",
"253 4 OFFCURVE",
"253 22 CURVE SMOOTH",
"253 464 LINE SMOOTH",
"253 477 OFFCURVE",
"260 481 OFFCURVE",
"265 465 CURVE SMOOTH",
"409 18 LINE SMOOTH",
"413 6 OFFCURVE",
"421 0 OFFCURVE",
"433 0 CURVE SMOOTH",
"538 0 LINE SMOOTH",
"549 0 OFFCURVE",
"558 7 OFFCURVE",
"562 18 CURVE SMOOTH",
"706 473 LINE SMOOTH",
"710 485 OFFCURVE",
"718 485 OFFCURVE",
"718 474 CURVE SMOOTH",
"718 25 LINE SMOOTH",
"718 8 OFFCURVE",
"724 0 OFFCURVE",
"744 0 CURVE SMOOTH",
"913 0 LINE SMOOTH",
"936 0 OFFCURVE",
"945 8 OFFCURVE",
"945 29 CURVE SMOOTH",
"945 721 LINE SMOOTH",
"945 734 OFFCURVE",
"939 742 OFFCURVE",
"927 742 CURVE SMOOTH",
"638 742 LINE SMOOTH",
"624 742 OFFCURVE",
"616 731 OFFCURVE",
"611 713 CURVE SMOOTH",
"518 406 LINE SMOOTH",
"515 397 OFFCURVE",
"509 395 OFFCURVE",
"505 406 CURVE SMOOTH",
"401 724 LINE SMOOTH",
"396 738 OFFCURVE",
"390 742 OFFCURVE",
"373 742 CURVE SMOOTH",
"93 742 LINE SMOOTH",
"78 742 OFFCURVE",
"72 735 OFFCURVE",
"72 719 CURVE SMOOTH",
"72 28 LINE SMOOTH",
"72 11 OFFCURVE",
"82 0 OFFCURVE",
"98 0 CURVE SMOOTH"
);
}
);
};
guideLines = (
{
angle = -105;
position = "{482, 261}";
},
{
angle = 105;
position = "{482, 261}";
}
);
layerId = "258ED206-D907-4350-8EBA-CBDDA1C16BF7";
paths = (
{
closed = 1;
nodes = (
"227 0 LINE",
"307 524 LINE",
"368 0 LINE",
"507 0 LINE",
"726 524 LINE",
"647 0 LINE",
"841 0 LINE",
"950 723 LINE",
"664 723 LINE",
"480 282 LINE",
"431 723 LINE",
"143 723 LINE",
"34 0 LINE"
);
}
);
width = 955;
},
{
background = {
guideLines = (
{
position = "{23, 566}";
showMeasurement = 1;
}
);
paths = (
{
closed = 1;
nodes = (
"128 0 LINE SMOOTH",
"135 0 OFFCURVE",
"138 3 OFFCURVE",
"138 9 CURVE SMOOTH",
"138 622 LINE SMOOTH",
"138 626 OFFCURVE",
"140 625 OFFCURVE",
"141 622 CURVE SMOOTH",
"385 10 LINE SMOOTH",
"388 3 OFFCURVE",
"393 0 OFFCURVE",
"404 0 CURVE SMOOTH",
"431 0 LINE SMOOTH",
"440 0 OFFCURVE",
"444 3 OFFCURVE",
"447 11 CURVE SMOOTH",
"696 627 LINE SMOOTH",
"697 630 OFFCURVE",
"699 632 OFFCURVE",
"699 627 CURVE SMOOTH",
"699 9 LINE SMOOTH",
"699 2 OFFCURVE",
"702 0 OFFCURVE",
"709 0 CURVE SMOOTH",
"736 0 LINE SMOOTH",
"742 0 OFFCURVE",
"745 3 OFFCURVE",
"745 10 CURVE SMOOTH",
"745 732 LINE SMOOTH",
"745 740 OFFCURVE",
"743 742 OFFCURVE",
"736 742 CURVE SMOOTH",
"707 742 LINE SMOOTH",
"701 742 OFFCURVE",
"698 740 OFFCURVE",
"696 735 CURVE SMOOTH",
"425 65 LINE SMOOTH",
"419 51 OFFCURVE",
"414 51 OFFCURVE",
"409 64 CURVE SMOOTH",
"142 734 LINE",
"140 740 OFFCURVE",
"137 742 OFFCURVE",
"129 742 CURVE SMOOTH",
"103 742 LINE SMOOTH",
"96 742 OFFCURVE",
"94 740 OFFCURVE",
"94 732 CURVE SMOOTH",
"94 10 LINE SMOOTH",
"94 3 OFFCURVE",
"96 0 OFFCURVE",
"103 0 CURVE SMOOTH"
);
}
);
};
guideLines = (
{
position = "{94, 525}";
showMeasurement = 1;
},
{
angle = 68.255;
position = "{376, 0}";
}
);
layerId = "91AB5BCA-6A50-42DA-B2F7-8181BF189245";
paths = (
{
closed = 1;
nodes = (
"108 0 LINE",
"194 608 LINE",
"332 0 LINE",
"385 0 LINE",
"698 616 LINE",
"611 0 LINE",
"651 0 LINE",
"752 723 LINE",
"713 723 LINE",
"364 44 LINE",
"211 723 LINE",
"170 723 LINE",
"69 0 LINE"
);
}
);
width = 787;
}
);
leftKerningGroup = N;
leftMetricsKey = N;
rightKerningGroup = N;
rightMetricsKey = N;
unicode = 004D;
},
{
glyphname = N;
lastChange = "2019-04-16 04:59:23 +0000";
layers = (
{
anchors = (
{
name = bottom;
position = "{368, 0}";
},
{
name = top;
position = "{478, 723}";
}
);
background = {
anchors = (
{
name = bottom;
position = "{422, 0}";
},
{
name = top;
position = "{422, 742}";
}
);
paths = (
{
closed = 1;
nodes = (
"575 742 OFFCURVE",
"568 734 OFFCURVE",
"568 721 CURVE SMOOTH",
"568 394 LINE SMOOTH",
"568 378 OFFCURVE",
"561 378 OFFCURVE",
"552 390 CURVE SMOOTH",
"312 724 LINE SMOOTH",
"301 739 OFFCURVE",
"295 742 OFFCURVE",
"278 742 CURVE SMOOTH",
"115 742 LINE SMOOTH",
"100 742 OFFCURVE",
"93 735 OFFCURVE",
"93 719 CURVE SMOOTH",
"93 20 LINE SMOOTH",
"93 5 OFFCURVE",
"103 0 OFFCURVE",
"118 0 CURVE SMOOTH",
"254 0 LINE SMOOTH",
"272 0 OFFCURVE",
"279 6 OFFCURVE",
"278 22 CURVE SMOOTH",
"278 386 LINE SMOOTH",
"278 393 OFFCURVE",
"283 395 OFFCURVE",
"288 388 CURVE SMOOTH",
"563 15 LINE SMOOTH",
"573 2 OFFCURVE",
"579 0 OFFCURVE",
"590 0 CURVE SMOOTH",
"727 0 LINE SMOOTH",
"740 0 OFFCURVE",
"750 7 OFFCURVE",
"750 18 CURVE SMOOTH",
"750 725 LINE SMOOTH",
"750 736 OFFCURVE",
"745 742 OFFCURVE",
"735 742 CURVE SMOOTH",
"590 742 LINE SMOOTH"
);
}
);
};
guideLines = (
{
angle = 125.0467;
position = "{550, 296}";
}
);
layerId = "258ED206-D907-4350-8EBA-CBDDA1C16BF7";
paths = (
{
closed = 1;
nodes = (
"228 0 LINE",
"293 431 LINE",
"528 0 LINE",
"703 0 LINE",
"813 723 LINE",
"619 723 LINE",
"558 320 LINE",
"339 723 LINE",
"144 723 LINE",
"34 0 LINE"
);
}
);
width = 818;
},
{
anchors = (
{
name = bottom;
position = "{280, 0}";
},
{
name = top;
position = "{404, 723}";
}
);
background = {
anchors = (
{
name = bottom;
position = "{345, 0}";
},
{
name = top;
position = "{380, 742}";
}
);
guideLines = (
{
position = "{34, 576}";
showMeasurement = 1;
}
);
paths = (
{
closed = 1;
nodes = (
"585 742 OFFCURVE",
"583 739 OFFCURVE",
"583 733 CURVE SMOOTH",
"583 107 LINE SMOOTH",
"583 101 OFFCURVE",
"576 95 OFFCURVE",
"569 105 CURVE SMOOTH",
"142 735 LINE SMOOTH",
"138 741 OFFCURVE",
"135 742 OFFCURVE",
"127 742 CURVE SMOOTH",
"109 742 LINE",
"102 742 OFFCURVE",
"100 740 OFFCURVE",
"100 732 CURVE SMOOTH",
"100 10 LINE SMOOTH",
"100 3 OFFCURVE",
"102 0 OFFCURVE",
"109 0 CURVE SMOOTH",
"134 0 LINE SMOOTH",
"141 0 OFFCURVE",
"144 3 OFFCURVE",
"144 9 CURVE SMOOTH",
"144 637 LINE SMOOTH",
"144 645 OFFCURVE",
"149 647 OFFCURVE",
"156 637 CURVE SMOOTH",
"584 6 LINE SMOOTH",
"589 -1 OFFCURVE",
"595 0 OFFCURVE",
"603 0 CURVE SMOOTH",
"618 0 LINE SMOOTH",
"624 0 OFFCURVE",
"627 3 OFFCURVE",
"627 10 CURVE SMOOTH",
"627 732 LINE SMOOTH",
"627 740 OFFCURVE",
"625 742 OFFCURVE",
"618 742 CURVE SMOOTH",
"591 742 LINE SMOOTH"
);
}
);
};
guideLines = (
{
position = "{105, 534}";
showMeasurement = 1;
},
{
angle = 123.9688;
position = "{107, 610}";
}
);
layerId = "91AB5BCA-6A50-42DA-B2F7-8181BF189245";
paths = (
{
closed = 1;
nodes = (
"105 0 LINE",
"196 643 LINE",
"504 0 LINE",
"535 0 LINE",
"637 723 LINE",
"601 723 LINE",
"510 78 LINE",
"200 723 LINE",
"171 723 LINE",
"69 0 LINE"
);
}
);
width = 672;
}
);
leftKerningGroup = N;
rightKerningGroup = N;
unicode = 004E;
},
{
glyphname = Eng;
lastChange = "2019-04-16 04:59:23 +0000";
layers = (
{
background = {
paths = (
{
closed = 1;
nodes = (
"557 742 LINE SMOOTH",
"542 742 OFFCURVE",
"535 734 OFFCURVE",
"535 721 CURVE SMOOTH",
"535 434 LINE SMOOTH",
"535 418 OFFCURVE",
"528 418 OFFCURVE",
"519 430 CURVE",
"279 724 LINE SMOOTH",
"267 739 OFFCURVE",
"262 742 OFFCURVE",
"245 742 CURVE SMOOTH",
"82 742 LINE SMOOTH",
"67 742 OFFCURVE",
"60 735 OFFCURVE",
"60 719 CURVE SMOOTH",
"60 20 LINE SMOOTH",
"60 5 OFFCURVE",
"70 0 OFFCURVE",
"85 0 CURVE SMOOTH",
"221 0 LINE SMOOTH",
"239 0 OFFCURVE",
"246 6 OFFCURVE",
"245 22 CURVE",
"245 386 LINE",
"245 393 OFFCURVE",
"249 395 OFFCURVE",
"255 388 CURVE SMOOTH",
"495 97 LINE",
"495 88 LINE SMOOTH",
"492 31 OFFCURVE",
"462 10 OFFCURVE",
"417 10 CURVE SMOOTH",
"395 10 OFFCURVE",
"372 15 OFFCURVE",
"356 17 CURVE SMOOTH",
"340 19 OFFCURVE",
"333 9 OFFCURVE",
"332 -6 CURVE SMOOTH",
"323 -120 LINE SMOOTH",
"321 -148 OFFCURVE",
"331 -159 OFFCURVE",
"354 -163 CURVE SMOOTH",
"399 -171 OFFCURVE",
"443 -175 OFFCURVE",
"484 -175 CURVE SMOOTH",
"636 -175 OFFCURVE",
"717 -114 OFFCURVE",
"717 47 CURVE SMOOTH",
"717 725 LINE SMOOTH",
"717 736 OFFCURVE",
"712 742 OFFCURVE",
"702 742 CURVE SMOOTH"
);
}
);
};
components = (
{
name = N;
},
{
alignment = -1;
name = "_j-hook";
transform = "{1, 0, 0, 1, 334, -230}";
}
);
layerId = "258ED206-D907-4350-8EBA-CBDDA1C16BF7";
width = 818;
},
{
background = {
paths = (
{
closed = 1;
nodes = (
"603 742 LINE SMOOTH",
"597 742 OFFCURVE",
"595 739 OFFCURVE",
"595 733 CURVE SMOOTH",
"595 107 LINE SMOOTH",
"595 101 OFFCURVE",
"588 94 OFFCURVE",
"581 104 CURVE SMOOTH",
"155 735 LINE SMOOTH",
"151 741 OFFCURVE",
"148 742 OFFCURVE",
"141 742 CURVE SMOOTH",
"120 742 LINE SMOOTH",
"113 742 OFFCURVE",
"111 740 OFFCURVE",
"111 732 CURVE SMOOTH",
"111 10 LINE SMOOTH",
"111 3 OFFCURVE",
"113 0 OFFCURVE",
"120 0 CURVE SMOOTH",
"145 0 LINE SMOOTH",
"152 0 OFFCURVE",
"155 3 OFFCURVE",
"155 9 CURVE SMOOTH",
"155 640 LINE SMOOTH",
"155 648 OFFCURVE",
"157 650 OFFCURVE",
"164 640 CURVE SMOOTH",
"592 12 LINE",
"592 -41 LINE SMOOTH",
"592 -112 OFFCURVE",
"561 -135 OFFCURVE",
"507 -135 CURVE SMOOTH",
"477 -135 OFFCURVE",
"453 -128 OFFCURVE",
"437 -122 CURVE SMOOTH",
"432 -120 OFFCURVE",
"430 -121 OFFCURVE",
"429 -126 CURVE",
"426 -151 LINE",
"426 -155 OFFCURVE",
"427 -158 OFFCURVE",
"430 -160 CURVE SMOOTH",
"437 -165 OFFCURVE",
"470 -175 OFFCURVE",
"511 -175 CURVE SMOOTH",
"605 -175 OFFCURVE",
"638 -124 OFFCURVE",
"638 -46 CURVE SMOOTH",
"638 732 LINE SMOOTH",
"638 740 OFFCURVE",
"636 742 OFFCURVE",
"629 742 CURVE SMOOTH"
);
}
);
};
components = (
{
name = N;
},
{
alignment = -1;
name = "_j-hook";
transform = "{1, 0, 0, 1, 305, -230}";
}
);
layerId = "91AB5BCA-6A50-42DA-B2F7-8181BF189245";
width = 673;
}
);
leftKerningGroup = N;
leftMetricsKey = N;
rightKerningGroup = N;
rightMetricsKey = N;
unicode = 014A;
},
{
glyphname = O;
lastChange = "2019-04-16 04:59:23 +0000";
layers = (
{
anchors = (
{
name = bottom;
position = "{354, 0}";
},
{
name = horn;
position = "{679, 547}";
},
{
name = ogonek;
position = "{444, 10}";
},
{
name = top;
position = "{453, 723}";
}
);
background = {
anchors = (
{
name = bottom;
position = "{408, 0}";
},
{
name = ogonek;
position = "{499, 10}";
},
{
name = top;
position = "{406, 742}";
}
);
paths = (
{
closed = 1;
nodes = (
"625 -10 OFFCURVE",
"765 139 OFFCURVE",
"765 369 CURVE SMOOTH",
"765 601 OFFCURVE",
"622 752 OFFCURVE",
"407 752 CURVE SMOOTH",
"190 752 OFFCURVE",
"47 601 OFFCURVE",
"47 369 CURVE SMOOTH",
"47 138 OFFCURVE",
"186 -10 OFFCURVE",
"407 -10 CURVE SMOOTH"
);
},
{
closed = 1;
nodes = (
"318 146 OFFCURVE",
"285 206 OFFCURVE",
"285 366 CURVE SMOOTH",
"285 531 OFFCURVE",
"320 598 OFFCURVE",
"407 598 CURVE SMOOTH",
"492 598 OFFCURVE",
"527 531 OFFCURVE",
"527 366 CURVE SMOOTH",
"527 206 OFFCURVE",
"494 146 OFFCURVE",
"407 146 CURVE SMOOTH"
);
}
);
};
guideLines = (
{
angle = 90;
position = "{-496, 389}";
}
);
layerId = "258ED206-D907-4350-8EBA-CBDDA1C16BF7";
paths = (
{
closed = 1;
nodes = (
"563 -10 OFFCURVE",
"721 136 OFFCURVE",
"755 360 CURVE SMOOTH",
"789 586 OFFCURVE",
"673 733 OFFCURVE",
"464 733 CURVE SMOOTH",
"255 733 OFFCURVE",
"93 586 OFFCURVE",
"59 360 CURVE SMOOTH",
"25 135 OFFCURVE",
"138 -10 OFFCURVE",
"352 -10 CURVE SMOOTH"
);
},
{
closed = 1;
nodes = (
"296 146 OFFCURVE",
"246 201 OFFCURVE",
"269 357 CURVE SMOOTH",
"294 518 OFFCURVE",
"361 577 OFFCURVE",
"441 577 CURVE SMOOTH",
"520 577 OFFCURVE",
"569 518 OFFCURVE",
"544 357 CURVE SMOOTH",
"521 201 OFFCURVE",
"455 146 OFFCURVE",
"375 146 CURVE SMOOTH"
);
}
);
width = 786;
},
{
anchors = (
{
name = bottom;
position = "{306, 0}";
},
{
name = horn;
position = "{564, 606}";
},
{
name = ogonek;
position = "{370, 9}";
},
{
name = top;
position = "{408, 723}";
}
);
background = {
anchors = (
{
name = bottom;
position = "{367, 0}";
},
{
name = ogonek;
position = "{437, 9}";
},
{
name = top;
position = "{367, 742}";
}
);
paths = (
{
closed = 1;
nodes = (
"553 -10 OFFCURVE",
"666 122 OFFCURVE",
"666 369 CURVE SMOOTH",
"666 618 OFFCURVE",
"553 752 OFFCURVE",
"366 752 CURVE SMOOTH",
"178 752 OFFCURVE",
"64 617 OFFCURVE",
"64 367 CURVE SMOOTH",
"64 121 OFFCURVE",
"176 -10 OFFCURVE",
"365 -10 CURVE SMOOTH"
);
},
{
closed = 1;
nodes = (
"201 32 OFFCURVE",
"112 143 OFFCURVE",
"112 369 CURVE SMOOTH",
"112 597 OFFCURVE",
"201 710 OFFCURVE",
"366 710 CURVE SMOOTH",
"530 710 OFFCURVE",
"618 598 OFFCURVE",
"618 369 CURVE SMOOTH",
"618 142 OFFCURVE",
"532 32 OFFCURVE",
"367 32 CURVE SMOOTH"
);
}
);
};
guideLines = (
{
angle = 90;
position = "{-444, 400}";
},
{
angle = 90;
position = "{399, 593}";
}
);
layerId = "91AB5BCA-6A50-42DA-B2F7-8181BF189245";
paths = (
{
closed = 1;
nodes = (
"471 -10 OFFCURVE",
"590 119 OFFCURVE",
"624 360 CURVE SMOOTH",
"658 603 OFFCURVE",
"576 733 OFFCURVE",
"408 733 CURVE SMOOTH",
"239 733 OFFCURVE",
"118 602 OFFCURVE",
"84 358 CURVE SMOOTH",
"50 118 OFFCURVE",
"133 -10 OFFCURVE",
"303 -10 CURVE SMOOTH"
);
},
{
closed = 1;
nodes = (
"161 31 OFFCURVE",
"94 139 OFFCURVE",
"125 360 CURVE SMOOTH",
"156 582 OFFCURVE",
"254 692 OFFCURVE",
"402 692 CURVE SMOOTH",
"550 692 OFFCURVE",
"615 583 OFFCURVE",
"584 360 CURVE SMOOTH",
"553 138 OFFCURVE",
"458 31 OFFCURVE",
"310 31 CURVE SMOOTH"
);
}
);
width = 680;
}
);
leftKerningGroup = O;
rightKerningGroup = O;
unicode = 004F;
},
{
glyphname = Oslash;
lastChange = "2019-04-16 04:59:23 +0000";
layers = (
{
anchors = (
{
name = top;
position = "{464, 723}";
}
);
background = {
anchors = (
{
name = top;
position = "{409, 723}";
}
);
paths = (
{
closed = 1;
nodes = (
"730 723 LINE SMOOTH",
"722 731 OFFCURVE",
"710 729 OFFCURVE",
"700 719 CURVE SMOOTH",
"636 657 LINE",
"578 706 OFFCURVE",
"501 733 OFFCURVE",
"410 733 CURVE SMOOTH",
"198 733 OFFCURVE",
"59 586 OFFCURVE",
"59 360 CURVE SMOOTH",
"59 276 OFFCURVE",
"78 204 OFFCURVE",
"112 146 CURVE",
"46 82 LINE SMOOTH",
"35 70 OFFCURVE",
"36 60 OFFCURVE",
"50 46 CURVE SMOOTH",
"88 7 LINE SMOOTH",
"104 -9 OFFCURVE",
"116 -8 OFFCURVE",
"130 7 CURVE SMOOTH",
"186 61 LINE",
"244 16 OFFCURVE",
"320 -10 OFFCURVE",
"410 -10 CURVE SMOOTH",
"623 -10 OFFCURVE",
"759 136 OFFCURVE",
"759 360 CURVE SMOOTH",
"759 442 OFFCURVE",
"741 513 OFFCURVE",
"707 570 CURVE",
"781 643 LINE",
"791 651 OFFCURVE",
"790 661 OFFCURVE",
"782 669 CURVE SMOOTH"
);
},
{
closed = 1;
nodes = (
"291 518 OFFCURVE",
"325 583 OFFCURVE",
"410 583 CURVE SMOOTH",
"453 583 OFFCURVE",
"483 566 OFFCURVE",
"502 526 CURVE",
"292 321 LINE",
"291 333 OFFCURVE",
"291 345 OFFCURVE",
"291 357 CURVE"
);
},
{
closed = 1;
nodes = (
"527 201 OFFCURVE",
"495 142 OFFCURVE",
"410 142 CURVE SMOOTH",
"367 142 OFFCURVE",
"337 157 OFFCURVE",
"318 190 CURVE",
"526 394 LINE",
"527 381 OFFCURVE",
"527 370 OFFCURVE",
"527 357 CURVE SMOOTH"
);
}
);
};
layerId = "258ED206-D907-4350-8EBA-CBDDA1C16BF7";
paths = (
{
closed = 1;
nodes = (
"142 61 LINE",
"193 16 OFFCURVE",
"264 -10 OFFCURVE",
"354 -10 CURVE SMOOTH",
"565 -10 OFFCURVE",
"723 136 OFFCURVE",
"757 360 CURVE SMOOTH",
"769 442 OFFCURVE",
"762 513 OFFCURVE",
"737 570 CURVE",
"836 656 LINE",
"773 736 LINE",
"679 657 LINE",
"629 706 OFFCURVE",
"557 733 OFFCURVE",
"466 733 CURVE SMOOTH",
"256 733 OFFCURVE",
"95 586 OFFCURVE",
"61 360 CURVE SMOOTH",
"48 276 OFFCURVE",
"56 204 OFFCURVE",
"81 146 CURVE",
"-12 67 LINE",
"53 -14 LINE"
);
},
{
closed = 1;
nodes = (
"334 142 OFFCURVE",
"307 157 OFFCURVE",
"293 190 CURVE",
"531 395 LINE",
"522 335 OFFCURVE",
"512 288 OFFCURVE",
"499 251 CURVE SMOOTH",
"472 174 OFFCURVE",
"433 142 OFFCURVE",
"377 142 CURVE SMOOTH"
);
},
{
closed = 1;
nodes = (
"293 370 OFFCURVE",
"302 412 OFFCURVE",
"313 447 CURVE SMOOTH",
"341 542 OFFCURVE",
"382 583 OFFCURVE",
"444 583 CURVE SMOOTH",
"486 583 OFFCURVE",
"514 566 OFFCURVE",
"526 526 CURVE",
"286 320 LINE"
);
}
);
width = 800;
},
{
anchors = (
{
name = top;
position = "{402, 723}";
}
);
background = {
anchors = (
{
name = top;
position = "{351, 723}";
}
);
paths = (
{
closed = 1;
nodes = (
"647 730 LINE",
"643 734 OFFCURVE",
"639 732 OFFCURVE",
"635 727 CURVE",
"562 643 LINE",
"511 702 OFFCURVE",
"440 733 OFFCURVE",
"351 733 CURVE SMOOTH",
"168 733 OFFCURVE",
"57 602 OFFCURVE",
"57 358 CURVE SMOOTH",
"57 259 OFFCURVE",
"75 179 OFFCURVE",
"110 120 CURVE",
"28 25 LINE",
"24 20 OFFCURVE",
"25 18 OFFCURVE",
"32 11 CURVE SMOOTH",
"49 -5 LINE",
"57 -11 OFFCURVE",
"62 -11 OFFCURVE",
"67 -3 CURVE",
"139 79 LINE",
"188 20 OFFCURVE",
"260 -10 OFFCURVE",
"350 -10 CURVE SMOOTH",
"533 -10 OFFCURVE",
"644 119 OFFCURVE",
"644 360 CURVE SMOOTH",
"644 460 OFFCURVE",
"625 541 OFFCURVE",
"590 602 CURVE",
"673 698 LINE",
"676 702 OFFCURVE",
"675 706 OFFCURVE",
"672 709 CURVE"
);
},
{
closed = 1;
nodes = (
"106 582 OFFCURVE",
"190 691 OFFCURVE",
"351 691 CURVE SMOOTH",
"431 691 OFFCURVE",
"491 664 OFFCURVE",
"532 609 CURVE",
"142 157 LINE",
"118 209 OFFCURVE",
"106 276 OFFCURVE",
"106 360 CURVE SMOOTH"
);
},
{
closed = 1;
nodes = (
"594 138 OFFCURVE",
"513 32 OFFCURVE",
"352 32 CURVE SMOOTH",
"271 32 OFFCURVE",
"210 59 OFFCURVE",
"168 114 CURVE",
"558 566 LINE",
"582 513 OFFCURVE",
"594 445 OFFCURVE",
"594 360 CURVE SMOOTH"
);
}
);
};
layerId = "91AB5BCA-6A50-42DA-B2F7-8181BF189245";
paths = (
{
closed = 1;
nodes = (
"116 79 LINE",
"153 20 OFFCURVE",
"215 -10 OFFCURVE",
"298 -10 CURVE SMOOTH",
"466 -10 OFFCURVE",
"587 119 OFFCURVE",
"620 360 CURVE SMOOTH",
"634 460 OFFCURVE",
"628 541 OFFCURVE",
"605 602 CURVE",
"700 704 LINE",
"671 735 LINE",
"585 643 LINE",
"546 702 OFFCURVE",
"485 733 OFFCURVE",
"403 733 CURVE SMOOTH",
"235 733 OFFCURVE",
"114 602 OFFCURVE",
"80 358 CURVE SMOOTH",
"66 259 OFFCURVE",
"71 179 OFFCURVE",
"95 120 CURVE",
"1 19 LINE",
"29 -13 LINE"
);
},
{
closed = 1;
nodes = (
"231 32 OFFCURVE",
"179 59 OFFCURVE",
"148 114 CURVE",
"570 566 LINE",
"585 513 OFFCURVE",
"586 445 OFFCURVE",
"574 360 CURVE SMOOTH",
"543 138 OFFCURVE",
"454 32 OFFCURVE",
"306 32 CURVE SMOOTH"
);
},
{
closed = 1;
nodes = (
"115 209 OFFCURVE",
"114 276 OFFCURVE",
"125 360 CURVE SMOOTH",
"157 582 OFFCURVE",
"249 691 OFFCURVE",
"397 691 CURVE SMOOTH",
"471 691 OFFCURVE",
"522 664 OFFCURVE",
"552 609 CURVE",
"130 157 LINE"
);
}
);
width = 672;
}
);
leftKerningGroup = Oslash;
rightKerningGroup = Oslash;
unicode = 00D8;
},
{
glyphname = OE;
lastChange = "2019-04-16 04:59:23 +0000";
layers = (
{
background = {
paths = (
{
closed = 1;
nodes = (
"754 164 LINE",
"754 292 LINE",
"973 292 LINE",
"973 453 LINE",
"754 453 LINE",
"754 578 LINE",
"1103 578 LINE",
"1104 742 LINE",
"622 742 LINE",
"560 742 LINE",
"525 749 OFFCURVE",
"482 752 OFFCURVE",
"431 752 CURVE SMOOTH",
"190 752 OFFCURVE",
"47 601 OFFCURVE",
"47 369 CURVE SMOOTH",
"47 138 OFFCURVE",
"186 -10 OFFCURVE",
"419 -10 CURVE SMOOTH",
"475 -10 OFFCURVE",
"522 -7 OFFCURVE",
"560 0 CURVE",
"610 0 LINE",
"617 0 OFFCURVE",
"624 0 OFFCURVE",
"631 0 CURVE",
"1089 0 LINE SMOOTH",
"1106 0 OFFCURVE",
"1113 10 OFFCURVE",
"1113 22 CURVE SMOOTH",
"1113 145 LINE SMOOTH",
"1113 159 OFFCURVE",
"1105 164 OFFCURVE",
"1091 164 CURVE SMOOTH"
);
},
{
closed = 1;
nodes = (
"318 146 OFFCURVE",
"285 206 OFFCURVE",
"285 366 CURVE SMOOTH",
"285 531 OFFCURVE",
"320 598 OFFCURVE",
"407 598 CURVE SMOOTH",
"492 598 OFFCURVE",
"527 531 OFFCURVE",
"527 366 CURVE SMOOTH",
"527 206 OFFCURVE",
"494 146 OFFCURVE",
"407 146 CURVE SMOOTH"
);
}
);
};
layerId = "258ED206-D907-4350-8EBA-CBDDA1C16BF7";
paths = (
{
closed = 1;
nodes = (
"417 -10 OFFCURVE",
"463 -7 OFFCURVE",
"501 0 CURVE",
"549 0 LINE",
"1036 0 LINE",
"1061 160 LINE",
"713 160 LINE",
"732 285 LINE",
"944 285 LINE",
"968 442 LINE",
"756 442 LINE",
"774 564 LINE",
"1113 564 LINE",
"1138 723 LINE",
"671 723 LINE",
"610 723 LINE",
"578 730 OFFCURVE",
"536 733 OFFCURVE",
"487 733 CURVE SMOOTH",
"254 733 OFFCURVE",
"93 586 OFFCURVE",
"59 360 CURVE SMOOTH",
"24 135 OFFCURVE",
"138 -10 OFFCURVE",
"363 -10 CURVE SMOOTH"
);
},
{
closed = 1;
nodes = (
"288 142 OFFCURVE",
"265 201 OFFCURVE",
"289 357 CURVE SMOOTH",
"313 518 OFFCURVE",
"357 583 OFFCURVE",
"441 583 CURVE SMOOTH",
"524 583 OFFCURVE",
"548 518 OFFCURVE",
"523 357 CURVE SMOOTH",
"499 201 OFFCURVE",
"459 142 OFFCURVE",
"374 142 CURVE SMOOTH"
);
}
);
width = 1130;
},
{
background = {
paths = (
{
closed = 1;
nodes = (
"660 40 LINE SMOOTH",
"653 40 OFFCURVE",
"651 41 OFFCURVE",
"651 49 CURVE SMOOTH",
"651 346 LINE SMOOTH",
"651 354 OFFCURVE",
"653 355 OFFCURVE",
"660 355 CURVE SMOOTH",
"937 355 LINE SMOOTH",
"943 355 OFFCURVE",
"945 356 OFFCURVE",
"945 362 CURVE SMOOTH",
"945 388 LINE SMOOTH",
"945 393 OFFCURVE",
"943 395 OFFCURVE",
"938 395 CURVE SMOOTH",
"660 395 LINE SMOOTH",
"653 395 OFFCURVE",
"651 396 OFFCURVE",
"651 402 CURVE SMOOTH",
"651 693 LINE SMOOTH",
"651 701 OFFCURVE",
"653 702 OFFCURVE",
"660 702 CURVE SMOOTH",
"1018 702 LINE SMOOTH",
"1024 702 OFFCURVE",
"1026 703 OFFCURVE",
"1026 709 CURVE SMOOTH",
"1026 735 LINE SMOOTH",
"1026 740 OFFCURVE",
"1024 742 OFFCURVE",
"1019 742 CURVE SMOOTH",
"614 742 LINE SMOOTH",
"607 742 OFFCURVE",
"605 740 OFFCURVE",
"605 732 CURVE SMOOTH",
"605 600 LINE",
"555 700 OFFCURVE",
"468 752 OFFCURVE",
"351 752 CURVE SMOOTH",
"163 752 OFFCURVE",
"49 617 OFFCURVE",
"49 367 CURVE SMOOTH",
"49 121 OFFCURVE",
"161 -10 OFFCURVE",
"350 -10 CURVE SMOOTH",
"467 -10 OFFCURVE",
"555 41 OFFCURVE",
"605 140 CURVE",
"605 10 LINE SMOOTH",
"605 2 OFFCURVE",
"607 0 OFFCURVE",
"614 0 CURVE SMOOTH",
"1034 0 LINE SMOOTH",
"1039 0 OFFCURVE",
"1041 2 OFFCURVE",
"1041 7 CURVE SMOOTH",
"1041 33 LINE SMOOTH",
"1041 39 OFFCURVE",
"1039 40 OFFCURVE",
"1033 40 CURVE SMOOTH"
);
},
{
closed = 1;
nodes = (
"186 32 OFFCURVE",
"97 143 OFFCURVE",
"97 369 CURVE SMOOTH",
"97 597 OFFCURVE",
"186 710 OFFCURVE",
"351 710 CURVE SMOOTH",
"515 710 OFFCURVE",
"600 598 OFFCURVE",
"600 369 CURVE SMOOTH",
"600 142 OFFCURVE",
"517 32 OFFCURVE",
"352 32 CURVE SMOOTH"
);
}
);
};
layerId = "91AB5BCA-6A50-42DA-B2F7-8181BF189245";
paths = (
{
closed = 1;
nodes = (
"408 -10 OFFCURVE",
"494 40 OFFCURVE",
"552 137 CURVE",
"533 0 LINE",
"924 0 LINE",
"930 39 LINE",
"579 39 LINE",
"623 346 LINE",
"887 346 LINE",
"892 385 LINE",
"628 385 LINE",
"670 684 LINE",
"1007 684 LINE",
"1012 723 LINE",
"634 723 LINE",
"615 585 LINE",
"584 683 OFFCURVE",
"513 733 OFFCURVE",
"408 733 CURVE SMOOTH",
"240 733 OFFCURVE",
"119 602 OFFCURVE",
"84 358 CURVE SMOOTH",
"50 118 OFFCURVE",
"134 -10 OFFCURVE",
"303 -10 CURVE SMOOTH"
);
},
{
closed = 1;
nodes = (
"162 31 OFFCURVE",
"97 139 OFFCURVE",
"128 360 CURVE SMOOTH",
"159 582 OFFCURVE",
"254 692 OFFCURVE",
"403 692 CURVE SMOOTH",
"550 692 OFFCURVE",
"611 583 OFFCURVE",
"579 360 CURVE SMOOTH",
"548 138 OFFCURVE",
"459 31 OFFCURVE",
"311 31 CURVE SMOOTH"
);
}
);
width = 1031;
}
);
leftKerningGroup = O;
leftMetricsKey = O;
rightKerningGroup = E;
rightMetricsKey = E;
unicode = 0152;
},
{
glyphname = P;
lastChange = "2019-04-16 04:59:23 +0000";
layers = (
{
background = {
paths = (
{
closed = 1;
nodes = (
"711 662 OFFCURVE",
"574 742 OFFCURVE",
"410 742 CURVE SMOOTH",
"79 742 LINE SMOOTH",
"67 742 OFFCURVE",
"60 734 OFFCURVE",
"60 719 CURVE SMOOTH",
"60 25 LINE SMOOTH",
"60 8 OFFCURVE",
"66 0 OFFCURVE",
"86 0 CURVE SMOOTH",
"254 0 LINE SMOOTH",
"277 0 OFFCURVE",
"287 8 OFFCURVE",
"287 29 CURVE SMOOTH",
"287 255 LINE SMOOTH",
"287 262 OFFCURVE",
"290 266 OFFCURVE",
"299 266 CURVE SMOOTH",
"436 266 LINE SMOOTH",
"599 266 OFFCURVE",
"711 355 OFFCURVE",
"711 501 CURVE SMOOTH"
);
},
{
closed = 1;
nodes = (
"479 461 OFFCURVE",
"450 426 OFFCURVE",
"402 426 CURVE SMOOTH",
"304 426 LINE SMOOTH",
"291 426 OFFCURVE",
"287 433 OFFCURVE",
"287 448 CURVE SMOOTH",
"287 561 LINE SMOOTH",
"287 576 OFFCURVE",
"293 582 OFFCURVE",
"310 582 CURVE SMOOTH",
"396 582 LINE SMOOTH",
"442 582 OFFCURVE",
"479 552 OFFCURVE",
"479 504 CURVE SMOOTH"
);
}
);
};
layerId = "258ED206-D907-4350-8EBA-CBDDA1C16BF7";
paths = (
{
closed = 1;
nodes = (
"228 0 LINE",
"266 249 LINE",
"381 249 LINE SMOOTH",
"539 249 OFFCURVE",
"651 335 OFFCURVE",
"673 478 CURVE SMOOTH",
"697 635 OFFCURVE",
"587 723 OFFCURVE",
"428 723 CURVE SMOOTH",
"144 723 LINE",
"34 0 LINE"
);
},
{
closed = 1;
nodes = (
"314 579 LINE",
"425 579 LINE SMOOTH",
"468 579 OFFCURVE",
"504 538 OFFCURVE",
"497 488 CURVE SMOOTH",
"490 441 OFFCURVE",
"446 394 OFFCURVE",
"397 394 CURVE SMOOTH",
"286 394 LINE"
);
}
);
width = 672;
},
{
background = {
paths = (
{
closed = 1;
nodes = (
"601 684 OFFCURVE",
"490 742 OFFCURVE",
"335 742 CURVE SMOOTH",
"113 742 LINE SMOOTH",
"106 742 OFFCURVE",
"104 740 OFFCURVE",
"104 732 CURVE SMOOTH",
"104 8 LINE SMOOTH",
"104 3 OFFCURVE",
"107 0 OFFCURVE",
"112 0 CURVE SMOOTH",
"142 0 LINE SMOOTH",
"147 0 OFFCURVE",
"150 3 OFFCURVE",
"150 9 CURVE SMOOTH",
"150 318 LINE SMOOTH",
"150 324 OFFCURVE",
"152 327 OFFCURVE",
"158 327 CURVE SMOOTH",
"341 327 LINE SMOOTH",
"492 327 OFFCURVE",
"601 387 OFFCURVE",
"601 535 CURVE SMOOTH"
);
},
{
closed = 1;
nodes = (
"553 415 OFFCURVE",
"469 367 OFFCURVE",
"341 367 CURVE SMOOTH",
"157 367 LINE SMOOTH",
"152 367 OFFCURVE",
"150 370 OFFCURVE",
"150 377 CURVE SMOOTH",
"150 694 LINE SMOOTH",
"150 700 OFFCURVE",
"153 702 OFFCURVE",
"159 702 CURVE SMOOTH",
"334 702 LINE SMOOTH",
"469 702 OFFCURVE",
"553 662 OFFCURVE",
"553 538 CURVE SMOOTH"
);
}
);
};
layerId = "91AB5BCA-6A50-42DA-B2F7-8181BF189245";
paths = (
{
closed = 1;
nodes = (
"108 0 LINE",
"147 277 LINE",
"318 277 LINE SMOOTH",
"454 277 OFFCURVE",
"563 358 OFFCURVE",
"584 503 CURVE SMOOTH",
"604 648 OFFCURVE",
"515 723 OFFCURVE",
"375 723 CURVE SMOOTH",
"170 723 LINE",
"69 0 LINE"
);
},
{
closed = 1;
nodes = (
"204 681 LINE",
"368 681 LINE SMOOTH",
"490 681 OFFCURVE",
"560 626 OFFCURVE",
"544 506 CURVE SMOOTH",
"527 386 OFFCURVE",
"439 320 OFFCURVE",
"324 320 CURVE SMOOTH",
"153 320 LINE"
);
}
);
width = 585;
}
);
leftKerningGroup = N;
leftMetricsKey = N;
rightKerningGroup = P;
unicode = 0050;
},
{
glyphname = Thorn;
lastChange = "2019-04-16 04:59:23 +0000";
layers = (
{
background = {
paths = (
{
closed = 1;
nodes = (
"740 530 OFFCURVE",
"603 608 OFFCURVE",
"439 608 CURVE SMOOTH",
"313 608 LINE SMOOTH",
"306 608 OFFCURVE",
"303 612 OFFCURVE",
"303 620 CURVE SMOOTH",
"303 721 LINE SMOOTH",
"303 734 OFFCURVE",
"297 742 OFFCURVE",
"285 742 CURVE SMOOTH",
"95 742 LINE SMOOTH",
"84 742 OFFCURVE",
"76 734 OFFCURVE",
"76 719 CURVE SMOOTH",
"76 25 LINE SMOOTH",
"76 8 OFFCURVE",
"82 0 OFFCURVE",
"102 0 CURVE SMOOTH",
"270 0 LINE SMOOTH",
"293 0 OFFCURVE",
"303 8 OFFCURVE",
"303 29 CURVE SMOOTH",
"303 131 LINE SMOOTH",
"303 138 OFFCURVE",
"306 142 OFFCURVE",
"315 142 CURVE SMOOTH",
"465 142 LINE SMOOTH",
"628 142 OFFCURVE",
"740 229 OFFCURVE",
"740 372 CURVE SMOOTH"
);
},
{
closed = 1;
nodes = (
"508 335 OFFCURVE",
"479 302 OFFCURVE",
"431 302 CURVE SMOOTH",
"320 302 LINE SMOOTH",
"307 302 OFFCURVE",
"303 309 OFFCURVE",
"303 324 CURVE SMOOTH",
"303 427 LINE SMOOTH",
"303 442 OFFCURVE",
"309 448 OFFCURVE",
"326 448 CURVE SMOOTH",
"425 448 LINE SMOOTH",
"471 448 OFFCURVE",
"508 420 OFFCURVE",
"508 375 CURVE SMOOTH"
);
}
);
};
layerId = "258ED206-D907-4350-8EBA-CBDDA1C16BF7";
paths = (
{
closed = 1;
nodes = (
"255 0 LINE",
"276 138 LINE",
"433 138 LINE SMOOTH",
"591 138 OFFCURVE",
"712 223 OFFCURVE",
"733 363 CURVE SMOOTH",
"756 517 OFFCURVE",
"635 593 OFFCURVE",
"476 593 CURVE SMOOTH",
"345 593 LINE",
"364 723 LINE",
"144 723 LINE",
"34 0 LINE"
);
},
{
closed = 1;
nodes = (
"321 437 LINE",
"439 437 LINE SMOOTH",
"483 437 OFFCURVE",
"516 410 OFFCURVE",
"509 366 CURVE SMOOTH",
"503 327 OFFCURVE",
"469 294 OFFCURVE",
"423 294 CURVE SMOOTH",
"299 294 LINE"
);
}
);
width = 748;
},
{
background = {
paths = (
{
closed = 1;
nodes = (
"601 522 OFFCURVE",
"491 579 OFFCURVE",
"335 579 CURVE SMOOTH",
"156 579 LINE SMOOTH",
"152 579 OFFCURVE",
"150 581 OFFCURVE",
"150 584 CURVE SMOOTH",
"150 732 LINE SMOOTH",
"150 740 OFFCURVE",
"148 742 OFFCURVE",
"141 742 CURVE SMOOTH",
"113 742 LINE SMOOTH",
"106 742 OFFCURVE",
"104 740 OFFCURVE",
"104 732 CURVE SMOOTH",
"104 8 LINE SMOOTH",
"104 3 OFFCURVE",
"107 0 OFFCURVE",
"112 0 CURVE SMOOTH",
"142 0 LINE SMOOTH",
"147 0 OFFCURVE",
"150 3 OFFCURVE",
"150 9 CURVE SMOOTH",
"150 173 LINE SMOOTH",
"150 179 OFFCURVE",
"152 182 OFFCURVE",
"158 182 CURVE SMOOTH",
"341 182 LINE SMOOTH",
"491 182 OFFCURVE",
"601 239 OFFCURVE",
"601 390 CURVE SMOOTH"
);
},
{
closed = 1;
nodes = (
"553 268 OFFCURVE",
"469 222 OFFCURVE",
"341 222 CURVE SMOOTH",
"157 222 LINE SMOOTH",
"152 222 OFFCURVE",
"150 225 OFFCURVE",
"150 232 CURVE SMOOTH",
"150 531 LINE SMOOTH",
"150 537 OFFCURVE",
"153 539 OFFCURVE",
"159 539 CURVE SMOOTH",
"334 539 LINE SMOOTH",
"469 539 OFFCURVE",
"553 501 OFFCURVE",
"553 390 CURVE SMOOTH"
);
}
);
};
layerId = "91AB5BCA-6A50-42DA-B2F7-8181BF189245";
paths = (
{
closed = 1;
nodes = (
"110 0 LINE",
"135 177 LINE",
"306 177 LINE SMOOTH",
"441 177 OFFCURVE",
"548 233 OFFCURVE",
"568 380 CURVE SMOOTH",
"586 509 OFFCURVE",
"496 565 OFFCURVE",
"355 565 CURVE SMOOTH",
"189 565 LINE",
"212 723 LINE",
"170 723 LINE",
"69 0 LINE"
);
},
{
closed = 1;
nodes = (
"184 526 LINE",
"349 526 LINE SMOOTH",
"470 526 OFFCURVE",
"540 488 OFFCURVE",
"525 380 CURVE SMOOTH",
"508 261 OFFCURVE",
"426 216 OFFCURVE",
"311 216 CURVE SMOOTH",
"140 216 LINE"
);
}
);
width = 586;
}
);
leftKerningGroup = N;
leftMetricsKey = P;
rightKerningGroup = P;
rightMetricsKey = P;
unicode = 00DE;
},
{
glyphname = Q;
lastChange = "2019-04-16 04:59:23 +0000";
layers = (
{
background = {
paths = (
{
closed = 1;
nodes = (
"24 138 OFFCURVE",
"163 -10 OFFCURVE",
"384 -10 CURVE SMOOTH",
"410 -10 OFFCURVE",
"431 -9 OFFCURVE",
"455 -6 CURVE SMOOTH",
"462 -5 OFFCURVE",
"467 -6 OFFCURVE",
"470 -10 CURVE SMOOTH",
"527 -84 OFFCURVE",
"599 -128 OFFCURVE",
"699 -128 CURVE SMOOTH",
"731 -128 OFFCURVE",
"743 -122 OFFCURVE",
"743 -97 CURVE SMOOTH",
"743 13 LINE SMOOTH",
"743 20 OFFCURVE",
"740 28 OFFCURVE",
"726 30 CURVE SMOOTH",
"683 36 OFFCURVE",
"636 61 OFFCURVE",
"636 78 CURVE SMOOTH",
"636 82 OFFCURVE",
"636 84 OFFCURVE",
"638 86 CURVE",
"705 152 OFFCURVE",
"743 249 OFFCURVE",
"743 369 CURVE SMOOTH",
"743 601 OFFCURVE",
"600 752 OFFCURVE",
"384 752 CURVE SMOOTH",
"167 752 OFFCURVE",
"24 601 OFFCURVE",
"24 369 CURVE SMOOTH"
);
},
{
closed = 1;
nodes = (
"262 532 OFFCURVE",
"297 598 OFFCURVE",
"384 598 CURVE SMOOTH",
"470 598 OFFCURVE",
"505 532 OFFCURVE",
"505 367 CURVE SMOOTH",
"505 206 OFFCURVE",
"472 146 OFFCURVE",
"384 146 CURVE SMOOTH",
"295 146 OFFCURVE",
"262 206 OFFCURVE",
"262 367 CURVE SMOOTH"
);
}
);
};
layerId = "258ED206-D907-4350-8EBA-CBDDA1C16BF7";
paths = (
{
closed = 1;
nodes = (
"690 27 LINE",
"641 27 OFFCURVE",
"600 52 OFFCURVE",
"597 80 CURVE",
"672 150 OFFCURVE",
"723 243 OFFCURVE",
"741 360 CURVE SMOOTH",
"775 586 OFFCURVE",
"659 733 OFFCURVE",
"449 733 CURVE SMOOTH",
"240 733 OFFCURVE",
"78 586 OFFCURVE",
"44 360 CURVE SMOOTH",
"10 135 OFFCURVE",
"123 -10 OFFCURVE",
"337 -10 CURVE SMOOTH",
"362 -10 OFFCURVE",
"382 -9 OFFCURVE",
"417 -5 CURVE",
"486 -113 OFFCURVE",
"552 -125 OFFCURVE",
"667 -125 CURVE"
);
},
{
closed = 1;
nodes = (
"275 146 OFFCURVE",
"232 201 OFFCURVE",
"255 358 CURVE SMOOTH",
"280 519 OFFCURVE",
"342 577 OFFCURVE",
"426 577 CURVE SMOOTH",
"509 577 OFFCURVE",
"554 519 OFFCURVE",
"530 358 CURVE SMOOTH",
"506 201 OFFCURVE",
"446 146 OFFCURVE",
"360 146 CURVE SMOOTH"
);
}
);
width = 782;
},
{
background = {
paths = (
{
closed = 1;
nodes = (
"41 116 OFFCURVE",
"158 -10 OFFCURVE",
"342 -10 CURVE SMOOTH",
"368 -10 OFFCURVE",
"398 -7 OFFCURVE",
"423 -1 CURVE SMOOTH",
"430 1 OFFCURVE",
"435 -1 OFFCURVE",
"438 -5 CURVE SMOOTH",
"503 -96 OFFCURVE",
"569 -122 OFFCURVE",
"613 -122 CURVE SMOOTH",
"627 -122 OFFCURVE",
"633 -120 OFFCURVE",
"633 -109 CURVE SMOOTH",
"633 -87 LINE SMOOTH",
"633 -84 OFFCURVE",
"632 -81 OFFCURVE",
"626 -80 CURVE SMOOTH",
"551 -70 OFFCURVE",
"484 -11 OFFCURVE",
"484 16 CURVE SMOOTH",
"484 20 OFFCURVE",
"485 22 OFFCURVE",
"490 25 CURVE SMOOTH",
"587 83 OFFCURVE",
"643 189 OFFCURVE",
"643 369 CURVE SMOOTH",
"643 620 OFFCURVE",
"530 752 OFFCURVE",
"342 752 CURVE SMOOTH",
"154 752 OFFCURVE",
"41 620 OFFCURVE",
"41 369 CURVE SMOOTH"
);
},
{
closed = 1;
nodes = (
"89 592 OFFCURVE",
"175 710 OFFCURVE",
"342 710 CURVE SMOOTH",
"509 710 OFFCURVE",
"595 592 OFFCURVE",
"595 369 CURVE SMOOTH",
"595 141 OFFCURVE",
"506 32 OFFCURVE",
"342 32 CURVE SMOOTH",
"178 32 OFFCURVE",
"89 141 OFFCURVE",
"89 367 CURVE SMOOTH"
);
}
);
};
layerId = "91AB5BCA-6A50-42DA-B2F7-8181BF189245";
paths = (
{
closed = 1;
nodes = (
"539 -79 LINE",
"481 -76 OFFCURVE",
"433 -50 OFFCURVE",
"412 18 CURVE",
"528 79 OFFCURVE",
"586 194 OFFCURVE",
"609 360 CURVE SMOOTH",
"643 605 OFFCURVE",
"560 733 OFFCURVE",
"392 733 CURVE SMOOTH",
"223 733 OFFCURVE",
"103 605 OFFCURVE",
"69 360 CURVE SMOOTH",
"34 113 OFFCURVE",
"123 -10 OFFCURVE",
"287 -10 CURVE SMOOTH",
"313 -10 OFFCURVE",
"339 -6 OFFCURVE",
"370 1 CURVE",
"403 -98 OFFCURVE",
"489 -119 OFFCURVE",
"533 -119 CURVE"
);
},
{
closed = 1;
nodes = (
"146 31 OFFCURVE",
"78 137 OFFCURVE",
"109 358 CURVE SMOOTH",
"140 577 OFFCURVE",
"236 692 OFFCURVE",
"386 692 CURVE SMOOTH",
"536 692 OFFCURVE",
"600 577 OFFCURVE",
"569 360 CURVE SMOOTH",
"538 137 OFFCURVE",
"440 31 OFFCURVE",
"293 31 CURVE SMOOTH"
);
}
);
width = 660;
}
);
leftKerningGroup = O;
rightKerningGroup = O;
unicode = 0051;
},
{
glyphname = R;
lastChange = "2019-04-16 04:59:23 +0000";
layers = (
{
anchors = (
{
name = bottom;
position = "{324, 0}";
},
{
name = top;
position = "{424, 723}";
}
);
background = {
anchors = (
{
name = bottom;
position = "{375, 0}";
},
{
name = top;
position = "{365, 742}";
}
);
paths = (
{
closed = 1;
nodes = (
"582 312 LINE SMOOTH",
"579 320 OFFCURVE",
"579 328 OFFCURVE",
"586 331 CURVE SMOOTH",
"662 360 OFFCURVE",
"717 436 OFFCURVE",
"717 530 CURVE SMOOTH",
"717 664 OFFCURVE",
"605 742 OFFCURVE",
"412 742 CURVE SMOOTH",
"78 742 LINE SMOOTH",
"66 742 OFFCURVE",
"59 734 OFFCURVE",
"59 719 CURVE SMOOTH",
"59 25 LINE SMOOTH",
"59 8 OFFCURVE",
"65 0 OFFCURVE",
"85 0 CURVE SMOOTH",
"253 0 LINE SMOOTH",
"276 0 OFFCURVE",
"286 8 OFFCURVE",
"286 29 CURVE SMOOTH",
"286 284 LINE SMOOTH",
"286 287 OFFCURVE",
"289 295 OFFCURVE",
"298 295 CURVE SMOOTH",
"344 295 LINE SMOOTH",
"363 295 OFFCURVE",
"371 290 OFFCURVE",
"375 279 CURVE SMOOTH",
"469 21 LINE SMOOTH",
"473 7 OFFCURVE",
"482 0 OFFCURVE",
"496 0 CURVE SMOOTH",
"690 0 LINE SMOOTH",
"706 0 OFFCURVE",
"715 15 OFFCURVE",
"708 32 CURVE SMOOTH"
);
},
{
closed = 1;
nodes = (
"303 444 LINE SMOOTH",
"290 444 OFFCURVE",
"286 450 OFFCURVE",
"286 465 CURVE SMOOTH",
"286 574 LINE SMOOTH",
"286 589 OFFCURVE",
"292 594 OFFCURVE",
"309 594 CURVE SMOOTH",
"397 594 LINE SMOOTH",
"442 594 OFFCURVE",
"482 567 OFFCURVE",
"482 516 CURVE SMOOTH",
"482 473 OFFCURVE",
"454 444 OFFCURVE",
"403 444 CURVE SMOOTH"
);
}
);
};
layerId = "258ED206-D907-4350-8EBA-CBDDA1C16BF7";
paths = (
{
closed = 1;
nodes = (
"227 0 LINE",
"265 249 LINE",
"367 249 LINE",
"433 0 LINE",
"631 0 LINE",
"547 280 LINE",
"620 321 OFFCURVE",
"676 379 OFFCURVE",
"693 490 CURVE SMOOTH",
"713 621 OFFCURVE",
"656 723 OFFCURVE",
"469 723 CURVE SMOOTH",
"143 723 LINE",
"34 0 LINE"
);
},
{
closed = 1;
nodes = (
"315 579 LINE",
"426 579 LINE SMOOTH",
"469 579 OFFCURVE",
"506 538 OFFCURVE",
"498 488 CURVE SMOOTH",
"491 441 OFFCURVE",
"447 394 OFFCURVE",
"398 394 CURVE SMOOTH",
"287 394 LINE"
);
}
);
width = 712;
},
{
anchors = (
{
name = bottom;
position = "{268, 0}";
},
{
name = top;
position = "{363, 723}";
}
);
background = {
anchors = (
{
name = bottom;
position = "{326, 0}";
},
{
name = top;
position = "{319, 742}";
}
);
paths = (
{
closed = 1;
nodes = (
"438 359 LINE",
"437 362 OFFCURVE",
"438 365 OFFCURVE",
"442 366 CURVE SMOOTH",
"511 384 OFFCURVE",
"594 435 OFFCURVE",
"594 558 CURVE SMOOTH",
"594 680 OFFCURVE",
"510 742 OFFCURVE",
"366 742 CURVE SMOOTH",
"108 742 LINE SMOOTH",
"101 742 OFFCURVE",
"99 740 OFFCURVE",
"99 732 CURVE SMOOTH",
"99 9 LINE SMOOTH",
"99 3 OFFCURVE",
"101 0 OFFCURVE",
"109 0 CURVE SMOOTH",
"135 0 LINE SMOOTH",
"143 0 OFFCURVE",
"145 3 OFFCURVE",
"145 11 CURVE SMOOTH",
"145 344 LINE SMOOTH",
"145 351 OFFCURVE",
"148 355 OFFCURVE",
"157 355 CURVE SMOOTH",
"373 355 LINE SMOOTH",
"386 355 OFFCURVE",
"391 352 OFFCURVE",
"394 345 CURVE SMOOTH",
"536 9 LINE SMOOTH",
"539 3 OFFCURVE",
"541 0 OFFCURVE",
"548 0 CURVE SMOOTH",
"576 0 LINE SMOOTH",
"583 0 OFFCURVE",
"587 7 OFFCURVE",
"584 14 CURVE SMOOTH"
);
},
{
closed = 1;
nodes = (
"152 395 LINE SMOOTH",
"147 395 OFFCURVE",
"145 398 OFFCURVE",
"145 404 CURVE SMOOTH",
"145 694 LINE SMOOTH",
"145 700 OFFCURVE",
"148 702 OFFCURVE",
"156 702 CURVE SMOOTH",
"365 702 LINE SMOOTH",
"486 702 OFFCURVE",
"546 653 OFFCURVE",
"546 551 CURVE SMOOTH",
"546 439 OFFCURVE",
"474 395 OFFCURVE",
"331 395 CURVE SMOOTH"
);
}
);
};
layerId = "91AB5BCA-6A50-42DA-B2F7-8181BF189245";
paths = (
{
closed = 1;
nodes = (
"105 0 LINE",
"154 344 LINE",
"377 344 LINE",
"463 0 LINE",
"504 0 LINE",
"416 353 LINE",
"483 371 OFFCURVE",
"568 423 OFFCURVE",
"585 544 CURVE SMOOTH",
"601 663 OFFCURVE",
"534 723 OFFCURVE",
"405 723 CURVE SMOOTH",
"171 723 LINE",
"69 0 LINE"
);
},
{
closed = 1;
nodes = (
"201 683 LINE",
"399 683 LINE SMOOTH",
"508 683 OFFCURVE",
"559 640 OFFCURVE",
"545 537 CURVE SMOOTH",
"530 428 OFFCURVE",
"455 385 OFFCURVE",
"327 385 CURVE SMOOTH",
"159 385 LINE"
);
}
);
width = 620;
}
);
leftKerningGroup = N;
leftMetricsKey = N;
rightKerningGroup = R;
unicode = 0052;
},
{
glyphname = S;
lastChange = "2019-04-16 04:59:23 +0000";
layers = (
{
anchors = (
{
name = bottom;
position = "{323, 0}";
},
{
name = top;
position = "{433, 723}";
}
);
background = {
anchors = (
{
name = bottom;
position = "{376, 0}";
},
{
name = top;
position = "{376, 742}";
}
);
paths = (
{
closed = 1;
nodes = (
"529 529 OFFCURVE",
"535 528 OFFCURVE",
"545 535 CURVE SMOOTH",
"654 614 LINE SMOOTH",
"667 624 OFFCURVE",
"660 635 OFFCURVE",
"654 644 CURVE SMOOTH",
"608 709 OFFCURVE",
"495 752 OFFCURVE",
"376 752 CURVE SMOOTH",
"187 752 OFFCURVE",
"68 645 OFFCURVE",
"68 515 CURVE SMOOTH",
"68 410 OFFCURVE",
"144 323 OFFCURVE",
"264 293 CURVE SMOOTH",
"416 256 LINE SMOOTH",
"459 246 OFFCURVE",
"479 226 OFFCURVE",
"479 202 CURVE SMOOTH",
"479 165 OFFCURVE",
"431 144 OFFCURVE",
"358 144 CURVE SMOOTH",
"279 144 OFFCURVE",
"240 167 OFFCURVE",
"196 224 CURVE SMOOTH",
"188 234 OFFCURVE",
"176 238 OFFCURVE",
"158 226 CURVE SMOOTH",
"55 155 LINE SMOOTH",
"41 144 OFFCURVE",
"41 136 OFFCURVE",
"49 122 CURVE SMOOTH",
"96 43 OFFCURVE",
"229 -10 OFFCURVE",
"375 -10 CURVE SMOOTH",
"572 -10 OFFCURVE",
"695 86 OFFCURVE",
"695 234 CURVE SMOOTH",
"695 337 OFFCURVE",
"637 421 OFFCURVE",
"512 452 CURVE SMOOTH",
"346 495 LINE SMOOTH",
"296 507 OFFCURVE",
"282 528 OFFCURVE",
"282 546 CURVE SMOOTH",
"282 571 OFFCURVE",
"309 597 OFFCURVE",
"384 597 CURVE SMOOTH",
"462 597 OFFCURVE",
"491 569 OFFCURVE",
"515 543 CURVE SMOOTH"
);
}
);
};
guideLines = (
{
angle = 214.3236;
position = "{679, 302}";
}
);
layerId = "258ED206-D907-4350-8EBA-CBDDA1C16BF7";
paths = (
{
closed = 1;
nodes = (
"505 -10 OFFCURVE",
"654 82 OFFCURVE",
"672 205 CURVE SMOOTH",
"683 277 OFFCURVE",
"690 407 OFFCURVE",
"487 443 CURVE SMOOTH",
"378 462 LINE SMOOTH",
"317 473 OFFCURVE",
"304 492 OFFCURVE",
"309 525 CURVE SMOOTH",
"313 551 OFFCURVE",
"340 582 OFFCURVE",
"416 582 CURVE SMOOTH",
"483 582 OFFCURVE",
"520 560 OFFCURVE",
"517 504 CURVE",
"713 504 LINE",
"718 623 OFFCURVE",
"610 732 OFFCURVE",
"434 732 CURVE SMOOTH",
"269 732 OFFCURVE",
"119 647 OFFCURVE",
"98 501 CURVE SMOOTH",
"82 378 OFFCURVE",
"145 306 OFFCURVE",
"255 288 CURVE SMOOTH",
"364 269 LINE SMOOTH",
"423 259 OFFCURVE",
"481 249 OFFCURVE",
"475 205 CURVE SMOOTH",
"467 154 OFFCURVE",
"407 139 OFFCURVE",
"346 139 CURVE SMOOTH",
"279 139 OFFCURVE",
"239 169 OFFCURVE",
"236 220 CURVE",
"35 220 LINE",
"23 59 OFFCURVE",
"174 -10 OFFCURVE",
"325 -10 CURVE SMOOTH"
);
}
);
width = 720;
},
{
anchors = (
{
name = bottom;
position = "{270, 0}";
},
{
name = top;
position = "{377, 723}";
}
);
background = {
anchors = (
{
name = bottom;
position = "{339, 0}";
},
{
name = top;
position = "{335, 742}";
}
);
paths = (
{
closed = 1;
nodes = (
"522 620 OFFCURVE",
"524 618 OFFCURVE",
"529 622 CURVE SMOOTH",
"551 642 LINE SMOOTH",
"557 647 OFFCURVE",
"555 652 OFFCURVE",
"551 656 CURVE SMOOTH",
"494 716 OFFCURVE",
"427 752 OFFCURVE",
"334 752 CURVE SMOOTH",
"197 752 OFFCURVE",
"102 681 OFFCURVE",
"102 556 CURVE SMOOTH",
"102 492 OFFCURVE",
"132 421 OFFCURVE",
"240 380 CURVE SMOOTH",
"391 322 LINE SMOOTH",
"500 280 OFFCURVE",
"523 239 OFFCURVE",
"523 180 CURVE SMOOTH",
"523 73 OFFCURVE",
"444 32 OFFCURVE",
"325 32 CURVE SMOOTH",
"218 32 OFFCURVE",
"170 69 OFFCURVE",
"114 141 CURVE SMOOTH",
"109 147 OFFCURVE",
"104 148 OFFCURVE",
"94 141 CURVE SMOOTH",
"83 133 LINE SMOOTH",
"73 126 OFFCURVE",
"72 120 OFFCURVE",
"77 113 CURVE SMOOTH",
"136 29 OFFCURVE",
"214 -10 OFFCURVE",
"325 -10 CURVE SMOOTH",
"476 -10 OFFCURVE",
"569 60 OFFCURVE",
"569 182 CURVE SMOOTH",
"569 266 OFFCURVE",
"526 326 OFFCURVE",
"408 369 CURVE SMOOTH",
"270 419 LINE SMOOTH",
"163 458 OFFCURVE",
"148 518 OFFCURVE",
"148 557 CURVE SMOOTH",
"148 656 OFFCURVE",
"222 710 OFFCURVE",
"331 710 CURVE SMOOTH",
"415 710 OFFCURVE",
"476 674 OFFCURVE",
"516 627 CURVE SMOOTH"
);
}
);
};
layerId = "91AB5BCA-6A50-42DA-B2F7-8181BF189245";
paths = (
{
closed = 1;
nodes = (
"437 -10 OFFCURVE",
"528 75 OFFCURVE",
"542 177 CURVE SMOOTH",
"554 259 OFFCURVE",
"526 334 OFFCURVE",
"426 364 CURVE SMOOTH",
"290 404 LINE SMOOTH",
"189 434 OFFCURVE",
"160 471 OFFCURVE",
"169 533 CURVE SMOOTH",
"184 643 OFFCURVE",
"293 691 OFFCURVE",
"372 691 CURVE SMOOTH",
"463 691 OFFCURVE",
"540 650 OFFCURVE",
"542 532 CURVE",
"580 540 LINE",
"585 640 OFFCURVE",
"531 732 OFFCURVE",
"380 732 CURVE SMOOTH",
"246 732 OFFCURVE",
"145 646 OFFCURVE",
"129 532 CURVE SMOOTH",
"117 446 OFFCURVE",
"166 399 OFFCURVE",
"260 372 CURVE SMOOTH",
"403 332 LINE SMOOTH",
"485 309 OFFCURVE",
"513 252 OFFCURVE",
"502 175 CURVE SMOOTH",
"490 90 OFFCURVE",
"401 29 OFFCURVE",
"285 29 CURVE SMOOTH",
"187 29 OFFCURVE",
"103 78 OFFCURVE",
"97 176 CURVE",
"57 167 LINE",
"61 55 OFFCURVE",
"158 -10 OFFCURVE",
"279 -10 CURVE SMOOTH"
);
}
);
width = 633;
}
);
leftKerningGroup = S;
rightKerningGroup = S;
unicode = 0053;
},
{
glyphname = Schwa;
lastChange = "2019-04-16 04:59:23 +0000";
layers = (
{
background = {
paths = (
{
closed = 1;
nodes = (
"523 431 OFFCURVE",
"516 425 OFFCURVE",
"503 425 CURVE SMOOTH",
"70 425 LINE SMOOTH",
"48 425 OFFCURVE",
"47 414 OFFCURVE",
"47 392 CURVE SMOOTH",
"47 136 OFFCURVE",
"168 -10 OFFCURVE",
"401 -10 CURVE SMOOTH",
"594 -10 OFFCURVE",
"763 158 OFFCURVE",
"763 380 CURVE SMOOTH",
"763 599 OFFCURVE",
"626 752 OFFCURVE",
"404 752 CURVE SMOOTH",
"258 752 OFFCURVE",
"152 689 OFFCURVE",
"90 567 CURVE SMOOTH",
"82 551 OFFCURVE",
"83 542 OFFCURVE",
"95 536 CURVE SMOOTH",
"233 468 LINE SMOOTH",
"250 459 OFFCURVE",
"256 462 OFFCURVE",
"260 469 CURVE SMOOTH",
"306 544 OFFCURVE",
"344 578 OFFCURVE",
"406 578 CURVE SMOOTH",
"504 578 OFFCURVE",
"523 506 OFFCURVE",
"523 447 CURVE SMOOTH"
);
},
{
closed = 1;
nodes = (
"509 192 OFFCURVE",
"480 146 OFFCURVE",
"399 146 CURVE SMOOTH",
"331 146 OFFCURVE",
"290 201 OFFCURVE",
"290 267 CURVE SMOOTH",
"290 282 OFFCURVE",
"295 285 OFFCURVE",
"312 285 CURVE SMOOTH",
"521 284 LINE"
);
}
);
};
layerId = "258ED206-D907-4350-8EBA-CBDDA1C16BF7";
paths = (
{
closed = 1;
nodes = (
"532 -10 OFFCURVE",
"721 154 OFFCURVE",
"754 371 CURVE SMOOTH",
"786 584 OFFCURVE",
"677 733 OFFCURVE",
"461 733 CURVE SMOOTH",
"320 733 OFFCURVE",
"208 672 OFFCURVE",
"130 553 CURVE SMOOTH",
"120 537 OFFCURVE",
"119 528 OFFCURVE",
"130 523 CURVE SMOOTH",
"253 456 LINE SMOOTH",
"269 448 OFFCURVE",
"275 450 OFFCURVE",
"280 457 CURVE SMOOTH",
"336 530 OFFCURVE",
"378 564 OFFCURVE",
"438 564 CURVE SMOOTH",
"533 564 OFFCURVE",
"540 493 OFFCURVE",
"532 436 CURVE SMOOTH",
"529 420 OFFCURVE",
"521 414 OFFCURVE",
"509 414 CURVE SMOOTH",
"90 414 LINE SMOOTH",
"68 414 OFFCURVE",
"66 404 OFFCURVE",
"62 382 CURVE SMOOTH",
"24 133 OFFCURVE",
"120 -10 OFFCURVE",
"346 -10 CURVE SMOOTH"
);
},
{
closed = 1;
nodes = (
"301 142 OFFCURVE",
"270 196 OFFCURVE",
"279 260 CURVE SMOOTH",
"282 275 OFFCURVE",
"287 278 OFFCURVE",
"303 278 CURVE SMOOTH",
"505 277 LINE",
"481 187 OFFCURVE",
"445 142 OFFCURVE",
"367 142 CURVE SMOOTH"
);
}
);
width = 783;
},
{
background = {
paths = (
{
closed = 1;
nodes = (
"613 381 OFFCURVE",
"612 380 OFFCURVE",
"607 380 CURVE SMOOTH",
"72 380 LINE SMOOTH",
"64 380 OFFCURVE",
"64 375 OFFCURVE",
"64 369 CURVE SMOOTH",
"64 174 OFFCURVE",
"130 -10 OFFCURVE",
"365 -10 CURVE SMOOTH",
"594 -10 OFFCURVE",
"665 180 OFFCURVE",
"665 366 CURVE SMOOTH",
"665 531 OFFCURVE",
"615 752 OFFCURVE",
"365 752 CURVE SMOOTH",
"137 752 OFFCURVE",
"93 560 OFFCURVE",
"78 522 CURVE SMOOTH",
"76 517 OFFCURVE",
"75 514 OFFCURVE",
"79 513 CURVE SMOOTH",
"117 500 LINE SMOOTH",
"121 499 OFFCURVE",
"123 498 OFFCURVE",
"124 500 CURVE SMOOTH",
"138 531 OFFCURVE",
"156 709 OFFCURVE",
"365 709 CURVE SMOOTH",
"583 709 OFFCURVE",
"613 504 OFFCURVE",
"613 386 CURVE SMOOTH"
);
},
{
closed = 1;
nodes = (
"610 191 OFFCURVE",
"561 33 OFFCURVE",
"365 33 CURVE SMOOTH",
"168 33 OFFCURVE",
"116 192 OFFCURVE",
"116 332 CURVE SMOOTH",
"116 336 OFFCURVE",
"118 338 OFFCURVE",
"124 338 CURVE SMOOTH",
"613 338 LINE"
);
}
);
};
layerId = "91AB5BCA-6A50-42DA-B2F7-8181BF189245";
paths = (
{
closed = 1;
nodes = (
"508 -10 OFFCURVE",
"597 176 OFFCURVE",
"623 357 CURVE SMOOTH",
"646 518 OFFCURVE",
"632 733 OFFCURVE",
"407 733 CURVE SMOOTH",
"203 733 OFFCURVE",
"137 546 OFFCURVE",
"118 509 CURVE SMOOTH",
"116 504 OFFCURVE",
"114 501 OFFCURVE",
"118 500 CURVE SMOOTH",
"150 488 LINE SMOOTH",
"154 487 OFFCURVE",
"155 486 OFFCURVE",
"156 488 CURVE SMOOTH",
"174 518 OFFCURVE",
"214 691 OFFCURVE",
"401 691 CURVE SMOOTH",
"596 691 OFFCURVE",
"596 491 OFFCURVE",
"580 376 CURVE SMOOTH",
"579 371 OFFCURVE",
"578 371 OFFCURVE",
"573 371 CURVE SMOOTH",
"93 371 LINE SMOOTH",
"86 371 OFFCURVE",
"85 366 OFFCURVE",
"84 360 CURVE SMOOTH",
"58 170 OFFCURVE",
"92 -10 OFFCURVE",
"303 -10 CURVE SMOOTH"
);
},
{
closed = 1;
nodes = (
"132 32 OFFCURVE",
"107 187 OFFCURVE",
"126 324 CURVE SMOOTH",
"127 328 OFFCURVE",
"129 330 OFFCURVE",
"134 330 CURVE SMOOTH",
"573 330 LINE",
"550 186 OFFCURVE",
"484 32 OFFCURVE",
"309 32 CURVE SMOOTH"
);
}
);
width = 679;
}
);
leftKerningGroup = e;
leftMetricsKey = O;
rightKerningGroup = e;
rightMetricsKey = O;
unicode = 018F;
},
{
glyphname = T;
lastChange = "2019-04-16 04:59:23 +0000";
layers = (
{
anchors = (
{
name = bottom;
position = "{282, 0}";
},
{
name = top;
position = "{392, 723}";
}
);
background = {
anchors = (
{
name = bottom;
position = "{341, 0}";
},
{
name = top;
position = "{341, 742}";
}
);
paths = (
{
closed = 1;
nodes = (
"17 586 OFFCURVE",
"26 581 OFFCURVE",
"40 581 CURVE SMOOTH",
"216 581 LINE SMOOTH",
"224 581 OFFCURVE",
"227 577 OFFCURVE",
"227 567 CURVE SMOOTH",
"227 20 LINE SMOOTH",
"227 7 OFFCURVE",
"234 0 OFFCURVE",
"245 0 CURVE SMOOTH",
"435 0 LINE SMOOTH",
"446 0 OFFCURVE",
"454 7 OFFCURVE",
"454 22 CURVE SMOOTH",
"454 571 LINE SMOOTH",
"454 578 OFFCURVE",
"458 581 OFFCURVE",
"466 581 CURVE SMOOTH",
"643 581 LINE SMOOTH",
"656 581 OFFCURVE",
"665 586 OFFCURVE",
"665 600 CURVE SMOOTH",
"665 719 LINE SMOOTH",
"665 732 OFFCURVE",
"657 742 OFFCURVE",
"640 742 CURVE SMOOTH",
"42 742 LINE SMOOTH",
"25 742 OFFCURVE",
"17 732 OFFCURVE",
"17 719 CURVE SMOOTH",
"17 600 LINE SMOOTH"
);
}
);
};
layerId = "258ED206-D907-4350-8EBA-CBDDA1C16BF7";
paths = (
{
closed = 1;
nodes = (
"369 0 LINE",
"453 552 LINE",
"659 552 LINE",
"685 723 LINE",
"82 723 LINE",
"56 552 LINE",
"259 552 LINE",
"176 0 LINE"
);
}
);
width = 635;
},
{
anchors = (
{
name = bottom;
position = "{227, 2}";
},
{
name = top;
position = "{328, 723}";
}
);
background = {
anchors = (
{
name = bottom;
position = "{286, 0}";
},
{
name = top;
position = "{286, 742}";
}
);
paths = (
{
closed = 1;
nodes = (
"10 703 OFFCURVE",
"12 702 OFFCURVE",
"18 702 CURVE SMOOTH",
"252 702 LINE SMOOTH",
"260 702 OFFCURVE",
"262 701 OFFCURVE",
"262 693 CURVE SMOOTH",
"262 10 LINE SMOOTH",
"262 2 OFFCURVE",
"264 0 OFFCURVE",
"272 0 CURVE SMOOTH",
"299 0 LINE SMOOTH",
"306 0 OFFCURVE",
"308 2 OFFCURVE",
"308 10 CURVE SMOOTH",
"308 693 LINE SMOOTH",
"308 701 OFFCURVE",
"310 702 OFFCURVE",
"318 702 CURVE SMOOTH",
"531 702 LINE SMOOTH",
"537 702 OFFCURVE",
"539 703 OFFCURVE",
"539 709 CURVE SMOOTH",
"539 735 LINE SMOOTH",
"539 740 OFFCURVE",
"537 742 OFFCURVE",
"532 742 CURVE SMOOTH",
"17 742 LINE SMOOTH",
"12 742 OFFCURVE",
"10 740 OFFCURVE",
"10 735 CURVE SMOOTH",
"10 709 LINE SMOOTH"
);
}
);
};
layerId = "91AB5BCA-6A50-42DA-B2F7-8181BF189245";
paths = (
{
closed = 1;
nodes = (
"243 0 LINE",
"339 683 LINE",
"549 683 LINE",
"554 723 LINE",
"80 723 LINE",
"75 683 LINE",
"303 683 LINE",
"207 0 LINE"
);
}
);
width = 504;
}
);
leftKerningGroup = T;
rightKerningGroup = T;
unicode = 0054;
},
{
glyphname = Tbar;
lastChange = "2019-04-16 04:59:23 +0000";
layers = (
{
background = {
components = (
{
name = T;
transform = "{1, 0, 0, 1, -22, 0}";
}
);
paths = (
{
closed = 1;
nodes = (
"532 414 OFFCURVE",
"525 422 OFFCURVE",
"514 422 CURVE SMOOTH",
"113 422 LINE SMOOTH",
"101 422 OFFCURVE",
"94 414 OFFCURVE",
"94 399 CURVE SMOOTH",
"94 306 LINE SMOOTH",
"94 289 OFFCURVE",
"100 281 OFFCURVE",
"120 281 CURVE SMOOTH",
"499 281 LINE SMOOTH",
"522 281 OFFCURVE",
"532 289 OFFCURVE",
"532 309 CURVE SMOOTH",
"532 402 LINE SMOOTH"
);
}
);
};
components = (
{
name = T;
}
);
layerId = "258ED206-D907-4350-8EBA-CBDDA1C16BF7";
paths = (
{
closed = 1;
nodes = (
"526 274 LINE",
"546 411 LINE",
"119 411 LINE",
"99 274 LINE"
);
}
);
width = 635;
},
{
background = {
components = (
{
name = T;
transform = "{1, 0, 0, 1, 4, 0}";
}
);
guideLines = (
{
angle = 90;
position = "{179, 188}";
showMeasurement = 1;
}
);
paths = (
{
closed = 1;
nodes = (
"508 399 OFFCURVE",
"506 402 OFFCURVE",
"501 402 CURVE SMOOTH",
"149 402 LINE SMOOTH",
"144 402 OFFCURVE",
"142 399 OFFCURVE",
"142 393 CURVE SMOOTH",
"142 370 LINE SMOOTH",
"142 363 OFFCURVE",
"144 360 OFFCURVE",
"152 360 CURVE SMOOTH",
"495 360 LINE SMOOTH",
"504 360 OFFCURVE",
"508 363 OFFCURVE",
"508 371 CURVE SMOOTH",
"508 394 LINE SMOOTH"
);
}
);
};
components = (
{
name = T;
}
);
guideLines = (
{
angle = 90;
position = "{233, 175}";
showMeasurement = 1;
}
);
layerId = "91AB5BCA-6A50-42DA-B2F7-8181BF189245";
paths = (
{
closed = 1;
nodes = (
"464 351 LINE",
"464 392 LINE",
"107 392 LINE",
"107 351 LINE"
);
}
);
width = 504;
}
);
leftKerningGroup = T;
leftMetricsKey = T;
rightKerningGroup = T;
rightMetricsKey = T;
unicode = 0166;
},
{
glyphname = U;
lastChange = "2019-04-16 04:59:23 +0000";
layers = (
{
anchors = (
{
name = bottom;
position = "{340, 0}";
},
{
name = horn;
position = "{700, 547}";
},
{
name = ogonek;
position = "{421, 12}";
},
{
name = top;
position = "{450, 723}";
}
);
background = {
anchors = (
{
name = ogonek;
position = "{491, 10}";
},
{
name = top;
position = "{396, 742}";
}
);
paths = (
{
closed = 1;
nodes = (
"699 721 LINE SMOOTH",
"699 734 OFFCURVE",
"693 742 OFFCURVE",
"681 742 CURVE SMOOTH",
"531 742 LINE SMOOTH",
"519 742 OFFCURVE",
"512 734 OFFCURVE",
"512 719 CURVE SMOOTH",
"512 292 LINE SMOOTH",
"512 181 OFFCURVE",
"458 149 OFFCURVE",
"396 149 CURVE SMOOTH",
"328 149 OFFCURVE",
"286 187 OFFCURVE",
"286 289 CURVE SMOOTH",
"286 721 LINE SMOOTH",
"286 734 OFFCURVE",
"280 742 OFFCURVE",
"268 742 CURVE SMOOTH",
"78 742 LINE SMOOTH",
"67 742 OFFCURVE",
"59 734 OFFCURVE",
"59 719 CURVE SMOOTH",
"59 313 LINE SMOOTH",
"59 104 OFFCURVE",
"140 -10 OFFCURVE",
"379 -10 CURVE SMOOTH",
"570 -10 OFFCURVE",
"699 62 OFFCURVE",
"699 293 CURVE SMOOTH"
);
}
);
};
layerId = "258ED206-D907-4350-8EBA-CBDDA1C16BF7";
paths = (
{
closed = 1;
nodes = (
"570 -10 OFFCURVE",
"668 115 OFFCURVE",
"696 299 CURVE SMOOTH",
"760 723 LINE",
"564 723 LINE",
"499 291 LINE SMOOTH",
"484 191 OFFCURVE",
"423 153 OFFCURVE",
"364 153 CURVE SMOOTH",
"303 153 OFFCURVE",
"255 191 OFFCURVE",
"270 291 CURVE SMOOTH",
"336 723 LINE",
"140 723 LINE",
"76 299 LINE SMOOTH",
"48 115 OFFCURVE",
"107 -10 OFFCURVE",
"339 -10 CURVE SMOOTH"
);
}
);
width = 750;
},
{
anchors = (
{
name = bottom;
position = "{287, 2}";
},
{
name = horn;
position = "{580, 606}";
},
{
name = ogonek;
position = "{354, 9}";
},
{
name = top;
position = "{391, 723}";
}
);
background = {
anchors = (
{
name = ogonek;
position = "{419, 9}";
},
{
name = top;
position = "{351, 742}";
}
);
paths = (
{
closed = 1;
nodes = (
"594 733 LINE SMOOTH",
"594 739 OFFCURVE",
"592 742 OFFCURVE",
"586 742 CURVE SMOOTH",
"562 742 LINE SMOOTH",
"556 742 OFFCURVE",
"554 739 OFFCURVE",
"554 733 CURVE SMOOTH",
"554 229 LINE SMOOTH",
"554 97 OFFCURVE",
"487 32 OFFCURVE",
"349 32 CURVE SMOOTH",
"213 32 OFFCURVE",
"146 96 OFFCURVE",
"146 226 CURVE SMOOTH",
"146 732 LINE SMOOTH",
"146 740 OFFCURVE",
"144 742 OFFCURVE",
"136 742 CURVE SMOOTH",
"108 742 LINE SMOOTH",
"102 742 OFFCURVE",
"100 739 OFFCURVE",
"100 731 CURVE SMOOTH",
"100 245 LINE SMOOTH",
"100 71 OFFCURVE",
"179 -10 OFFCURVE",
"347 -10 CURVE SMOOTH",
"513 -10 OFFCURVE",
"594 69 OFFCURVE",
"594 230 CURVE SMOOTH"
);
}
);
};
layerId = "91AB5BCA-6A50-42DA-B2F7-8181BF189245";
paths = (
{
closed = 1;
nodes = (
"435 -10 OFFCURVE",
"518 67 OFFCURVE",
"540 224 CURVE SMOOTH",
"610 723 LINE",
"574 723 LINE",
"504 222 LINE SMOOTH",
"486 94 OFFCURVE",
"415 28 OFFCURVE",
"292 28 CURVE SMOOTH",
"170 28 OFFCURVE",
"121 96 OFFCURVE",
"139 222 CURVE SMOOTH",
"209 723 LINE",
"170 723 LINE",
"102 239 LINE SMOOTH",
"78 69 OFFCURVE",
"136 -10 OFFCURVE",
"287 -10 CURVE SMOOTH"
);
}
);
width = 650;
}
);
leftKerningGroup = U;
rightKerningGroup = U;
unicode = 0055;
},
{
glyphname = V;
lastChange = "2019-04-16 04:59:24 +0000";
layers = (
{
background = {
paths = (
{
closed = 1;
nodes = (
"553 742 LINE SMOOTH",
"541 742 OFFCURVE",
"530 734 OFFCURVE",
"527 721 CURVE SMOOTH",
"402 283 LINE SMOOTH",
"399 273 OFFCURVE",
"395 273 OFFCURVE",
"392 282 CURVE SMOOTH",
"258 721 LINE SMOOTH",
"254 734 OFFCURVE",
"245 742 OFFCURVE",
"233 742 CURVE SMOOTH",
"40 742 LINE SMOOTH",
"24 742 OFFCURVE",
"15 728 OFFCURVE",
"21 713 CURVE SMOOTH",
"253 25 LINE SMOOTH",
"258 8 OFFCURVE",
"270 0 OFFCURVE",
"290 0 CURVE SMOOTH",
"452 0 LINE SMOOTH",
"472 0 OFFCURVE",
"484 8 OFFCURVE",
"489 25 CURVE SMOOTH",
"721 713 LINE SMOOTH",
"726 728 OFFCURVE",
"718 742 OFFCURVE",
"702 742 CURVE SMOOTH"
);
}
);
};
guideLines = (
{
angle = -108.62;
position = "{372, 211}";
}
);
layerId = "258ED206-D907-4350-8EBA-CBDDA1C16BF7";
paths = (
{
closed = 1;
nodes = (
"420 0 LINE",
"773 723 LINE",
"590 723 LINE",
"349 228 LINE",
"257 723 LINE",
"75 723 LINE",
"208 0 LINE"
);
}
);
width = 718;
},
{
background = {
paths = (
{
closed = 1;
nodes = (
"563 742 LINE SMOOTH",
"557 742 OFFCURVE",
"554 740 OFFCURVE",
"552 735 CURVE SMOOTH",
"308 65 LINE SMOOTH",
"303 51 OFFCURVE",
"297 51 OFFCURVE",
"292 64 CURVE SMOOTH",
"55 734 LINE SMOOTH",
"53 740 OFFCURVE",
"50 742 OFFCURVE",
"42 742 CURVE SMOOTH",
"19 742 LINE SMOOTH",
"12 742 OFFCURVE",
"9 738 OFFCURVE",
"11 732 CURVE SMOOTH",
"266 10 LINE SMOOTH",
"268 3 OFFCURVE",
"274 0 OFFCURVE",
"285 0 CURVE SMOOTH",
"317 0 LINE SMOOTH",
"326 0 OFFCURVE",
"330 3 OFFCURVE",
"333 11 CURVE SMOOTH",
"595 733 LINE SMOOTH",
"597 738 OFFCURVE",
"594 742 OFFCURVE",
"588 742 CURVE SMOOTH"
);
}
);
};
layerId = "91AB5BCA-6A50-42DA-B2F7-8181BF189245";
paths = (
{
closed = 1;
nodes = (
"267 0 LINE",
"610 723 LINE",
"571 723 LINE",
"246 41 LINE",
"119 723 LINE",
"80 723 LINE",
"214 0 LINE"
);
}
);
width = 560;
}
);
leftKerningGroup = V;
rightKerningGroup = V;
unicode = 0056;
},
{
glyphname = W;
lastChange = "2019-04-16 04:59:24 +0000";
layers = (
{
anchors = (
{
name = top;
position = "{553, 723}";
}
);
background = {
anchors = (
{
name = top;
position = "{526, 742}";
}
);
paths = (
{
closed = 1;
nodes = (
"906 742 LINE SMOOTH",
"885 742 OFFCURVE",
"877 734 OFFCURVE",
"874 721 CURVE SMOOTH",
"772 339 LINE SMOOTH",
"770 331 OFFCURVE",
"763 333 OFFCURVE",
"761 341 CURVE SMOOTH",
"651 721 LINE SMOOTH",
"647 734 OFFCURVE",
"640 742 OFFCURVE",
"619 742 CURVE SMOOTH",
"479 742 LINE SMOOTH",
"458 742 OFFCURVE",
"450 734 OFFCURVE",
"447 721 CURVE SMOOTH",
"342 346 LINE SMOOTH",
"339 335 OFFCURVE",
"334 335 OFFCURVE",
"330 350 CURVE SMOOTH",
"224 721 LINE SMOOTH",
"220 734 OFFCURVE",
"213 742 OFFCURVE",
"192 742 CURVE SMOOTH",
"27 742 LINE SMOOTH",
"1 742 OFFCURVE",
"-9 725 OFFCURVE",
"-3 702 CURVE SMOOTH",
"201 25 LINE SMOOTH",
"207 8 OFFCURVE",
"217 0 OFFCURVE",
"237 0 CURVE SMOOTH",
"380 0 LINE SMOOTH",
"401 0 OFFCURVE",
"411 8 OFFCURVE",
"416 25 CURVE SMOOTH",
"519 375 LINE SMOOTH",
"526 395 OFFCURVE",
"531 393 OFFCURVE",
"535 377 CURVE SMOOTH",
"639 25 LINE SMOOTH",
"644 8 OFFCURVE",
"655 0 OFFCURVE",
"675 0 CURVE SMOOTH",
"813 0 LINE SMOOTH",
"833 0 OFFCURVE",
"843 8 OFFCURVE",
"849 25 CURVE SMOOTH",
"1052 702 LINE SMOOTH",
"1058 725 OFFCURVE",
"1048 742 OFFCURVE",
"1022 742 CURVE SMOOTH"
);
}
);
};
guideLines = (
{
angle = -73.94;
position = "{225, 670}";
},
{
angle = 74.3834;
position = "{428, 670}";
}
);
layerId = "258ED206-D907-4350-8EBA-CBDDA1C16BF7";
paths = (
{
closed = 1;
nodes = (
"329 0 LINE",
"503 393 LINE",
"557 0 LINE",
"701 0 LINE",
"1026 723 LINE",
"839 723 LINE",
"673 335 LINE",
"620 723 LINE",
"485 723 LINE",
"319 335 LINE",
"267 723 LINE",
"80 723 LINE",
"187 0 LINE"
);
}
);
width = 976;
},
{
anchors = (
{
name = top;
position = "{501, 723}";
}
);
background = {
anchors = (
{
name = top;
position = "{469, 742}";
}
);
guideLines = (
{
position = "{3, 125}";
showMeasurement = 1;
}
);
paths = (
{
closed = 1;
nodes = (
"891 742 LINE SMOOTH",
"885 742 OFFCURVE",
"880 740 OFFCURVE",
"879 735 CURVE SMOOTH",
"690 72 LINE SMOOTH",
"686 58 OFFCURVE",
"682 58 OFFCURVE",
"678 71 CURVE SMOOTH",
"493 734 LINE SMOOTH",
"491 740 OFFCURVE",
"489 742 OFFCURVE",
"481 742 CURVE SMOOTH",
"456 742 LINE SMOOTH",
"447 742 OFFCURVE",
"444 738 OFFCURVE",
"443 735 CURVE SMOOTH",
"254 72 LINE SMOOTH",
"250 58 OFFCURVE",
"246 58 OFFCURVE",
"242 71 CURVE SMOOTH",
"57 734 LINE SMOOTH",
"55 740 OFFCURVE",
"53 742 OFFCURVE",
"45 742 CURVE SMOOTH",
"20 742 LINE SMOOTH",
"13 742 OFFCURVE",
"10 738 OFFCURVE",
"12 732 CURVE SMOOTH",
"214 10 LINE SMOOTH",
"216 3 OFFCURVE",
"222 0 OFFCURVE",
"232 0 CURVE SMOOTH",
"264 0 LINE SMOOTH",
"274 0 OFFCURVE",
"278 3 OFFCURVE",
"280 11 CURVE SMOOTH",
"465 658 LINE SMOOTH",
"466 662 OFFCURVE",
"468 662 OFFCURVE",
"469 658 CURVE SMOOTH",
"650 10 LINE SMOOTH",
"652 3 OFFCURVE",
"658 0 OFFCURVE",
"668 0 CURVE SMOOTH",
"700 0 LINE SMOOTH",
"710 0 OFFCURVE",
"714 3 OFFCURVE",
"716 11 CURVE SMOOTH",
"923 733 LINE SMOOTH",
"924 738 OFFCURVE",
"922 742 OFFCURVE",
"916 742 CURVE SMOOTH"
);
}
);
};
guideLines = (
{
position = "{76, 116}";
showMeasurement = 1;
}
);
layerId = "91AB5BCA-6A50-42DA-B2F7-8181BF189245";
paths = (
{
closed = 1;
nodes = (
"228 0 LINE",
"489 648 LINE",
"565 0 LINE",
"615 0 LINE",
"908 723 LINE",
"869 723 LINE",
"598 49 LINE",
"518 723 LINE",
"482 723 LINE",
"211 49 LINE",
"136 723 LINE",
"95 723 LINE",
"180 0 LINE"
);
}
);
width = 873;
}
);
leftKerningGroup = W;
rightKerningGroup = W;
unicode = 0057;
},
{
glyphname = X;
lastChange = "2019-04-16 04:59:24 +0000";
layers = (
{
background = {
paths = (
{
closed = 1;
nodes = (
"503 403 LINE",
"725 742 LINE",
"508 742 LINE",
"394 541 LINE",
"280 742 LINE",
"25 742 LINE",
"261 374 LINE",
"52 51 LINE SMOOTH",
"26 11 OFFCURVE",
"37 0 OFFCURVE",
"65 0 CURVE SMOOTH",
"239 0 LINE",
"372 233 LINE",
"508 0 LINE",
"718 0 LINE SMOOTH",
"746 0 OFFCURVE",
"757 12 OFFCURVE",
"732 51 CURVE SMOOTH"
);
}
);
};
layerId = "258ED206-D907-4350-8EBA-CBDDA1C16BF7";
paths = (
{
closed = 1;
nodes = (
"185 0 LINE",
"348 227 LINE",
"446 0 LINE",
"687 0 LINE",
"494 393 LINE",
"758 723 LINE",
"556 723 LINE",
"416 527 LINE",
"334 723 LINE",
"95 723 LINE",
"269 365 LINE",
"-21 0 LINE"
);
}
);
width = 738;
},
{
background = {
guideLines = (
{
angle = 90;
position = "{37, 437}";
},
{
angle = 90;
position = "{548, 372}";
},
{
position = "{3, 716}";
showMeasurement = 1;
},
{
position = "{-3, 32}";
showMeasurement = 1;
},
{
position = "{67, 454}";
showMeasurement = 1;
},
{
position = "{65, 290}";
showMeasurement = 1;
},
{
angle = 236.602;
position = "{280, 374}";
},
{
angle = 123.344;
position = "{337, 374}";
},
{
angle = 56.5817;
position = "{325, 370}";
},
{
angle = 123.4;
position = "{290, 370}";
}
);
paths = (
{
closed = 1;
nodes = (
"339 374 LINE SMOOTH",
"335 380 OFFCURVE",
"336 384 OFFCURVE",
"340 390 CURVE SMOOTH",
"574 736 LINE SMOOTH",
"576 739 OFFCURVE",
"576 742 OFFCURVE",
"572 742 CURVE SMOOTH",
"531 742 LINE SMOOTH",
"527 742 OFFCURVE",
"525 741 OFFCURVE",
"523 738 CURVE SMOOTH",
"316 431 LINE SMOOTH",
"309 421 OFFCURVE",
"305 422 OFFCURVE",
"299 430 CURVE SMOOTH",
"92 738 LINE SMOOTH",
"90 741 OFFCURVE",
"89 742 OFFCURVE",
"83 742 CURVE SMOOTH",
"44 742 LINE SMOOTH",
"40 742 OFFCURVE",
"39 737 OFFCURVE",
"41 734 CURVE SMOOTH",
"273 391 LINE SMOOTH",
"278 383 OFFCURVE",
"279 377 OFFCURVE",
"274 370 CURVE SMOOTH",
"32 10 LINE SMOOTH",
"27 2 OFFCURVE",
"29 0 OFFCURVE",
"35 0 CURVE SMOOTH",
"71 0 LINE SMOOTH",
"74 0 OFFCURVE",
"77 1 OFFCURVE",
"79 4 CURVE SMOOTH",
"296 324 LINE SMOOTH",
"306 339 OFFCURVE",
"310 338 OFFCURVE",
"317 327 CURVE SMOOTH",
"537 4 LINE SMOOTH",
"539 1 OFFCURVE",
"540 0 OFFCURVE",
"544 0 CURVE SMOOTH",
"580 0 LINE SMOOTH",
"586 0 OFFCURVE",
"590 2 OFFCURVE",
"584 10 CURVE SMOOTH"
);
}
);
};
guideLines = (
{
angle = 90;
position = "{108, 405}";
},
{
angle = 90;
position = "{558, 345}";
},
{
position = "{78, 664}";
showMeasurement = 1;
},
{
position = "{73, 29}";
showMeasurement = 1;
},
{
position = "{134, 421}";
showMeasurement = 1;
},
{
position = "{132, 269}";
showMeasurement = 1;
},
{
angle = 236.602;
position = "{322, 347}";
},
{
angle = 123.344;
position = "{371, 347}";
},
{
angle = 56.5817;
position = "{362, 343}";
},
{
angle = 123.4;
position = "{330, 343}";
}
);
layerId = "91AB5BCA-6A50-42DA-B2F7-8181BF189245";
paths = (
{
closed = 1;
nodes = (
"40 0 LINE",
"295 332 LINE",
"456 0 LINE",
"502 0 LINE",
"323 371 LINE",
"592 723 LINE",
"546 723 LINE",
"305 408 LINE",
"154 723 LINE",
"106 723 LINE",
"276 371 LINE",
"-6 0 LINE"
);
}
);
width = 568;
}
);
leftKerningGroup = X;
rightKerningGroup = X;
unicode = 0058;
},
{
glyphname = Y;
lastChange = "2019-04-16 04:59:24 +0000";
layers = (
{
anchors = (
{
name = bottom;
position = "{311, 0}";
},
{
name = top;
position = "{412, 723}";
}
);
background = {
anchors = (
{
name = top;
position = "{394, 742}";
}
);
paths = (
{
closed = 1;
nodes = (
"567 742 LINE SMOOTH",
"548 742 OFFCURVE",
"541 738 OFFCURVE",
"533 721 CURVE SMOOTH",
"412 498 LINE SMOOTH",
"405 486 OFFCURVE",
"401 487 OFFCURVE",
"395 499 CURVE SMOOTH",
"272 721 LINE SMOOTH",
"263 737 OFFCURVE",
"258 742 OFFCURVE",
"238 742 CURVE SMOOTH",
"37 742 LINE SMOOTH",
"16 742 OFFCURVE",
"9 730 OFFCURVE",
"19 714 CURVE SMOOTH",
"253 332 LINE SMOOTH",
"262 317 OFFCURVE",
"267 309 OFFCURVE",
"267 288 CURVE SMOOTH",
"267 25 LINE SMOOTH",
"267 8 OFFCURVE",
"273 0 OFFCURVE",
"293 0 CURVE SMOOTH",
"461 0 LINE SMOOTH",
"484 0 OFFCURVE",
"494 8 OFFCURVE",
"494 29 CURVE SMOOTH",
"494 275 LINE SMOOTH",
"494 317 OFFCURVE",
"495 327 OFFCURVE",
"504 341 CURVE SMOOTH",
"738 719 LINE SMOOTH",
"746 732 OFFCURVE",
"741 742 OFFCURVE",
"724 742 CURVE SMOOTH"
);
}
);
};
guideLines = (
{
angle = 58.823;
position = "{500, 670}";
}
);
layerId = "258ED206-D907-4350-8EBA-CBDDA1C16BF7";
paths = (
{
closed = 1;
nodes = (
"407 0 LINE",
"453 301 LINE",
"773 723 LINE",
"562 723 LINE",
"382 466 LINE",
"279 723 LINE",
"70 723 LINE",
"259 301 LINE",
"214 0 LINE"
);
}
);
width = 713;
},
{
anchors = (
{
name = bottom;
position = "{214, 0}";
},
{
name = top;
position = "{314, 725}";
}
);
background = {
anchors = (
{
name = top;
position = "{267, 742}";
}
);
paths = (
{
closed = 1;
nodes = (
"509 742 LINE SMOOTH",
"500 742 OFFCURVE",
"498 741 OFFCURVE",
"493 733 CURVE SMOOTH",
"284 374 LINE SMOOTH",
"276 361 OFFCURVE",
"269 360 OFFCURVE",
"260 376 CURVE SMOOTH",
"50 733 LINE SMOOTH",
"46 740 OFFCURVE",
"43 742 OFFCURVE",
"34 742 CURVE SMOOTH",
"11 742 LINE SMOOTH",
"1 742 OFFCURVE",
"-1 737 OFFCURVE",
"3 730 CURVE SMOOTH",
"247 315 LINE SMOOTH",
"251 308 OFFCURVE",
"252 305 OFFCURVE",
"252 295 CURVE SMOOTH",
"252 11 LINE SMOOTH",
"252 4 OFFCURVE",
"255 0 OFFCURVE",
"264 0 CURVE SMOOTH",
"283 0 LINE SMOOTH",
"294 0 OFFCURVE",
"298 4 OFFCURVE",
"298 13 CURVE SMOOTH",
"298 306 LINE SMOOTH",
"298 316 OFFCURVE",
"298 320 OFFCURVE",
"302 326 CURVE SMOOTH",
"541 731 LINE SMOOTH",
"545 737 OFFCURVE",
"542 742 OFFCURVE",
"535 742 CURVE SMOOTH"
);
}
);
};
guideLines = (
{
angle = 239.8907;
position = "{222, 335}";
},
{
angle = -59.5603;
position = "{187, 328}";
}
);
layerId = "91AB5BCA-6A50-42DA-B2F7-8181BF189245";
paths = (
{
closed = 1;
nodes = (
"231 0 LINE",
"275 311 LINE",
"552 723 LINE",
"512 723 LINE",
"263 351 LINE",
"115 723 LINE",
"75 723 LINE",
"239 312 LINE",
"196 0 LINE"
);
}
);
width = 497;
}
);
leftKerningGroup = Y;
rightKerningGroup = Y;
unicode = 0059;
},
{
glyphname = Z;
lastChange = "2019-04-16 04:59:24 +0000";
layers = (
{
anchors = (
{
name = bottom;
position = "{320, 0}";
},
{
name = top;
position = "{453, 723}";
}
);
background = {
anchors = (
{
name = bottom;
position = "{373, 0}";
},
{
name = top;
position = "{397, 742}";
}
);
paths = (
{
closed = 1;
nodes = (
"703 0 LINE",
"703 166 LINE",
"362 166 LINE",
"709 654 LINE",
"709 742 LINE",
"85 742 LINE",
"85 577 LINE",
"392 577 LINE",
"52 91 LINE",
"52 0 LINE"
);
}
);
};
layerId = "258ED206-D907-4350-8EBA-CBDDA1C16BF7";
paths = (
{
closed = 1;
nodes = (
"620 0 LINE",
"645 162 LINE",
"305 162 LINE",
"723 638 LINE",
"736 723 LINE",
"151 723 LINE",
"126 563 LINE",
"433 563 LINE",
"23 89 LINE",
"9 0 LINE"
);
}
);
width = 711;
},
{
anchors = (
{
name = bottom;
position = "{249, 0}";
},
{
name = top;
position = "{344, 723}";
}
);
background = {
anchors = (
{
name = bottom;
position = "{310, 0}";
},
{
name = top;
position = "{303, 742}";
}
);
paths = (
{
closed = 1;
nodes = (
"542 0 LINE",
"542 40 LINE",
"108 40 LINE",
"542 715 LINE",
"542 742 LINE",
"63 742 LINE",
"63 702 LINE",
"484 702 LINE",
"53 28 LINE",
"53 0 LINE"
);
}
);
};
guideLines = (
{
angle = 237.1304;
position = "{458, 659}";
}
);
layerId = "91AB5BCA-6A50-42DA-B2F7-8181BF189245";
paths = (
{
closed = 1;
nodes = (
"457 0 LINE",
"463 39 LINE",
"70 39 LINE",
"555 693 LINE",
"559 723 LINE",
"129 723 LINE",
"124 684 LINE",
"506 684 LINE",
"24 31 LINE",
"19 0 LINE"
);
}
);
width = 549;
}
);
leftKerningGroup = Z;
rightKerningGroup = Z;
unicode = 005A;
},
{
glyphname = a;
lastChange = "2019-04-16 04:59:24 +0000";
layers = (
{
anchors = (
{
name = bottom;
position = "{251, 0}";
},
{
name = ogonek;
position = "{458, 10}";
},
{
name = top;
position = "{330, 517}";
}
);
background = {
anchors = (
{
name = ogonek;
position = "{491, 10}";
},
{
name = top;
position = "{279, 530}";
}
);
guideLines = (
{
angle = 90;
position = "{329, 102}";
}
);
paths = (
{
closed = 1;
nodes = (
"322 56 OFFCURVE",
"330 55 OFFCURVE",
"332 42 CURVE SMOOTH",
"333 35 LINE SMOOTH",
"336 16 OFFCURVE",
"341 0 OFFCURVE",
"359 0 CURVE SMOOTH",
"496 0 LINE SMOOTH",
"515 0 OFFCURVE",
"519 7 OFFCURVE",
"519 27 CURVE SMOOTH",
"519 375 LINE SMOOTH",
"519 473 OFFCURVE",
"464 540 OFFCURVE",
"279 540 CURVE SMOOTH",
"148 540 OFFCURVE",
"57 506 OFFCURVE",
"27 421 CURVE SMOOTH",
"18 396 OFFCURVE",
"24 391 OFFCURVE",
"34 389 CURVE SMOOTH",
"165 363 LINE SMOOTH",
"183 360 OFFCURVE",
"187 363 OFFCURVE",
"192 374 CURVE SMOOTH",
"209 411 OFFCURVE",
"242 421 OFFCURVE",
"270 421 CURVE SMOOTH",
"310 421 OFFCURVE",
"329 400 OFFCURVE",
"329 363 CURVE SMOOTH",
"329 346 LINE SMOOTH",
"329 334 OFFCURVE",
"319 332 OFFCURVE",
"314 332 CURVE SMOOTH",
"307 332 LINE SMOOTH",
"118 332 OFFCURVE",
"0 253 OFFCURVE",
"0 136 CURVE SMOOTH",
"0 53 OFFCURVE",
"60 -10 OFFCURVE",
"160 -10 CURVE SMOOTH",
"222 -10 OFFCURVE",
"269 12 OFFCURVE",
"305 42 CURVE SMOOTH"
);
},
{
closed = 1;
nodes = (
"329 171 LINE SMOOTH",
"329 156 OFFCURVE",
"318 145 OFFCURVE",
"306 135 CURVE SMOOTH",
"295 126 OFFCURVE",
"277 116 OFFCURVE",
"251 116 CURVE SMOOTH",
"215 116 OFFCURVE",
"194 135 OFFCURVE",
"194 163 CURVE SMOOTH",
"194 219 OFFCURVE",
"278 242 OFFCURVE",
"310 242 CURVE SMOOTH",
"314 242 LINE SMOOTH",
"326 242 OFFCURVE",
"329 236 OFFCURVE",
"329 224 CURVE SMOOTH"
);
}
);
};
guideLines = (
{
angle = 270;
position = "{326, 93}";
},
{
angle = 270;
position = "{291, 516}";
}
);
layerId = "258ED206-D907-4350-8EBA-CBDDA1C16BF7";
paths = (
{
closed = 1;
nodes = (
"232 -10 OFFCURVE",
"278 12 OFFCURVE",
"320 82 CURVE",
"324 0 LINE",
"484 0 LINE",
"540 366 LINE SMOOTH",
"554 461 OFFCURVE",
"510 527 OFFCURVE",
"332 527 CURVE SMOOTH",
"199 527 OFFCURVE",
"85 478 OFFCURVE",
"60 356 CURVE",
"217 356 LINE",
"238 391 OFFCURVE",
"277 400 OFFCURVE",
"304 401 CURVE SMOOTH",
"342 402 OFFCURVE",
"358 387 OFFCURVE",
"353 354 CURVE SMOOTH",
"350 332 LINE",
"310 332 LINE SMOOTH",
"123 332 OFFCURVE",
"27 267 OFFCURVE",
"10 155 CURVE SMOOTH",
"-6 48 OFFCURVE",
"65 -10 OFFCURVE",
"163 -10 CURVE SMOOTH"
);
},
{
closed = 1;
nodes = (
"216 113 OFFCURVE",
"189 136 OFFCURVE",
"195 175 CURVE SMOOTH",
"202 226 OFFCURVE",
"274 240 OFFCURVE",
"305 240 CURVE SMOOTH",
"336 240 LINE",
"326 175 LINE",
"320 142 OFFCURVE",
"287 113 OFFCURVE",
"249 113 CURVE SMOOTH"
);
}
);
width = 571;
},
{
anchors = (
{
name = bottom;
position = "{215, 0}";
},
{
name = ogonek;
position = "{382, 14}";
},
{
name = top;
position = "{287, 517}";
}
);
background = {
anchors = (
{
name = ogonek;
position = "{445, 14}";
},
{
name = top;
position = "{260, 530}";
}
);
paths = (
{
closed = 1;
nodes = (
"407 78 OFFCURVE",
"411 77 OFFCURVE",
"412 70 CURVE SMOOTH",
"414 9 LINE SMOOTH",
"414 2 OFFCURVE",
"417 0 OFFCURVE",
"423 0 CURVE SMOOTH",
"441 0 LINE SMOOTH",
"447 0 OFFCURVE",
"451 2 OFFCURVE",
"451 10 CURVE SMOOTH",
"451 367 LINE SMOOTH",
"451 475 OFFCURVE",
"377 540 OFFCURVE",
"264 540 CURVE SMOOTH",
"169 540 OFFCURVE",
"102 493 OFFCURVE",
"60 431 CURVE SMOOTH",
"56 426 OFFCURVE",
"57 423 OFFCURVE",
"60 421 CURVE SMOOTH",
"84 406 LINE SMOOTH",
"88 403 OFFCURVE",
"90 405 OFFCURVE",
"94 410 CURVE SMOOTH",
"139 470 OFFCURVE",
"193 502 OFFCURVE",
"262 502 CURVE SMOOTH",
"352 502 OFFCURVE",
"411 448 OFFCURVE",
"411 363 CURVE SMOOTH",
"411 332 LINE SMOOTH",
"411 323 OFFCURVE",
"405 318 OFFCURVE",
"394 317 CURVE SMOOTH",
"289 308 LINE SMOOTH",
"125 294 OFFCURVE",
"42 236 OFFCURVE",
"42 135 CURVE SMOOTH",
"42 45 OFFCURVE",
"107 -10 OFFCURVE",
"212 -10 CURVE SMOOTH",
"286 -10 OFFCURVE",
"347 17 OFFCURVE",
"402 72 CURVE SMOOTH"
);
},
{
closed = 1;
nodes = (
"411 171 LINE SMOOTH",
"411 141 OFFCURVE",
"391 107 OFFCURVE",
"354 77 CURVE SMOOTH",
"316 47 OFFCURVE",
"267 28 OFFCURVE",
"218 28 CURVE SMOOTH",
"137 28 OFFCURVE",
"84 69 OFFCURVE",
"84 138 CURVE SMOOTH",
"84 215 OFFCURVE",
"151 261 OFFCURVE",
"308 273 CURVE SMOOTH",
"397 280 LINE SMOOTH",
"406 281 OFFCURVE",
"411 277 OFFCURVE",
"411 266 CURVE SMOOTH"
);
}
);
};
guideLines = (
{
position = "{352, 208}";
showMeasurement = 1;
}
);
hints = (
{
horizontal = 1;
place = "{3509, 151}";
type = Stem;
}
);
layerId = "91AB5BCA-6A50-42DA-B2F7-8181BF189245";
paths = (
{
closed = 1;
nodes = (
"240 -10 OFFCURVE",
"311 14 OFFCURVE",
"365 100 CURVE",
"353 0 LINE",
"386 0 LINE",
"436 358 LINE SMOOTH",
"451 463 OFFCURVE",
"389 527 OFFCURVE",
"288 527 CURVE SMOOTH",
"177 527 OFFCURVE",
"106 452 OFFCURVE",
"91 379 CURVE",
"130 379 LINE",
"150 450 OFFCURVE",
"212 489 OFFCURVE",
"281 489 CURVE SMOOTH",
"362 489 OFFCURVE",
"412 440 OFFCURVE",
"400 357 CURVE SMOOTH",
"393 307 LINE",
"283 303 LINE SMOOTH",
"124 297 OFFCURVE",
"53 248 OFFCURVE",
"37 132 CURVE SMOOTH",
"25 44 OFFCURVE",
"76 -10 OFFCURVE",
"170 -10 CURVE SMOOTH"
);
},
{
closed = 1;
nodes = (
"108 27 OFFCURVE",
"66 67 OFFCURVE",
"75 135 CURVE SMOOTH",
"88 225 OFFCURVE",
"143 263 OFFCURVE",
"295 266 CURVE SMOOTH",
"387 268 LINE",
"373 167 LINE SMOOTH",
"363 97 OFFCURVE",
"260 27 OFFCURVE",
"181 27 CURVE SMOOTH"
);
}
);
width = 502;
}
);
leftKerningGroup = a;
rightKerningGroup = n;
unicode = 0061;
},
{
glyphname = ae;
lastChange = "2019-04-16 04:59:24 +0000";
layers = (
{
anchors = (
{
name = top;
position = "{490, 517}";
}
);
background = {
anchors = (
{
name = top;
position = "{443, 530}";
}
);
paths = (
{
closed = 1;
nodes = (
"865 229 LINE SMOOTH",
"882 230 OFFCURVE",
"883 237 OFFCURVE",
"883 254 CURVE SMOOTH",
"883 435 OFFCURVE",
"768 540 OFFCURVE",
"611 540 CURVE SMOOTH",
"559 540 OFFCURVE",
"509 526 OFFCURVE",
"466 500 CURVE",
"428 525 OFFCURVE",
"369 539 OFFCURVE",
"280 540 CURVE SMOOTH",
"127 540 OFFCURVE",
"70 499 OFFCURVE",
"32 421 CURVE SMOOTH",
"27 410 OFFCURVE",
"30 391 OFFCURVE",
"39 389 CURVE SMOOTH",
"170 363 LINE SMOOTH",
"188 360 OFFCURVE",
"192 361 OFFCURVE",
"197 374 CURVE",
"214 411 OFFCURVE",
"247 421 OFFCURVE",
"275 421 CURVE SMOOTH",
"315 421 OFFCURVE",
"334 400 OFFCURVE",
"334 363 CURVE SMOOTH",
"334 346 LINE SMOOTH",
"334 334 OFFCURVE",
"324 332 OFFCURVE",
"316 332 CURVE",
"293 331 LINE SMOOTH",
"101 322 OFFCURVE",
"5 250 OFFCURVE",
"5 143 CURVE SMOOTH",
"5 52 OFFCURVE",
"65 -10 OFFCURVE",
"178 -10 CURVE SMOOTH",
"270 -10 OFFCURVE",
"335 12 OFFCURVE",
"396 71 CURVE SMOOTH",
"400 75 OFFCURVE",
"403 75 OFFCURVE",
"407 71 CURVE SMOOTH",
"457 20 OFFCURVE",
"531 -10 OFFCURVE",
"615 -10 CURVE SMOOTH",
"727 -10 OFFCURVE",
"795 17 OFFCURVE",
"867 118 CURVE",
"876 129 OFFCURVE",
"873 138 OFFCURVE",
"863 142 CURVE SMOOTH",
"772 179 LINE SMOOTH",
"759 184 OFFCURVE",
"756 183 OFFCURVE",
"751 178 CURVE SMOOTH",
"707 135 OFFCURVE",
"676 122 OFFCURVE",
"642 122 CURVE SMOOTH",
"584 122 OFFCURVE",
"539 151 OFFCURVE",
"539 212 CURVE SMOOTH",
"539 224 OFFCURVE",
"544 229 OFFCURVE",
"554 229 CURVE SMOOTH"
);
},
{
closed = 1;
nodes = (
"670 423 OFFCURVE",
"689 372 OFFCURVE",
"689 346 CURVE SMOOTH",
"689 334 OFFCURVE",
"685 332 OFFCURVE",
"672 332 CURVE SMOOTH",
"542 333 LINE",
"541 395 OFFCURVE",
"579 423 OFFCURVE",
"620 423 CURVE SMOOTH"
);
},
{
closed = 1;
nodes = (
"334 160 LINE SMOOTH",
"334 127 OFFCURVE",
"297 108 OFFCURVE",
"259 108 CURVE SMOOTH",
"220 108 OFFCURVE",
"199 127 OFFCURVE",
"199 156 CURVE SMOOTH",
"199 205 OFFCURVE",
"264 230 OFFCURVE",
"302 233 CURVE SMOOTH",
"316 234 LINE SMOOTH",
"328 234 OFFCURVE",
"334 228 OFFCURVE",
"334 216 CURVE SMOOTH"
);
}
);
};
layerId = "258ED206-D907-4350-8EBA-CBDDA1C16BF7";
paths = (
{
closed = 1;
nodes = (
"243 -10 OFFCURVE",
"309 12 OFFCURVE",
"377 69 CURVE SMOOTH",
"381 73 OFFCURVE",
"384 73 OFFCURVE",
"387 69 CURVE SMOOTH",
"428 20 OFFCURVE",
"495 -10 OFFCURVE",
"577 -10 CURVE SMOOTH",
"690 -10 OFFCURVE",
"764 20 OFFCURVE",
"855 132 CURVE",
"745 180 LINE",
"692 134 OFFCURVE",
"658 119 OFFCURVE",
"622 119 CURVE SMOOTH",
"567 119 OFFCURVE",
"528 152 OFFCURVE",
"539 223 CURVE",
"872 223 LINE",
"901 415 OFFCURVE",
"806 527 OFFCURVE",
"654 527 CURVE SMOOTH",
"605 527 OFFCURVE",
"554 513 OFFCURVE",
"508 488 CURVE",
"475 512 OFFCURVE",
"420 526 OFFCURVE",
"334 527 CURVE SMOOTH",
"179 527 OFFCURVE",
"111 477 OFFCURVE",
"58 383 CURVE",
"220 350 LINE",
"245 398 OFFCURVE",
"282 410 OFFCURVE",
"312 410 CURVE SMOOTH",
"351 410 OFFCURVE",
"365 390 OFFCURVE",
"360 354 CURVE SMOOTH",
"356 325 LINE",
"315 323 LINE SMOOTH",
"128 314 OFFCURVE",
"24 244 OFFCURVE",
"8 139 CURVE SMOOTH",
"-5 51 OFFCURVE",
"44 -10 OFFCURVE",
"154 -10 CURVE SMOOTH"
);
},
{
closed = 1;
nodes = (
"212 105 OFFCURVE",
"195 124 OFFCURVE",
"199 152 CURVE SMOOTH",
"206 200 OFFCURVE",
"273 224 OFFCURVE",
"310 227 CURVE SMOOTH",
"341 229 LINE",
"330 156 LINE SMOOTH",
"325 124 OFFCURVE",
"286 105 OFFCURVE",
"250 105 CURVE SMOOTH"
);
},
{
closed = 1;
nodes = (
"557 325 LINE",
"565 385 OFFCURVE",
"606 412 OFFCURVE",
"646 412 CURVE SMOOTH",
"695 412 OFFCURVE",
"704 354 OFFCURVE",
"699 324 CURVE"
);
}
);
width = 902;
},
{
anchors = (
{
name = top;
position = "{454, 517}";
}
);
background = {
anchors = (
{
name = top;
position = "{430, 530}";
}
);
paths = (
{
closed = 1;
nodes = (
"840 254 LINE SMOOTH",
"854 254 OFFCURVE",
"858 261 OFFCURVE",
"858 274 CURVE SMOOTH",
"858 444 OFFCURVE",
"766 540 OFFCURVE",
"629 540 CURVE SMOOTH",
"535 540 OFFCURVE",
"463 500 OFFCURVE",
"423 421 CURVE",
"403 501 OFFCURVE",
"347 540 OFFCURVE",
"248 540 CURVE SMOOTH",
"163 540 OFFCURVE",
"86 500 OFFCURVE",
"43 431 CURVE SMOOTH",
"40 426 OFFCURVE",
"40 423 OFFCURVE",
"43 421 CURVE SMOOTH",
"65 406 LINE SMOOTH",
"69 403 OFFCURVE",
"71 404 OFFCURVE",
"76 410 CURVE SMOOTH",
"122 470 OFFCURVE",
"176 502 OFFCURVE",
"240 502 CURVE SMOOTH",
"340 502 OFFCURVE",
"394 448 OFFCURVE",
"394 363 CURVE SMOOTH",
"394 332 LINE SMOOTH",
"394 323 OFFCURVE",
"388 318 OFFCURVE",
"376 317 CURVE SMOOTH",
"264 308 LINE SMOOTH",
"101 294 OFFCURVE",
"25 234 OFFCURVE",
"25 136 CURVE SMOOTH",
"25 45 OFFCURVE",
"87 -10 OFFCURVE",
"191 -10 CURVE SMOOTH",
"322 -10 OFFCURVE",
"380 62 OFFCURVE",
"416 108 CURVE SMOOTH",
"418 111 OFFCURVE",
"419 111 OFFCURVE",
"421 108 CURVE SMOOTH",
"450 65 OFFCURVE",
"504 -10 OFFCURVE",
"626 -10 CURVE SMOOTH",
"723 -10 OFFCURVE",
"804 37 OFFCURVE",
"838 100 CURVE SMOOTH",
"841 106 OFFCURVE",
"840 108 OFFCURVE",
"837 110 CURVE SMOOTH",
"815 125 LINE SMOOTH",
"810 128 OFFCURVE",
"809 127 OFFCURVE",
"804 121 CURVE SMOOTH",
"775 81 OFFCURVE",
"732 28 OFFCURVE",
"628 28 CURVE SMOOTH",
"516 28 OFFCURVE",
"428 134 OFFCURVE",
"428 228 CURVE SMOOTH",
"428 249 OFFCURVE",
"431 253 OFFCURVE",
"448 253 CURVE SMOOTH"
);
},
{
closed = 1;
nodes = (
"736 502 OFFCURVE",
"815 414 OFFCURVE",
"815 306 CURVE SMOOTH",
"815 294 OFFCURVE",
"814 290 OFFCURVE",
"798 290 CURVE SMOOTH",
"430 291 LINE",
"431 418 OFFCURVE",
"516 502 OFFCURVE",
"626 502 CURVE SMOOTH"
);
},
{
closed = 1;
nodes = (
"394 177 LINE",
"394 99 OFFCURVE",
"308 34 OFFCURVE",
"201 29 CURVE SMOOTH",
"117 25 OFFCURVE",
"68 71 OFFCURVE",
"68 138 CURVE SMOOTH",
"68 215 OFFCURVE",
"134 260 OFFCURVE",
"284 272 CURVE SMOOTH",
"379 279 LINE SMOOTH",
"392 280 OFFCURVE",
"394 275 OFFCURVE",
"394 265 CURVE SMOOTH"
);
}
);
};
hints = (
{
horizontal = 1;
place = "{3526, 168}";
type = Stem;
}
);
layerId = "91AB5BCA-6A50-42DA-B2F7-8181BF189245";
paths = (
{
closed = 1;
nodes = (
"284 -10 OFFCURVE",
"346 60 OFFCURVE",
"384 105 CURVE SMOOTH",
"387 108 OFFCURVE",
"388 108 OFFCURVE",
"389 105 CURVE SMOOTH",
"409 63 OFFCURVE",
"446 -10 OFFCURVE",
"556 -10 CURVE SMOOTH",
"645 -10 OFFCURVE",
"726 39 OFFCURVE",
"766 104 CURVE",
"741 126 LINE",
"708 83 OFFCURVE",
"660 27 OFFCURVE",
"563 27 CURVE SMOOTH",
"463 27 OFFCURVE",
"400 143 OFFCURVE",
"414 247 CURVE",
"801 248 LINE",
"826 426 OFFCURVE",
"757 527 OFFCURVE",
"634 527 CURVE SMOOTH",
"550 527 OFFCURVE",
"481 488 OFFCURVE",
"434 410 CURVE",
"426 488 OFFCURVE",
"381 527 OFFCURVE",
"293 527 CURVE SMOOTH",
"215 527 OFFCURVE",
"139 485 OFFCURVE",
"89 413 CURVE",
"114 392 LINE",
"166 455 OFFCURVE",
"221 489 OFFCURVE",
"280 489 CURVE SMOOTH",
"370 489 OFFCURVE",
"411 437 OFFCURVE",
"399 354 CURVE SMOOTH",
"393 310 LINE",
"275 300 LINE SMOOTH",
"128 287 OFFCURVE",
"50 228 OFFCURVE",
"37 133 CURVE SMOOTH",
"24 44 OFFCURVE",
"73 -10 OFFCURVE",
"166 -10 CURVE SMOOTH"
);
},
{
closed = 1;
nodes = (
"104 24 OFFCURVE",
"67 69 OFFCURVE",
"76 135 CURVE SMOOTH",
"86 210 OFFCURVE",
"152 254 OFFCURVE",
"288 265 CURVE SMOOTH",
"388 273 LINE",
"374 173 LINE",
"363 97 OFFCURVE",
"277 33 OFFCURVE",
"180 28 CURVE SMOOTH"
);
},
{
closed = 1;
nodes = (
"422 284 LINE",
"440 408 OFFCURVE",
"528 489 OFFCURVE",
"626 489 CURVE SMOOTH",
"725 489 OFFCURVE",
"783 397 OFFCURVE",
"767 283 CURVE"
);
}
);
width = 857;
}
);
leftKerningGroup = a;
leftMetricsKey = a;
rightKerningGroup = e;
rightMetricsKey = e;
unicode = 00E6;
},
{
glyphname = b;
lastChange = "2019-04-16 04:59:04 +0000";
layers = (
{
background = {
paths = (
{
closed = 1;
nodes = (
"174 0 OFFCURVE",
"182 7 OFFCURVE",
"187 23 CURVE SMOOTH",
"203 70 LINE SMOOTH",
"206 78 OFFCURVE",
"210 79 OFFCURVE",
"216 73 CURVE SMOOTH",
"255 22 OFFCURVE",
"309 -10 OFFCURVE",
"372 -10 CURVE SMOOTH",
"518 -10 OFFCURVE",
"599 99 OFFCURVE",
"599 269 CURVE SMOOTH",
"599 436 OFFCURVE",
"523 540 OFFCURVE",
"393 540 CURVE SMOOTH",
"348 540 OFFCURVE",
"307 527 OFFCURVE",
"266 488 CURVE SMOOTH",
"256 480 OFFCURVE",
"247 480 OFFCURVE",
"247 496 CURVE SMOOTH",
"247 721 LINE SMOOTH",
"247 734 OFFCURVE",
"241 742 OFFCURVE",
"229 742 CURVE SMOOTH",
"66 742 LINE SMOOTH",
"55 742 OFFCURVE",
"47 734 OFFCURVE",
"47 719 CURVE SMOOTH",
"47 25 LINE SMOOTH",
"47 8 OFFCURVE",
"53 0 OFFCURVE",
"74 0 CURVE SMOOTH",
"161 0 LINE SMOOTH"
);
},
{
closed = 1;
nodes = (
"267 403 OFFCURVE",
"290 418 OFFCURVE",
"321 418 CURVE SMOOTH",
"370 418 OFFCURVE",
"397 381 OFFCURVE",
"397 265 CURVE SMOOTH",
"397 148 OFFCURVE",
"370 107 OFFCURVE",
"318 107 CURVE SMOOTH",
"276 107 OFFCURVE",
"247 135 OFFCURVE",
"247 185 CURVE SMOOTH",
"247 378 LINE"
);
}
);
};
layerId = "258ED206-D907-4350-8EBA-CBDDA1C16BF7";
paths = (
{
closed = 1;
nodes = (
"468 -10 OFFCURVE",
"563 97 OFFCURVE",
"588 262 CURVE SMOOTH",
"613 425 OFFCURVE",
"555 527 OFFCURVE",
"428 527 CURVE SMOOTH",
"378 527 OFFCURVE",
"318 502 OFFCURVE",
"274 439 CURVE",
"320 743 LINE",
"126 743 LINE",
"14 0 LINE",
"150 0 LINE",
"180 72 LINE",
"200 16 OFFCURVE",
"262 -10 OFFCURVE",
"326 -10 CURVE SMOOTH"
);
},
{
closed = 1;
nodes = (
"252 126 OFFCURVE",
"233 168 OFFCURVE",
"247 264 CURVE",
"247 264 LINE",
"261 353 OFFCURVE",
"294 390 OFFCURVE",
"338 390 CURVE SMOOTH",
"378 390 OFFCURVE",
"408 368 OFFCURVE",
"392 264 CURVE SMOOTH",
"377 160 OFFCURVE",
"341 126 OFFCURVE",
"295 126 CURVE"
);
}
);
width = 613;
},
{
background = {
paths = (
{
closed = 1;
nodes = (
"130 0 OFFCURVE",
"133 3 OFFCURVE",
"133 13 CURVE SMOOTH",
"135 64 LINE SMOOTH",
"135 73 OFFCURVE",
"140 74 OFFCURVE",
"145 67 CURVE SMOOTH",
"157 50 OFFCURVE",
"207 -10 OFFCURVE",
"310 -10 CURVE SMOOTH",
"454 -10 OFFCURVE",
"538 96 OFFCURVE",
"538 267 CURVE SMOOTH",
"538 416 OFFCURVE",
"474 540 OFFCURVE",
"321 540 CURVE SMOOTH",
"215 540 OFFCURVE",
"159 482 OFFCURVE",
"149 473 CURVE SMOOTH",
"140 465 OFFCURVE",
"136 465 OFFCURVE",
"136 478 CURVE SMOOTH",
"136 731 LINE SMOOTH",
"136 739 OFFCURVE",
"134 742 OFFCURVE",
"128 742 CURVE SMOOTH",
"105 742 LINE SMOOTH",
"99 742 OFFCURVE",
"96 739 OFFCURVE",
"96 732 CURVE SMOOTH",
"96 13 LINE SMOOTH",
"96 3 OFFCURVE",
"99 0 OFFCURVE",
"107 0 CURVE SMOOTH",
"118 0 LINE SMOOTH"
);
},
{
closed = 1;
nodes = (
"176 463 OFFCURVE",
"240 502 OFFCURVE",
"314 502 CURVE SMOOTH",
"432 502 OFFCURVE",
"495 409 OFFCURVE",
"495 267 CURVE SMOOTH",
"495 103 OFFCURVE",
"410 28 OFFCURVE",
"306 28 CURVE SMOOTH",
"222 28 OFFCURVE",
"136 96 OFFCURVE",
"136 177 CURVE SMOOTH",
"136 415 LINE"
);
}
);
};
layerId = "91AB5BCA-6A50-42DA-B2F7-8181BF189245";
paths = (
{
closed = 1;
nodes = (
"389 -10 OFFCURVE",
"468 94 OFFCURVE",
"492 260 CURVE SMOOTH",
"512 406 OFFCURVE",
"471 527 OFFCURVE",
"334 527 CURVE SMOOTH",
"215 527 OFFCURVE",
"166 442 OFFCURVE",
"154 420 CURVE",
"199 743 LINE",
"163 743 LINE",
"59 0 LINE",
"91 0 LINE",
"109 106 LINE",
"113 82 OFFCURVE",
"132 -10 OFFCURVE",
"259 -10 CURVE SMOOTH"
);
},
{
closed = 1;
nodes = (
"165 27 OFFCURVE",
"111 104 OFFCURVE",
"120 178 CURVE",
"142 339 LINE",
"149 361 OFFCURVE",
"181 489 OFFCURVE",
"325 489 CURVE SMOOTH",
"433 489 OFFCURVE",
"473 399 OFFCURVE",
"453 260 CURVE SMOOTH",
"431 100 OFFCURVE",
"357 27 OFFCURVE",
"263 27 CURVE SMOOTH"
);
}
);
width = 547;
}
);
leftKerningGroup = h;
leftMetricsKey = n;
rightKerningGroup = o;
rightMetricsKey = o;
unicode = 0062;
},
{
glyphname = c;
lastChange = "2019-04-16 04:59:24 +0000";
layers = (
{
anchors = (
{
name = bottom;
position = "{244, 0}";
},
{
name = top;
position = "{324, 517}";
}
);
background = {
anchors = (
{
name = bottom;
position = "{272, 0}";
},
{
name = top;
position = "{273, 530}";
}
);
paths = (
{
closed = 1;
nodes = (
"115 540 OFFCURVE",
"-4 428 OFFCURVE",
"-4 263 CURVE SMOOTH",
"-4 101 OFFCURVE",
"113 -10 OFFCURVE",
"273 -10 CURVE SMOOTH",
"435 -10 OFFCURVE",
"501 105 OFFCURVE",
"511 157 CURVE SMOOTH",
"515 172 OFFCURVE",
"513 178 OFFCURVE",
"502 180 CURVE SMOOTH",
"408 198 LINE SMOOTH",
"395 200 OFFCURVE",
"391 198 OFFCURVE",
"388 193 CURVE SMOOTH",
"363 148 OFFCURVE",
"344 114 OFFCURVE",
"289 114 CURVE SMOOTH",
"232 114 OFFCURVE",
"198 154 OFFCURVE",
"198 265 CURVE SMOOTH",
"198 372 OFFCURVE",
"229 414 OFFCURVE",
"278 414 CURVE SMOOTH",
"326 414 OFFCURVE",
"335 376 OFFCURVE",
"339 351 CURVE SMOOTH",
"341 340 OFFCURVE",
"345 336 OFFCURVE",
"356 337 CURVE SMOOTH",
"493 344 LINE SMOOTH",
"510 345 OFFCURVE",
"516 353 OFFCURVE",
"511 370 CURVE SMOOTH",
"495 447 OFFCURVE",
"416 540 OFFCURVE",
"273 540 CURVE SMOOTH"
);
}
);
};
guideLines = (
{
angle = -0.5577;
position = "{-481, 167}";
},
{
position = "{523, 123}";
},
{
angle = 3.769;
position = "{418, 307}";
}
);
layerId = "258ED206-D907-4350-8EBA-CBDDA1C16BF7";
paths = (
{
closed = 1;
nodes = (
"384 -10 OFFCURVE",
"482 90 OFFCURVE",
"498 200 CURVE",
"346 200 LINE",
"340 179 OFFCURVE",
"318 124 OFFCURVE",
"269 124 CURVE SMOOTH",
"220 124 OFFCURVE",
"190 173 OFFCURVE",
"203 258 CURVE SMOOTH",
"216 341 OFFCURVE",
"255 383 OFFCURVE",
"305 383 CURVE SMOOTH",
"354 383 OFFCURVE",
"361 335 OFFCURVE",
"360 306 CURVE",
"517 306 LINE",
"532 422 OFFCURVE",
"471 527 OFFCURVE",
"325 527 CURVE SMOOTH",
"176 527 OFFCURVE",
"49 416 OFFCURVE",
"25 256 CURVE SMOOTH",
"1 98 OFFCURVE",
"97 -10 OFFCURVE",
"244 -10 CURVE SMOOTH"
);
}
);
width = 535;
},
{
anchors = (
{
name = bottom;
position = "{226, 0}";
},
{
name = top;
position = "{297, 517}";
}
);
background = {
anchors = (
{
name = bottom;
position = "{272, 0}";
},
{
name = top;
position = "{270, 530}";
}
);
paths = (
{
closed = 1;
nodes = (
"130 540 OFFCURVE",
"31 425 OFFCURVE",
"31 263 CURVE SMOOTH",
"31 100 OFFCURVE",
"128 -10 OFFCURVE",
"271 -10 CURVE SMOOTH",
"356 -10 OFFCURVE",
"428 29 OFFCURVE",
"476 107 CURVE SMOOTH",
"478 111 OFFCURVE",
"477 115 OFFCURVE",
"474 117 CURVE SMOOTH",
"451 132 LINE SMOOTH",
"447 135 OFFCURVE",
"445 134 OFFCURVE",
"441 128 CURVE SMOOTH",
"397 60 OFFCURVE",
"343 28 OFFCURVE",
"275 28 CURVE SMOOTH",
"153 28 OFFCURVE",
"73 123 OFFCURVE",
"73 265 CURVE SMOOTH",
"73 407 OFFCURVE",
"153 502 OFFCURVE",
"276 502 CURVE SMOOTH",
"332 502 OFFCURVE",
"377 478 OFFCURVE",
"432 411 CURVE SMOOTH",
"436 406 OFFCURVE",
"440 405 OFFCURVE",
"443 407 CURVE SMOOTH",
"467 423 LINE SMOOTH",
"470 425 OFFCURVE",
"471 427 OFFCURVE",
"467 433 CURVE SMOOTH",
"421 499 OFFCURVE",
"360 540 OFFCURVE",
"271 540 CURVE SMOOTH"
);
}
);
};
layerId = "91AB5BCA-6A50-42DA-B2F7-8181BF189245";
paths = (
{
closed = 1;
nodes = (
"302 -10 OFFCURVE",
"388 28 OFFCURVE",
"425 138 CURVE",
"387 138 LINE",
"360 61 OFFCURVE",
"297 27 OFFCURVE",
"233 27 CURVE SMOOTH",
"125 27 OFFCURVE",
"74 119 OFFCURVE",
"93 258 CURVE SMOOTH",
"113 396 OFFCURVE",
"192 489 OFFCURVE",
"299 489 CURVE SMOOTH",
"359 489 OFFCURVE",
"411 459 OFFCURVE",
"420 377 CURVE",
"459 379 LINE",
"454 483 OFFCURVE",
"380 527 OFFCURVE",
"300 527 CURVE SMOOTH",
"171 527 OFFCURVE",
"78 415 OFFCURVE",
"55 256 CURVE SMOOTH",
"33 98 OFFCURVE",
"95 -10 OFFCURVE",
"224 -10 CURVE SMOOTH"
);
}
);
width = 497;
}
);
leftKerningGroup = o;
leftMetricsKey = e;
rightKerningGroup = o;
unicode = 0063;
},
{
glyphname = d;
lastChange = "2019-04-16 04:59:04 +0000";
layers = (
{
anchors = (
{
name = bottom;
position = "{257, 0}";
},
{
name = center;
position = "{296, 258}";
},
{
name = topright;
position = "{613, 517}";
}
);
background = {
anchors = (
{
name = bottom;
position = "{303, 0}";
},
{
name = center;
position = "{303, 265}";
},
{
name = topright;
position = "{589, 530}";
}
);
paths = (
{
closed = 1;
nodes = (
"544 0 LINE SMOOTH",
"565 0 OFFCURVE",
"571 8 OFFCURVE",
"571 25 CURVE SMOOTH",
"571 719 LINE SMOOTH",
"571 734 OFFCURVE",
"563 742 OFFCURVE",
"552 742 CURVE SMOOTH",
"390 742 LINE SMOOTH",
"378 742 OFFCURVE",
"372 734 OFFCURVE",
"372 721 CURVE SMOOTH",
"372 496 LINE SMOOTH",
"372 480 OFFCURVE",
"363 480 OFFCURVE",
"353 488 CURVE SMOOTH",
"312 528 OFFCURVE",
"274 540 OFFCURVE",
"229 540 CURVE SMOOTH",
"119 540 OFFCURVE",
"19 431 OFFCURVE",
"19 263 CURVE SMOOTH",
"19 82 OFFCURVE",
"101 -10 OFFCURVE",
"219 -10 CURVE SMOOTH",
"281 -10 OFFCURVE",
"320 10 OFFCURVE",
"359 46 CURVE SMOOTH",
"366 52 OFFCURVE",
"374 51 OFFCURVE",
"374 42 CURVE SMOOTH",
"374 23 LINE SMOOTH",
"374 6 OFFCURVE",
"386 0 OFFCURVE",
"399 0 CURVE SMOOTH"
);
},
{
closed = 1;
nodes = (
"371 176 LINE SMOOTH",
"371 137 OFFCURVE",
"340 110 OFFCURVE",
"301 110 CURVE SMOOTH",
"250 110 OFFCURVE",
"221 149 OFFCURVE",
"221 264 CURVE SMOOTH",
"221 380 OFFCURVE",
"254 416 OFFCURVE",
"301 416 CURVE SMOOTH",
"332 416 OFFCURVE",
"350 403 OFFCURVE",
"371 378 CURVE"
);
}
);
};
layerId = "258ED206-D907-4350-8EBA-CBDDA1C16BF7";
paths = (
{
closed = 1;
nodes = (
"288 -10 OFFCURVE",
"344 34 OFFCURVE",
"377 106 CURVE",
"384 0 LINE",
"521 0 LINE",
"634 743 LINE",
"440 743 LINE",
"397 458 LINE",
"373 511 OFFCURVE",
"316 527 OFFCURVE",
"265 527 CURVE SMOOTH",
"139 527 OFFCURVE",
"50 425 OFFCURVE",
"26 262 CURVE SMOOTH",
"0 97 OFFCURVE",
"63 -10 OFFCURVE",
"205 -10 CURVE SMOOTH"
);
},
{
closed = 1;
nodes = (
"227 126 OFFCURVE",
"197 160 OFFCURVE",
"213 264 CURVE SMOOTH",
"228 368 OFFCURVE",
"271 390 OFFCURVE",
"310 390 CURVE SMOOTH",
"353 390 OFFCURVE",
"383 364 OFFCURVE",
"371 284 CURVE",
"364 239 LINE",
"352 162 OFFCURVE",
"315 126 OFFCURVE",
"272 126 CURVE"
);
}
);
width = 611;
},
{
anchors = (
{
name = bottom;
position = "{228, 0}";
},
{
name = center;
position = "{275, 258}";
},
{
name = topright;
position = "{621, 723}";
}
);
background = {
anchors = (
{
name = bottom;
position = "{288, 0}";
},
{
name = center;
position = "{300, 265}";
},
{
name = topright;
position = "{613, 742}";
}
);
paths = (
{
closed = 1;
nodes = (
"475 0 LINE SMOOTH",
"484 0 OFFCURVE",
"487 3 OFFCURVE",
"487 12 CURVE SMOOTH",
"487 733 LINE SMOOTH",
"487 739 OFFCURVE",
"484 742 OFFCURVE",
"479 742 CURVE SMOOTH",
"456 742 LINE SMOOTH",
"449 742 OFFCURVE",
"447 739 OFFCURVE",
"447 732 CURVE SMOOTH",
"447 493 LINE SMOOTH",
"447 480 OFFCURVE",
"445 476 OFFCURVE",
"433 486 CURVE SMOOTH",
"402 510 OFFCURVE",
"359 540 OFFCURVE",
"286 540 CURVE SMOOTH",
"139 540 OFFCURVE",
"43 425 OFFCURVE",
"43 255 CURVE SMOOTH",
"43 78 OFFCURVE",
"146 -10 OFFCURVE",
"274 -10 CURVE SMOOTH",
"370 -10 OFFCURVE",
"421 49 OFFCURVE",
"437 66 CURVE SMOOTH",
"445 74 OFFCURVE",
"449 73 OFFCURVE",
"449 62 CURVE SMOOTH",
"449 11 LINE SMOOTH",
"449 4 OFFCURVE",
"452 0 OFFCURVE",
"459 0 CURVE SMOOTH"
);
},
{
closed = 1;
nodes = (
"447 170 LINE SMOOTH",
"447 110 OFFCURVE",
"375 28 OFFCURVE",
"279 28 CURVE SMOOTH",
"177 28 OFFCURVE",
"85 100 OFFCURVE",
"85 259 CURVE SMOOTH",
"85 411 OFFCURVE",
"170 502 OFFCURVE",
"287 502 CURVE SMOOTH",
"348 502 OFFCURVE",
"398 474 OFFCURVE",
"447 426 CURVE"
);
}
);
};
layerId = "91AB5BCA-6A50-42DA-B2F7-8181BF189245";
paths = (
{
closed = 1;
nodes = (
"339 -10 OFFCURVE",
"384 82 OFFCURVE",
"395 106 CURVE",
"383 0 LINE",
"415 0 LINE",
"520 743 LINE",
"484 743 LINE",
"440 428 LINE",
"433 450 OFFCURVE",
"399 527 OFFCURVE",
"288 527 CURVE SMOOTH",
"151 527 OFFCURVE",
"76 406 OFFCURVE",
"55 260 CURVE SMOOTH",
"32 94 OFFCURVE",
"83 -10 OFFCURVE",
"212 -10 CURVE SMOOTH"
);
},
{
closed = 1;
nodes = (
"125 27 OFFCURVE",
"71 100 OFFCURVE",
"94 260 CURVE SMOOTH",
"113 399 OFFCURVE",
"179 489 OFFCURVE",
"286 489 CURVE SMOOTH",
"420 489 OFFCURVE",
"426 361 OFFCURVE",
"427 339 CURVE",
"404 178 LINE",
"392 104 OFFCURVE",
"317 27 OFFCURVE",
"218 27 CURVE SMOOTH"
);
}
);
width = 542;
}
);
leftKerningGroup = o;
leftMetricsKey = e;
rightKerningGroup = u;
rightMetricsKey = u;
unicode = 0064;
},
{
glyphname = eth;
lastChange = "2019-04-16 04:59:04 +0000";
layers = (
{
background = {
paths = (
{
closed = 1;
nodes = (
"578 440 OFFCURVE",
"503 582 OFFCURVE",
"379 669 CURVE",
"425 695 LINE SMOOTH",
"431 699 OFFCURVE",
"432 704 OFFCURVE",
"429 709 CURVE SMOOTH",
"408 747 LINE SMOOTH",
"404 752 OFFCURVE",
"397 754 OFFCURVE",
"390 749 CURVE SMOOTH",
"315 707 LINE",
"278 726 OFFCURVE",
"237 740 OFFCURVE",
"194 750 CURVE SMOOTH",
"182 753 OFFCURVE",
"180 752 OFFCURVE",
"173 746 CURVE SMOOTH",
"89 677 LINE SMOOTH",
"82 671 OFFCURVE",
"85 665 OFFCURVE",
"91 663 CURVE SMOOTH",
"121 653 OFFCURVE",
"148 641 OFFCURVE",
"173 628 CURVE",
"102 589 LINE SMOOTH",
"95 586 OFFCURVE",
"92 578 OFFCURVE",
"100 567 CURVE SMOOTH",
"115 543 LINE SMOOTH",
"122 532 OFFCURVE",
"128 530 OFFCURVE",
"139 536 CURVE SMOOTH",
"235 590 LINE",
"263 569 OFFCURVE",
"282 551 OFFCURVE",
"301 525 CURVE SMOOTH",
"303 522 OFFCURVE",
"303 520 OFFCURVE",
"299 520 CURVE SMOOTH",
"141 520 OFFCURVE",
"20 409 OFFCURVE",
"20 252 CURVE SMOOTH",
"20 103 OFFCURVE",
"134 -10 OFFCURVE",
"298 -10 CURVE SMOOTH",
"465 -10 OFFCURVE",
"578 102 OFFCURVE",
"578 282 CURVE SMOOTH"
);
},
{
closed = 1;
nodes = (
"246 118 OFFCURVE",
"222 162 OFFCURVE",
"222 256 CURVE SMOOTH",
"222 351 OFFCURVE",
"246 396 OFFCURVE",
"299 396 CURVE SMOOTH",
"353 396 OFFCURVE",
"376 351 OFFCURVE",
"376 256 CURVE SMOOTH",
"376 163 OFFCURVE",
"353 118 OFFCURVE",
"299 118 CURVE SMOOTH"
);
}
);
};
layerId = "258ED206-D907-4350-8EBA-CBDDA1C16BF7";
paths = (
{
closed = 1;
nodes = (
"415 -10 OFFCURVE",
"541 99 OFFCURVE",
"568 275 CURVE SMOOTH",
"591 429 OFFCURVE",
"540 567 OFFCURVE",
"432 652 CURVE",
"491 683 LINE",
"469 737 LINE",
"376 689 LINE",
"340 709 OFFCURVE",
"298 723 OFFCURVE",
"253 734 CURVE",
"141 651 LINE",
"172 640 OFFCURVE",
"201 627 OFFCURVE",
"228 612 CURVE",
"140 568 LINE",
"165 515 LINE",
"282 575 LINE",
"305 555 OFFCURVE",
"322 537 OFFCURVE",
"336 512 CURVE SMOOTH",
"337 509 OFFCURVE",
"337 507 OFFCURVE",
"333 507 CURVE SMOOTH",
"180 507 OFFCURVE",
"46 399 OFFCURVE",
"23 246 CURVE SMOOTH",
"1 100 OFFCURVE",
"95 -10 OFFCURVE",
"253 -10 CURVE SMOOTH"
);
},
{
closed = 1;
nodes = (
"223 115 OFFCURVE",
"205 158 OFFCURVE",
"219 250 CURVE SMOOTH",
"233 342 OFFCURVE",
"264 386 OFFCURVE",
"314 386 CURVE SMOOTH",
"367 386 OFFCURVE",
"382 342 OFFCURVE",
"368 250 CURVE SMOOTH",
"355 159 OFFCURVE",
"326 115 OFFCURVE",
"273 115 CURVE SMOOTH"
);
}
);
width = 591;
},
{
background = {
paths = (
{
closed = 1;
nodes = (
"538 422 OFFCURVE",
"483 563 OFFCURVE",
"327 669 CURVE",
"417 719 LINE SMOOTH",
"420 721 OFFCURVE",
"420 724 OFFCURVE",
"418 727 CURVE SMOOTH",
"406 749 LINE SMOOTH",
"405 751 OFFCURVE",
"400 752 OFFCURVE",
"397 750 CURVE SMOOTH",
"293 692 LINE",
"258 713 OFFCURVE",
"221 731 OFFCURVE",
"177 749 CURVE SMOOTH",
"168 753 OFFCURVE",
"165 751 OFFCURVE",
"159 747 CURVE SMOOTH",
"141 735 LINE SMOOTH",
"136 731 OFFCURVE",
"137 726 OFFCURVE",
"142 724 CURVE SMOOTH",
"184 707 OFFCURVE",
"221 689 OFFCURVE",
"255 670 CURVE",
"100 583 LINE SMOOTH",
"97 581 OFFCURVE",
"95 578 OFFCURVE",
"99 572 CURVE SMOOTH",
"108 558 LINE SMOOTH",
"112 552 OFFCURVE",
"115 550 OFFCURVE",
"121 553 CURVE SMOOTH",
"289 648 LINE",
"375 590 OFFCURVE",
"428 523 OFFCURVE",
"459 451 CURVE",
"416 494 OFFCURVE",
"357 520 OFFCURVE",
"286 520 CURVE SMOOTH",
"150 520 OFFCURVE",
"52 408 OFFCURVE",
"52 252 CURVE SMOOTH",
"52 98 OFFCURVE",
"149 -10 OFFCURVE",
"293 -10 CURVE SMOOTH",
"447 -10 OFFCURVE",
"538 101 OFFCURVE",
"538 255 CURVE SMOOTH"
);
},
{
closed = 1;
nodes = (
"181 28 OFFCURVE",
"94 128 OFFCURVE",
"94 254 CURVE SMOOTH",
"94 380 OFFCURVE",
"181 482 OFFCURVE",
"296 482 CURVE SMOOTH",
"410 482 OFFCURVE",
"496 381 OFFCURVE",
"496 254 CURVE SMOOTH",
"496 127 OFFCURVE",
"412 28 OFFCURVE",
"297 28 CURVE SMOOTH"
);
}
);
};
layerId = "91AB5BCA-6A50-42DA-B2F7-8181BF189245";
paths = (
{
closed = 1;
nodes = (
"371 -10 OFFCURVE",
"468 98 OFFCURVE",
"489 249 CURVE SMOOTH",
"512 411 OFFCURVE",
"482 549 OFFCURVE",
"356 652 CURVE",
"447 703 LINE",
"437 735 LINE",
"329 675 LINE",
"298 696 OFFCURVE",
"265 716 OFFCURVE",
"225 734 CURVE",
"189 710 LINE",
"228 692 OFFCURVE",
"262 674 OFFCURVE",
"292 653 CURVE",
"135 566 LINE",
"148 535 LINE",
"319 632 LINE",
"389 575 OFFCURVE",
"426 510 OFFCURVE",
"444 440 CURVE",
"412 482 OFFCURVE",
"363 507 OFFCURVE",
"299 507 CURVE SMOOTH",
"177 507 OFFCURVE",
"74 398 OFFCURVE",
"53 246 CURVE SMOOTH",
"32 96 OFFCURVE",
"103 -10 OFFCURVE",
"233 -10 CURVE SMOOTH"
);
},
{
closed = 1;
nodes = (
"137 27 OFFCURVE",
"73 125 OFFCURVE",
"91 248 CURVE SMOOTH",
"108 371 OFFCURVE",
"199 470 OFFCURVE",
"303 470 CURVE SMOOTH",
"405 470 OFFCURVE",
"469 371 OFFCURVE",
"451 248 CURVE SMOOTH",
"434 124 OFFCURVE",
"345 27 OFFCURVE",
"242 27 CURVE SMOOTH"
);
}
);
width = 545;
}
);
leftKerningGroup = o;
leftMetricsKey = o;
rightKerningGroup = o;
rightMetricsKey = o;
unicode = 00F0;
},
{
glyphname = dcroat;
lastChange = "2019-04-16 04:59:24 +0000";
layers = (
{
background = {
components = (
{
name = d;
transform = "{1, 0, 0, 1, -38, 0}";
}
);
paths = (
{
closed = 1;
nodes = (
"575 680 OFFCURVE",
"569 687 OFFCURVE",
"559 687 CURVE SMOOTH",
"220 687 LINE SMOOTH",
"210 687 OFFCURVE",
"204 680 OFFCURVE",
"204 667 CURVE SMOOTH",
"204 602 LINE SMOOTH",
"204 587 OFFCURVE",
"209 580 OFFCURVE",
"226 580 CURVE SMOOTH",
"546 580 LINE SMOOTH",
"566 580 OFFCURVE",
"575 587 OFFCURVE",
"575 604 CURVE SMOOTH",
"575 669 LINE SMOOTH"
);
}
);
};
components = (
{
name = d;
}
);
layerId = "258ED206-D907-4350-8EBA-CBDDA1C16BF7";
paths = (
{
closed = 1;
nodes = (
"662 566 LINE",
"676 670 LINE",
"314 670 LINE",
"300 566 LINE"
);
}
);
width = 659;
},
{
background = {
components = (
{
name = d;
transform = "{1, 0, 0, 1, 4, 0}";
}
);
paths = (
{
closed = 1;
nodes = (
"581 660 OFFCURVE",
"579 662 OFFCURVE",
"576 662 CURVE SMOOTH",
"297 662 LINE SMOOTH",
"294 662 OFFCURVE",
"292 660 OFFCURVE",
"292 655 CURVE SMOOTH",
"292 635 LINE SMOOTH",
"292 629 OFFCURVE",
"293 627 OFFCURVE",
"299 627 CURVE SMOOTH",
"571 627 LINE SMOOTH",
"578 627 OFFCURVE",
"581 629 OFFCURVE",
"581 635 CURVE SMOOTH",
"581 656 LINE SMOOTH"
);
}
);
};
components = (
{
name = d;
}
);
layerId = "91AB5BCA-6A50-42DA-B2F7-8181BF189245";
paths = (
{
closed = 1;
nodes = (
"565 611 LINE",
"565 645 LINE",
"284 645 LINE",
"284 611 LINE"
);
}
);
width = 565;
}
);
leftKerningGroup = o;
leftMetricsKey = d;
rightMetricsKey = t;
unicode = 0111;
},
{
glyphname = e;
lastChange = "2019-04-16 04:59:04 +0000";
layers = (
{
anchors = (
{
name = bottom;
position = "{251, 0}";
},
{
name = ogonek;
position = "{379, 25}";
},
{
name = top;
position = "{326, 517}";
}
);
background = {
anchors = (
{
name = bottom;
position = "{278, 0}";
},
{
name = ogonek;
position = "{407, 26}";
},
{
name = top;
position = "{275, 530}";
}
);
paths = (
{
closed = 1;
nodes = (
"201 224 OFFCURVE",
"206 229 OFFCURVE",
"216 229 CURVE SMOOTH",
"527 229 LINE SMOOTH",
"544 230 OFFCURVE",
"545 237 OFFCURVE",
"545 254 CURVE SMOOTH",
"545 435 OFFCURVE",
"430 540 OFFCURVE",
"273 540 CURVE SMOOTH",
"125 540 OFFCURVE",
"-5 426 OFFCURVE",
"-5 256 CURVE SMOOTH",
"-5 99 OFFCURVE",
"117 -10 OFFCURVE",
"277 -10 CURVE SMOOTH",
"389 -10 OFFCURVE",
"457 17 OFFCURVE",
"529 118 CURVE SMOOTH",
"538 129 OFFCURVE",
"535 138 OFFCURVE",
"525 142 CURVE SMOOTH",
"434 179 LINE SMOOTH",
"421 184 OFFCURVE",
"418 183 OFFCURVE",
"413 178 CURVE SMOOTH",
"369 135 OFFCURVE",
"338 122 OFFCURVE",
"304 122 CURVE SMOOTH",
"246 122 OFFCURVE",
"201 151 OFFCURVE",
"201 212 CURVE SMOOTH"
);
},
{
closed = 1;
nodes = (
"203 395 OFFCURVE",
"241 423 OFFCURVE",
"282 423 CURVE SMOOTH",
"332 423 OFFCURVE",
"351 372 OFFCURVE",
"351 346 CURVE SMOOTH",
"351 334 OFFCURVE",
"347 332 OFFCURVE",
"334 332 CURVE SMOOTH",
"204 333 LINE"
);
}
);
};
layerId = "258ED206-D907-4350-8EBA-CBDDA1C16BF7";
paths = (
{
closed = 1;
nodes = (
"368 -10 OFFCURVE",
"495 61 OFFCURVE",
"528 176 CURVE",
"357 176 LINE",
"335 136 OFFCURVE",
"305 126 OFFCURVE",
"269 126 CURVE SMOOTH",
"227 126 OFFCURVE",
"197 152 OFFCURVE",
"208 214 CURVE",
"532 214 LINE",
"539 259 LINE",
"562 412 OFFCURVE",
"495 527 OFFCURVE",
"327 527 CURVE SMOOTH",
"162 527 OFFCURVE",
"46 400 OFFCURVE",
"24 252 CURVE SMOOTH",
"0 95 OFFCURVE",
"93 -10 OFFCURVE",
"253 -10 CURVE SMOOTH"
);
},
{
closed = 1;
nodes = (
"229 362 OFFCURVE",
"267 396 OFFCURVE",
"307 396 CURVE SMOOTH",
"356 396 OFFCURVE",
"376 362 OFFCURVE",
"370 323 CURVE",
"223 323 LINE"
);
}
);
width = 565;
},
{
anchors = (
{
name = bottom;
position = "{221, 0}";
},
{
name = ogonek;
position = "{310, 18}";
},
{
name = top;
position = "{295, 517}";
}
);
background = {
anchors = (
{
name = bottom;
position = "{270, 0}";
},
{
name = ogonek;
position = "{363, 18}";
},
{
name = top;
position = "{267, 530}";
}
);
paths = (
{
closed = 1;
nodes = (
"68 247 OFFCURVE",
"70 254 OFFCURVE",
"74 254 CURVE SMOOTH",
"485 254 LINE SMOOTH",
"500 254 OFFCURVE",
"498 266 OFFCURVE",
"498 274 CURVE SMOOTH",
"498 442 OFFCURVE",
"410 540 OFFCURVE",
"269 540 CURVE SMOOTH",
"128 540 OFFCURVE",
"26 436 OFFCURVE",
"26 261 CURVE SMOOTH",
"26 100 OFFCURVE",
"125 -10 OFFCURVE",
"269 -10 CURVE SMOOTH",
"363 -10 OFFCURVE",
"433 27 OFFCURVE",
"479 100 CURVE SMOOTH",
"482 104 OFFCURVE",
"481 108 OFFCURVE",
"478 110 CURVE SMOOTH",
"455 125 LINE SMOOTH",
"451 128 OFFCURVE",
"448 127 OFFCURVE",
"444 121 CURVE SMOOTH",
"408 61 OFFCURVE",
"349 28 OFFCURVE",
"269 28 CURVE SMOOTH",
"157 28 OFFCURVE",
"68 127 OFFCURVE",
"68 240 CURVE SMOOTH"
);
},
{
closed = 1;
nodes = (
"68 390 OFFCURVE",
"136 502 OFFCURVE",
"268 502 CURVE SMOOTH",
"384 502 OFFCURVE",
"456 414 OFFCURVE",
"456 304 CURVE SMOOTH",
"456 293 OFFCURVE",
"453 290 OFFCURVE",
"439 290 CURVE SMOOTH",
"69 290 LINE"
);
}
);
};
guideLines = (
{
angle = 88.4926;
position = "{209, 483}";
}
);
layerId = "91AB5BCA-6A50-42DA-B2F7-8181BF189245";
paths = (
{
closed = 1;
nodes = (
"311 -10 OFFCURVE",
"388 33 OFFCURVE",
"429 138 CURVE",
"391 138 LINE",
"361 69 OFFCURVE",
"306 29 OFFCURVE",
"232 29 CURVE SMOOTH",
"112 29 OFFCURVE",
"75 131 OFFCURVE",
"91 248 CURVE",
"450 248 LINE",
"454 277 LINE",
"477 436 OFFCURVE",
"418 527 OFFCURVE",
"296 527 CURVE SMOOTH",
"167 527 OFFCURVE",
"78 425 OFFCURVE",
"54 254 CURVE SMOOTH",
"30 85 OFFCURVE",
"102 -10 OFFCURVE",
"226 -10 CURVE SMOOTH"
);
},
{
closed = 1;
nodes = (
"111 384 OFFCURVE",
"174 488 OFFCURVE",
"290 488 CURVE SMOOTH",
"397 488 OFFCURVE",
"434 402 OFFCURVE",
"418 287 CURVE",
"98 287 LINE"
);
}
);
width = 506;
}
);
leftKerningGroup = o;
rightKerningGroup = o;
unicode = 0065;
},
{
glyphname = f;
lastChange = "2019-04-16 04:59:24 +0000";
layers = (
{
background = {
paths = (
{
closed = 1;
nodes = (
"300 530 LINE SMOOTH",
"292 530 OFFCURVE",
"287 533 OFFCURVE",
"287 543 CURVE SMOOTH",
"287 561 LINE SMOOTH",
"287 589 OFFCURVE",
"309 612 OFFCURVE",
"332 612 CURVE SMOOTH",
"375 612 LINE SMOOTH",
"387 612 OFFCURVE",
"393 621 OFFCURVE",
"393 632 CURVE",
"392 716 LINE",
"392 732 OFFCURVE",
"382 742 OFFCURVE",
"363 742 CURVE SMOOTH",
"250 742 LINE SMOOTH",
"153 742 OFFCURVE",
"92 688 OFFCURVE",
"92 601 CURVE SMOOTH",
"92 548 LINE SMOOTH",
"92 535 OFFCURVE",
"89 530 OFFCURVE",
"78 530 CURVE SMOOTH",
"30 530 LINE SMOOTH",
"13 530 OFFCURVE",
"6 520 OFFCURVE",
"6 508 CURVE SMOOTH",
"6 414 LINE SMOOTH",
"6 400 OFFCURVE",
"14 395 OFFCURVE",
"28 395 CURVE SMOOTH",
"84 395 LINE SMOOTH",
"90 395 OFFCURVE",
"92 392 OFFCURVE",
"92 385 CURVE SMOOTH",
"92 20 LINE SMOOTH",
"92 7 OFFCURVE",
"99 0 OFFCURVE",
"110 0 CURVE SMOOTH",
"273 0 LINE SMOOTH",
"285 0 OFFCURVE",
"292 7 OFFCURVE",
"292 22 CURVE SMOOTH",
"292 383 LINE SMOOTH",
"292 391 OFFCURVE",
"297 395 OFFCURVE",
"304 395 CURVE SMOOTH",
"366 395 LINE SMOOTH",
"379 395 OFFCURVE",
"388 400 OFFCURVE",
"388 414 CURVE SMOOTH",
"388 508 LINE SMOOTH",
"388 520 OFFCURVE",
"380 530 OFFCURVE",
"363 530 CURVE SMOOTH"
);
}
);
};
layerId = "258ED206-D907-4350-8EBA-CBDDA1C16BF7";
paths = (
{
closed = 1;
nodes = (
"245 0 LINE",
"304 385 LINE",
"397 385 LINE",
"417 517 LINE",
"320 517 LINE",
"324 547 LINE SMOOTH",
"330 585 OFFCURVE",
"343 597 OFFCURVE",
"375 597 CURVE SMOOTH",
"434 597 LINE",
"453 723 LINE",
"315 723 LINE SMOOTH",
"221 723 OFFCURVE",
"154 671 OFFCURVE",
"141 586 CURVE SMOOTH",
"130 517 LINE",
"48 517 LINE",
"28 385 LINE",
"110 385 LINE",
"52 0 LINE"
);
}
);
width = 388;
},
{
background = {
paths = (
{
closed = 1;
nodes = (
"223 530 LINE SMOOTH",
"218 530 OFFCURVE",
"216 532 OFFCURVE",
"216 537 CURVE SMOOTH",
"216 627 LINE SMOOTH",
"216 678 OFFCURVE",
"229 707 OFFCURVE",
"279 707 CURVE SMOOTH",
"359 707 LINE SMOOTH",
"364 707 OFFCURVE",
"367 709 OFFCURVE",
"367 714 CURVE SMOOTH",
"367 735 LINE SMOOTH",
"367 740 OFFCURVE",
"365 742 OFFCURVE",
"361 742 CURVE SMOOTH",
"289 742 LINE SMOOTH",
"209 742 OFFCURVE",
"176 700 OFFCURVE",
"176 618 CURVE SMOOTH",
"176 537 LINE SMOOTH",
"176 532 OFFCURVE",
"174 530 OFFCURVE",
"169 530 CURVE SMOOTH",
"56 530 LINE SMOOTH",
"52 530 OFFCURVE",
"50 528 OFFCURVE",
"50 524 CURVE SMOOTH",
"50 501 LINE SMOOTH",
"50 497 OFFCURVE",
"52 495 OFFCURVE",
"56 495 CURVE SMOOTH",
"170 495 LINE SMOOTH",
"174 495 OFFCURVE",
"176 492 OFFCURVE",
"176 488 CURVE SMOOTH",
"176 10 LINE SMOOTH",
"176 3 OFFCURVE",
"178 0 OFFCURVE",
"184 0 CURVE SMOOTH",
"207 0 LINE SMOOTH",
"213 0 OFFCURVE",
"216 3 OFFCURVE",
"216 11 CURVE SMOOTH",
"216 488 LINE SMOOTH",
"216 493 OFFCURVE",
"218 495 OFFCURVE",
"223 495 CURVE SMOOTH",
"356 495 LINE SMOOTH",
"360 495 OFFCURVE",
"362 497 OFFCURVE",
"362 501 CURVE SMOOTH",
"362 524 LINE SMOOTH",
"362 528 OFFCURVE",
"360 530 OFFCURVE",
"357 530 CURVE SMOOTH"
);
}
);
};
layerId = "91AB5BCA-6A50-42DA-B2F7-8181BF189245";
paths = (
{
closed = 1;
nodes = (
"159 0 LINE",
"226 483 LINE",
"357 483 LINE",
"362 517 LINE",
"231 517 LINE",
"244 611 LINE SMOOTH",
"251 661 OFFCURVE",
"267 689 OFFCURVE",
"312 689 CURVE SMOOTH",
"391 689 LINE",
"395 723 LINE",
"326 723 LINE SMOOTH",
"254 723 OFFCURVE",
"219 683 OFFCURVE",
"207 603 CURVE SMOOTH",
"195 517 LINE",
"82 517 LINE",
"77 483 LINE",
"191 483 LINE",
"123 0 LINE"
);
}
);
width = 375;
}
);
leftKerningGroup = f;
rightKerningGroup = f;
unicode = 0066;
},
{
glyphname = g;
lastChange = "2019-04-16 04:59:04 +0000";
layers = (
{
anchors = (
{
name = top;
position = "{348, 517}";
}
);
background = {
anchors = (
{
name = top;
position = "{288, 530}";
}
);
paths = (
{
closed = 1;
nodes = (
"568 562 OFFCURVE",
"512 534 OFFCURVE",
"485 496 CURVE SMOOTH",
"478 486 OFFCURVE",
"464 485 OFFCURVE",
"454 493 CURVE SMOOTH",
"421 519 OFFCURVE",
"363 538 OFFCURVE",
"287 538 CURVE SMOOTH",
"108 538 OFFCURVE",
"17 469 OFFCURVE",
"17 373 CURVE SMOOTH",
"17 312 OFFCURVE",
"55 265 OFFCURVE",
"121 237 CURVE SMOOTH",
"131 231 OFFCURVE",
"124 228 OFFCURVE",
"118 225 CURVE SMOOTH",
"64 202 OFFCURVE",
"9 169 OFFCURVE",
"9 122 CURVE SMOOTH",
"9 81 OFFCURVE",
"40 56 OFFCURVE",
"75 39 CURVE SMOOTH",
"83 35 OFFCURVE",
"85 31 OFFCURVE",
"75 28 CURVE SMOOTH",
"22 13 OFFCURVE",
"-22 -8 OFFCURVE",
"-22 -53 CURVE SMOOTH",
"-22 -137 OFFCURVE",
"80 -175 OFFCURVE",
"289 -175 CURVE SMOOTH",
"490 -175 OFFCURVE",
"592 -99 OFFCURVE",
"592 3 CURVE SMOOTH",
"592 85 OFFCURVE",
"526 143 OFFCURVE",
"378 152 CURVE SMOOTH",
"226 161 LINE SMOOTH",
"197 163 OFFCURVE",
"182 167 OFFCURVE",
"182 182 CURVE SMOOTH",
"182 198 OFFCURVE",
"209 209 OFFCURVE",
"275 209 CURVE SMOOTH",
"443 209 OFFCURVE",
"532 284 OFFCURVE",
"532 374 CURVE SMOOTH",
"532 384 OFFCURVE",
"530 395 OFFCURVE",
"527 405 CURVE SMOOTH",
"523 419 OFFCURVE",
"528 428 OFFCURVE",
"547 428 CURVE SMOOTH",
"559 428 OFFCURVE",
"578 425 OFFCURVE",
"591 421 CURVE SMOOTH",
"606 416 OFFCURVE",
"617 424 OFFCURVE",
"617 447 CURVE SMOOTH",
"617 537 LINE SMOOTH",
"617 555 OFFCURVE",
"608 562 OFFCURVE",
"597 562 CURVE SMOOTH"
);
},
{
closed = 1;
nodes = (
"223 300 OFFCURVE",
"195 334 OFFCURVE",
"195 370 CURVE SMOOTH",
"195 411 OFFCURVE",
"223 445 OFFCURVE",
"273 445 CURVE SMOOTH",
"329 445 OFFCURVE",
"351 411 OFFCURVE",
"351 370 CURVE SMOOTH",
"351 335 OFFCURVE",
"329 300 OFFCURVE",
"273 300 CURVE SMOOTH"
);
},
{
closed = 1;
nodes = (
"396 0 OFFCURVE",
"419 -16 OFFCURVE",
"419 -35 CURVE SMOOTH",
"419 -64 OFFCURVE",
"377 -86 OFFCURVE",
"299 -86 CURVE SMOOTH",
"174 -86 OFFCURVE",
"139 -64 OFFCURVE",
"139 -27 CURVE SMOOTH",
"139 -6 OFFCURVE",
"165 10 OFFCURVE",
"208 8 CURVE SMOOTH",
"353 2 LINE SMOOTH"
);
}
);
};
layerId = "258ED206-D907-4350-8EBA-CBDDA1C16BF7";
paths = (
{
closed = 1;
nodes = (
"439 -171 OFFCURVE",
"549 -97 OFFCURVE",
"564 3 CURVE SMOOTH",
"576 83 OFFCURVE",
"523 148 OFFCURVE",
"383 158 CURVE SMOOTH",
"339 161 OFFCURVE",
"299 163 OFFCURVE",
"281 164 CURVE SMOOTH",
"231 167 OFFCURVE",
"199 167 OFFCURVE",
"201 181 CURVE",
"202 186 OFFCURVE",
"206 188 OFFCURVE",
"217 190 CURVE",
"233 188 OFFCURVE",
"269 187 OFFCURVE",
"285 187 CURVE SMOOTH",
"448 187 OFFCURVE",
"548 277 OFFCURVE",
"561 365 CURVE SMOOTH",
"562 371 OFFCURVE",
"563 390 OFFCURVE",
"561 405 CURVE",
"651 417 LINE",
"672 555 LINE",
"612 531 OFFCURVE",
"534 503 OFFCURVE",
"493 488 CURVE",
"459 508 OFFCURVE",
"421 525 OFFCURVE",
"348 525 CURVE SMOOTH",
"208 525 OFFCURVE",
"78 468 OFFCURVE",
"62 364 CURVE SMOOTH",
"54 309 OFFCURVE",
"80 243 OFFCURVE",
"149 210 CURVE",
"67 199 OFFCURVE",
"23 160 OFFCURVE",
"17 119 CURVE SMOOTH",
"8 62 OFFCURVE",
"63 40 OFFCURVE",
"76 32 CURVE",
"68 30 OFFCURVE",
"-29 15 OFFCURVE",
"-39 -52 CURVE SMOOTH",
"-49 -118 OFFCURVE",
"42 -171 OFFCURVE",
"244 -171 CURVE SMOOTH"
);
},
{
closed = 1;
nodes = (
"191 -69 OFFCURVE",
"148 -62 OFFCURVE",
"153 -29 CURVE SMOOTH",
"155 -12 OFFCURVE",
"172 11 OFFCURVE",
"225 8 CURVE SMOOTH",
"317 2 LINE SMOOTH",
"357 -1 OFFCURVE",
"378 -15 OFFCURVE",
"375 -37 CURVE SMOOTH",
"372 -56 OFFCURVE",
"357 -69 OFFCURVE",
"290 -69 CURVE SMOOTH"
);
},
{
closed = 1;
nodes = (
"269 289 OFFCURVE",
"249 318 OFFCURVE",
"255 357 CURVE SMOOTH",
"261 396 OFFCURVE",
"291 430 OFFCURVE",
"328 430 CURVE SMOOTH",
"364 430 OFFCURVE",
"384 396 OFFCURVE",
"378 357 CURVE SMOOTH",
"372 318 OFFCURVE",
"343 289 OFFCURVE",
"306 289 CURVE SMOOTH"
);
}
);
width = 635;
},
{
anchors = (
{
name = top;
position = "{309, 517}";
}
);
background = {
anchors = (
{
name = top;
position = "{268, 530}";
}
);
guideLines = (
{
angle = 90;
position = "{264, 374}";
showMeasurement = 1;
}
);
paths = (
{
closed = 1;
nodes = (
"482 530 OFFCURVE",
"452 507 OFFCURVE",
"432 492 CURVE SMOOTH",
"425 487 OFFCURVE",
"421 487 OFFCURVE",
"414 493 CURVE SMOOTH",
"380 522 OFFCURVE",
"337 538 OFFCURVE",
"271 538 CURVE SMOOTH",
"139 538 OFFCURVE",
"61 475 OFFCURVE",
"61 369 CURVE SMOOTH",
"61 307 OFFCURVE",
"85 266 OFFCURVE",
"140 235 CURVE SMOOTH",
"147 231 OFFCURVE",
"149 225 OFFCURVE",
"141 223 CURVE SMOOTH",
"91 207 OFFCURVE",
"74 181 OFFCURVE",
"74 159 CURVE SMOOTH",
"74 137 OFFCURVE",
"85 121 OFFCURVE",
"112 109 CURVE SMOOTH",
"119 106 OFFCURVE",
"119 102 OFFCURVE",
"112 98 CURVE SMOOTH",
"49 63 OFFCURVE",
"20 21 OFFCURVE",
"20 -27 CURVE SMOOTH",
"20 -120 OFFCURVE",
"106 -175 OFFCURVE",
"260 -175 CURVE SMOOTH",
"411 -175 OFFCURVE",
"499 -119 OFFCURVE",
"499 -19 CURVE SMOOTH",
"499 60 OFFCURVE",
"452 110 OFFCURVE",
"345 116 CURVE SMOOTH",
"225 123 LINE SMOOTH",
"148 127 OFFCURVE",
"116 136 OFFCURVE",
"116 160 CURVE SMOOTH",
"116 184 OFFCURVE",
"149 209 OFFCURVE",
"264 209 CURVE SMOOTH",
"405 209 OFFCURVE",
"466 280 OFFCURVE",
"466 369 CURVE SMOOTH",
"466 411 OFFCURVE",
"452 434 OFFCURVE",
"445 451 CURVE SMOOTH",
"442 458 OFFCURVE",
"447 464 OFFCURVE",
"465 474 CURVE SMOOTH",
"481 483 OFFCURVE",
"494 487 OFFCURVE",
"520 488 CURVE SMOOTH",
"534 489 OFFCURVE",
"537 495 OFFCURVE",
"537 504 CURVE SMOOTH",
"537 517 LINE SMOOTH",
"537 526 OFFCURVE",
"533 530 OFFCURVE",
"518 530 CURVE SMOOTH"
);
},
{
closed = 1;
nodes = (
"160 247 OFFCURVE",
"101 290 OFFCURVE",
"101 371 CURVE SMOOTH",
"101 453 OFFCURVE",
"161 500 OFFCURVE",
"265 500 CURVE SMOOTH",
"371 500 OFFCURVE",
"426 454 OFFCURVE",
"426 371 CURVE SMOOTH",
"426 289 OFFCURVE",
"373 247 OFFCURVE",
"265 247 CURVE SMOOTH"
);
},
{
closed = 1;
nodes = (
"428 70 OFFCURVE",
"457 36 OFFCURVE",
"457 -19 CURVE SMOOTH",
"457 -101 OFFCURVE",
"391 -137 OFFCURVE",
"269 -137 CURVE SMOOTH",
"138 -137 OFFCURVE",
"62 -96 OFFCURVE",
"62 -23 CURVE SMOOTH",
"62 43 OFFCURVE",
"136 88 OFFCURVE",
"168 86 CURVE SMOOTH",
"344 75 LINE SMOOTH"
);
}
);
};
guideLines = (
{
angle = 90;
position = "{304, 347}";
showMeasurement = 1;
}
);
layerId = "91AB5BCA-6A50-42DA-B2F7-8181BF189245";
paths = (
{
closed = 1;
nodes = (
"340 -171 OFFCURVE",
"427 -116 OFFCURVE",
"440 -19 CURVE SMOOTH",
"451 59 OFFCURVE",
"416 107 OFFCURVE",
"321 113 CURVE SMOOTH",
"276 116 OFFCURVE",
"241 118 OFFCURVE",
"214 120 CURVE SMOOTH",
"139 126 OFFCURVE",
"118 134 OFFCURVE",
"121 156 CURVE SMOOTH",
"124 178 OFFCURVE",
"156 202 OFFCURVE",
"251 204 CURVE SMOOTH",
"254 204 OFFCURVE",
"257 204 OFFCURVE",
"261 204 CURVE SMOOTH",
"387 204 OFFCURVE",
"452 273 OFFCURVE",
"464 360 CURVE SMOOTH",
"468 386 OFFCURVE",
"462 426 OFFCURVE",
"455 446 CURVE",
"542 466 LINE",
"551 524 LINE",
"538 519 OFFCURVE",
"454 482 OFFCURVE",
"441 476 CURVE",
"409 509 OFFCURVE",
"371 525 OFFCURVE",
"312 525 CURVE SMOOTH",
"194 525 OFFCURVE",
"115 463 OFFCURVE",
"101 360 CURVE SMOOTH",
"92 295 OFFCURVE",
"108 257 OFFCURVE",
"163 222 CURVE",
"115 207 OFFCURVE",
"87 183 OFFCURVE",
"83 155 CURVE SMOOTH",
"79 124 OFFCURVE",
"99 113 OFFCURVE",
"115 101 CURVE",
"99 88 OFFCURVE",
"21 52 OFFCURVE",
"10 -26 CURVE SMOOTH",
"-3 -117 OFFCURVE",
"67 -171 OFFCURVE",
"205 -171 CURVE SMOOTH"
);
},
{
closed = 1;
nodes = (
"100 -134 OFFCURVE",
"38 -94 OFFCURVE",
"48 -22 CURVE SMOOTH",
"57 42 OFFCURVE",
"129 86 OFFCURVE",
"158 84 CURVE SMOOTH",
"314 73 LINE SMOOTH",
"389 68 OFFCURVE",
"410 35 OFFCURVE",
"403 -19 CURVE SMOOTH",
"391 -98 OFFCURVE",
"327 -134 OFFCURVE",
"218 -134 CURVE SMOOTH"
);
},
{
closed = 1;
nodes = (
"172 241 OFFCURVE",
"126 283 OFFCURVE",
"137 362 CURVE SMOOTH",
"148 442 OFFCURVE",
"208 488 OFFCURVE",
"302 488 CURVE SMOOTH",
"388 488 OFFCURVE",
"441 448 OFFCURVE",
"428 362 CURVE SMOOTH",
"417 282 OFFCURVE",
"364 241 OFFCURVE",
"267 241 CURVE SMOOTH"
);
}
);
width = 564;
}
);
leftKerningGroup = g;
rightKerningGroup = g;
unicode = 0067;
},
{
glyphname = gcommaaccent;
lastChange = "2019-04-16 04:59:04 +0000";
layers = (
{
anchors = (
{
name = _top;
position = "{347, 517}";
}
);
background = {
anchors = (
{
name = _top;
position = "{265, 550}";
}
);
components = (
{
name = g;
transform = "{1, 0, 0, 1, -38, 0}";
}
);
paths = (
{
closed = 1;
nodes = (
"312 599 LINE SMOOTH",
"322 599 OFFCURVE",
"330 605 OFFCURVE",
"330 619 CURVE SMOOTH",
"330 680 LINE SMOOTH",
"330 696 OFFCURVE",
"324 702 OFFCURVE",
"307 702 CURVE SMOOTH",
"298 702 LINE SMOOTH",
"284 702 OFFCURVE",
"278 717 OFFCURVE",
"289 731 CURVE SMOOTH",
"322 776 LINE SMOOTH",
"328 784 OFFCURVE",
"321 796 OFFCURVE",
"310 796 CURVE SMOOTH",
"292 796 LINE SMOOTH",
"274 796 OFFCURVE",
"267 793 OFFCURVE",
"259 782 CURVE SMOOTH",
"205 715 LINE SMOOTH",
"204 712 OFFCURVE",
"201 707 OFFCURVE",
"201 702 CURVE SMOOTH",
"201 615 LINE SMOOTH",
"201 605 OFFCURVE",
"207 599 OFFCURVE",
"218 599 CURVE SMOOTH"
);
}
);
};
components = (
{
name = g;
}
);
layerId = "258ED206-D907-4350-8EBA-CBDDA1C16BF7";
paths = (
{
closed = 1;
nodes = (
"407 584 LINE",
"421 684 LINE",
"360 684 LINE",
"440 776 LINE",
"374 776 LINE",
"296 692 LINE",
"281 584 LINE"
);
}
);
width = 635;
},
{
anchors = (
{
name = _top;
position = "{279, 536}";
}
);
background = {
anchors = (
{
name = _top;
position = "{287, 550}";
}
);
components = (
{
name = g;
transform = "{1, 0, 0, 1, 4, 0}";
}
);
paths = (
{
closed = 1;
nodes = (
"306 632 LINE SMOOTH",
"310 632 OFFCURVE",
"313 634 OFFCURVE",
"313 640 CURVE SMOOTH",
"313 706 LINE SMOOTH",
"313 713 OFFCURVE",
"311 715 OFFCURVE",
"305 715 CURVE SMOOTH",
"297 715 LINE SMOOTH",
"292 715 OFFCURVE",
"290 718 OFFCURVE",
"293 724 CURVE SMOOTH",
"318 778 LINE SMOOTH",
"320 782 OFFCURVE",
"318 786 OFFCURVE",
"314 786 CURVE SMOOTH",
"301 786 LINE SMOOTH",
"293 786 OFFCURVE",
"290 785 OFFCURVE",
"287 780 CURVE SMOOTH",
"256 721 LINE SMOOTH",
"256 720 OFFCURVE",
"255 717 OFFCURVE",
"255 715 CURVE SMOOTH",
"255 639 LINE SMOOTH",
"255 634 OFFCURVE",
"257 632 OFFCURVE",
"261 632 CURVE SMOOTH"
);
}
);
};
components = (
{
name = g;
}
);
layerId = "91AB5BCA-6A50-42DA-B2F7-8181BF189245";
paths = (
{
closed = 1;
nodes = (
"344 616 LINE",
"356 697 LINE",
"333 697 LINE",
"375 766 LINE",
"344 766 LINE",
"300 701 LINE",
"288 616 LINE"
);
}
);
width = 564;
}
);
leftKerningGroup = g;
leftMetricsKey = g;
rightKerningGroup = g;
rightMetricsKey = g;
unicode = 0123;
},
{
glyphname = h;
lastChange = "2019-04-16 04:59:04 +0000";
layers = (
{
anchors = (
{
name = bottom;
position = "{270, 0}";
},
{
name = top;
position = "{483, 517}";
}
);
background = {
anchors = (
{
name = bottom;
position = "{313, 0}";
},
{
name = top;
position = "{452, 530}";
}
);
paths = (
{
closed = 1;
nodes = (
"216 0 LINE SMOOTH",
"240 0 OFFCURVE",
"249 8 OFFCURVE",
"249 29 CURVE SMOOTH",
"249 349 LINE",
"268 383 OFFCURVE",
"292 399 OFFCURVE",
"323 399 CURVE SMOOTH",
"355 399 OFFCURVE",
"375 381 OFFCURVE",
"375 351 CURVE SMOOTH",
"375 25 LINE SMOOTH",
"375 6 OFFCURVE",
"381 0 OFFCURVE",
"398 0 CURVE SMOOTH",
"545 0 LINE SMOOTH",
"566 0 OFFCURVE",
"575 10 OFFCURVE",
"575 30 CURVE SMOOTH",
"575 375 LINE SMOOTH",
"575 481 OFFCURVE",
"518 540 OFFCURVE",
"419 540 CURVE SMOOTH",
"366 540 OFFCURVE",
"316 523 OFFCURVE",
"259 468 CURVE SMOOTH",
"251 461 OFFCURVE",
"246 464 OFFCURVE",
"246 472 CURVE SMOOTH",
"246 721 LINE SMOOTH",
"246 734 OFFCURVE",
"240 742 OFFCURVE",
"228 742 CURVE SMOOTH",
"68 742 LINE SMOOTH",
"56 742 OFFCURVE",
"49 733 OFFCURVE",
"49 719 CURVE SMOOTH",
"49 25 LINE SMOOTH",
"49 7 OFFCURVE",
"56 0 OFFCURVE",
"75 0 CURVE SMOOTH"
);
}
);
};
layerId = "258ED206-D907-4350-8EBA-CBDDA1C16BF7";
paths = (
{
closed = 1;
nodes = (
"208 0 LINE",
"257 321 LINE",
"261 350 OFFCURVE",
"296 370 OFFCURVE",
"325 370 CURVE SMOOTH",
"354 370 OFFCURVE",
"383 352 OFFCURVE",
"378 323 CURVE SMOOTH",
"329 0 LINE",
"523 0 LINE",
"576 346 LINE SMOOTH",
"591 449 OFFCURVE",
"518 517 OFFCURVE",
"422 517 CURVE SMOOTH",
"341 517 OFFCURVE",
"305 483 OFFCURVE",
"277 453 CURVE",
"321 743 LINE",
"127 743 LINE",
"14 0 LINE"
);
}
);
width = 609;
},
{
anchors = (
{
name = bottom;
position = "{249, 0}";
},
{
name = top;
position = "{342, 517}";
}
);
background = {
anchors = (
{
name = bottom;
position = "{311, 0}";
},
{
name = top;
position = "{333, 530}";
}
);
paths = (
{
closed = 1;
nodes = (
"130 0 LINE SMOOTH",
"136 0 OFFCURVE",
"139 3 OFFCURVE",
"139 9 CURVE SMOOTH",
"139 410 LINE",
"219 471 OFFCURVE",
"266 502 OFFCURVE",
"337 502 CURVE SMOOTH",
"424 502 OFFCURVE",
"460 455 OFFCURVE",
"460 377 CURVE SMOOTH",
"460 9 LINE SMOOTH",
"460 3 OFFCURVE",
"463 0 OFFCURVE",
"469 0 CURVE SMOOTH",
"491 0 LINE SMOOTH",
"497 0 OFFCURVE",
"500 3 OFFCURVE",
"500 10 CURVE SMOOTH",
"500 393 LINE SMOOTH",
"500 480 OFFCURVE",
"445 540 OFFCURVE",
"338 540 CURVE SMOOTH",
"265 540 OFFCURVE",
"220 511 OFFCURVE",
"144 457 CURVE SMOOTH",
"138 452 OFFCURVE",
"136 453 OFFCURVE",
"136 460 CURVE SMOOTH",
"136 734 LINE SMOOTH",
"136 740 OFFCURVE",
"134 742 OFFCURVE",
"128 742 CURVE SMOOTH",
"107 742 LINE SMOOTH",
"101 742 OFFCURVE",
"99 739 OFFCURVE",
"99 733 CURVE SMOOTH",
"99 9 LINE SMOOTH",
"99 3 OFFCURVE",
"102 0 OFFCURVE",
"108 0 CURVE SMOOTH"
);
}
);
};
layerId = "91AB5BCA-6A50-42DA-B2F7-8181BF189245";
paths = (
{
closed = 1;
nodes = (
"95 0 LINE",
"146 360 LINE",
"158 448 OFFCURVE",
"237 489 OFFCURVE",
"321 489 CURVE SMOOTH",
"402 489 OFFCURVE",
"446 444 OFFCURVE",
"435 368 CURVE SMOOTH",
"383 0 LINE",
"419 0 LINE",
"473 383 LINE SMOOTH",
"485 468 OFFCURVE",
"422 527 OFFCURVE",
"328 527 CURVE SMOOTH",
"250 527 OFFCURVE",
"186 489 OFFCURVE",
"154 440 CURVE",
"197 743 LINE",
"164 743 LINE",
"59 0 LINE"
);
}
);
width = 546;
}
);
leftKerningGroup = h;
leftMetricsKey = n;
rightKerningGroup = n;
rightMetricsKey = n;
unicode = 0068;
},
{
glyphname = hbar;
lastChange = "2019-04-16 04:59:24 +0000";
layers = (
{
background = {
components = (
{
name = h;
transform = "{1, 0, 0, 1, 12, 0}";
}
);
paths = (
{
closed = 1;
nodes = (
"383 680 OFFCURVE",
"377 687 OFFCURVE",
"367 687 CURVE SMOOTH",
"28 687 LINE SMOOTH",
"18 687 OFFCURVE",
"12 680 OFFCURVE",
"12 667 CURVE SMOOTH",
"12 602 LINE SMOOTH",
"12 587 OFFCURVE",
"17 580 OFFCURVE",
"34 580 CURVE SMOOTH",
"354 580 LINE SMOOTH",
"374 580 OFFCURVE",
"383 587 OFFCURVE",
"383 604 CURVE SMOOTH",
"383 669 LINE SMOOTH"
);
}
);
};
components = (
{
name = h;
transform = "{1, 0, 0, 1, 50, 0}";
}
);
layerId = "258ED206-D907-4350-8EBA-CBDDA1C16BF7";
paths = (
{
closed = 1;
nodes = (
"425 566 LINE",
"439 670 LINE",
"78 670 LINE",
"64 566 LINE"
);
}
);
width = 659;
},
{
background = {
components = (
{
name = h;
transform = "{1, 0, 0, 1, 53, 0}";
}
);
paths = (
{
closed = 1;
nodes = (
"362 660 OFFCURVE",
"360 662 OFFCURVE",
"357 662 CURVE SMOOTH",
"78 662 LINE SMOOTH",
"75 662 OFFCURVE",
"73 660 OFFCURVE",
"73 655 CURVE SMOOTH",
"73 635 LINE SMOOTH",
"73 629 OFFCURVE",
"74 627 OFFCURVE",
"80 627 CURVE SMOOTH",
"352 627 LINE SMOOTH",
"359 627 OFFCURVE",
"362 629 OFFCURVE",
"362 635 CURVE SMOOTH",
"362 656 LINE SMOOTH"
);
}
);
};
components = (
{
name = h;
transform = "{1, 0, 0, 1, 49, 0}";
}
);
layerId = "91AB5BCA-6A50-42DA-B2F7-8181BF189245";
paths = (
{
closed = 1;
nodes = (
"352 611 LINE",
"356 645 LINE",
"74 645 LINE",
"70 611 LINE"
);
}
);
width = 595;
}
);
leftKerningGroup = h;
rightKerningGroup = n;
rightMetricsKey = h;
unicode = 0127;
},
{
glyphname = i;
lastChange = "2019-04-16 04:59:24 +0000";
layers = (
{
anchors = (
{
name = bottom;
position = "{112, 0}";
}
);
background = {
paths = (
{
closed = 1;
nodes = (
"252 522 OFFCURVE",
"245 530 OFFCURVE",
"234 530 CURVE SMOOTH",
"71 530 LINE SMOOTH",
"59 530 OFFCURVE",
"52 522 OFFCURVE",
"52 507 CURVE SMOOTH",
"52 25 LINE SMOOTH",
"52 8 OFFCURVE",
"58 0 OFFCURVE",
"78 0 CURVE SMOOTH",
"219 0 LINE SMOOTH",
"242 0 OFFCURVE",
"252 8 OFFCURVE",
"252 29 CURVE SMOOTH",
"252 510 LINE SMOOTH"
);
},
{
closed = 1;
nodes = (
"252 734 OFFCURVE",
"245 742 OFFCURVE",
"234 742 CURVE SMOOTH",
"71 742 LINE SMOOTH",
"59 742 OFFCURVE",
"52 734 OFFCURVE",
"52 719 CURVE SMOOTH",
"52 600 LINE SMOOTH",
"52 583 OFFCURVE",
"58 574 OFFCURVE",
"78 574 CURVE SMOOTH",
"219 574 LINE SMOOTH",
"242 574 OFFCURVE",
"252 583 OFFCURVE",
"252 603 CURVE SMOOTH",
"252 721 LINE SMOOTH"
);
}
);
};
layerId = "258ED206-D907-4350-8EBA-CBDDA1C16BF7";
paths = (
{
closed = 1;
nodes = (
"208 0 LINE",
"286 517 LINE",
"93 517 LINE",
"14 0 LINE"
);
},
{
closed = 1;
nodes = (
"296 579 LINE",
"321 743 LINE",
"127 743 LINE",
"102 579 LINE"
);
}
);
width = 298;
},
{
anchors = (
{
name = bottom;
position = "{86, 0}";
}
);
background = {
paths = (
{
closed = 1;
nodes = (
"160 528 OFFCURVE",
"158 530 OFFCURVE",
"151 530 CURVE SMOOTH",
"129 530 LINE SMOOTH",
"122 530 OFFCURVE",
"120 528 OFFCURVE",
"120 520 CURVE SMOOTH",
"120 10 LINE SMOOTH",
"120 2 OFFCURVE",
"122 0 OFFCURVE",
"131 0 CURVE SMOOTH",
"148 0 LINE SMOOTH",
"158 0 OFFCURVE",
"160 2 OFFCURVE",
"160 12 CURVE SMOOTH",
"160 520 LINE SMOOTH"
);
},
{
closed = 1;
nodes = (
"165 737 OFFCURVE",
"160 742 OFFCURVE",
"153 742 CURVE SMOOTH",
"127 742 LINE SMOOTH",
"120 742 OFFCURVE",
"115 737 OFFCURVE",
"115 729 CURVE SMOOTH",
"115 658 LINE SMOOTH",
"115 650 OFFCURVE",
"117 644 OFFCURVE",
"126 644 CURVE SMOOTH",
"153 644 LINE SMOOTH",
"163 644 OFFCURVE",
"165 650 OFFCURVE",
"165 660 CURVE SMOOTH",
"165 729 LINE SMOOTH"
);
}
);
};
layerId = "91AB5BCA-6A50-42DA-B2F7-8181BF189245";
paths = (
{
closed = 1;
nodes = (
"105 0 LINE",
"177 517 LINE",
"141 517 LINE",
"69 0 LINE"
);
},
{
closed = 1;
nodes = (
"199 647 LINE",
"208 707 LINE",
"164 707 LINE",
"155 647 LINE"
);
}
);
width = 245;
}
);
leftKerningGroup = n;
rightKerningGroup = d;
unicode = 0069;
},
{
glyphname = idotless;
lastChange = "2019-04-16 04:59:24 +0000";
layers = (
{
anchors = (
{
name = ogonek;
position = "{182, 9}";
},
{
name = top;
position = "{193, 517}";
}
);
background = {
anchors = (
{
name = ogonek;
position = "{207, 9}";
},
{
name = top;
position = "{139, 530}";
}
);
paths = (
{
closed = 1;
nodes = (
"235 522 OFFCURVE",
"228 530 OFFCURVE",
"217 530 CURVE SMOOTH",
"54 530 LINE SMOOTH",
"42 530 OFFCURVE",
"35 522 OFFCURVE",
"35 507 CURVE SMOOTH",
"35 25 LINE SMOOTH",
"35 8 OFFCURVE",
"41 0 OFFCURVE",
"61 0 CURVE SMOOTH",
"202 0 LINE SMOOTH",
"225 0 OFFCURVE",
"235 8 OFFCURVE",
"235 29 CURVE SMOOTH",
"235 510 LINE SMOOTH"
);
}
);
};
layerId = "258ED206-D907-4350-8EBA-CBDDA1C16BF7";
paths = (
{
closed = 1;
nodes = (
"208 0 LINE",
"287 517 LINE",
"93 517 LINE",
"14 0 LINE"
);
}
);
width = 296;
},
{
anchors = (
{
name = ogonek;
position = "{95, 13}";
},
{
name = top;
position = "{154, 517}";
}
);
background = {
anchors = (
{
name = ogonek;
position = "{134, 13}";
},
{
name = top;
position = "{122, 530}";
}
);
paths = (
{
closed = 1;
nodes = (
"142 528 OFFCURVE",
"140 530 OFFCURVE",
"133 530 CURVE SMOOTH",
"111 530 LINE SMOOTH",
"104 530 OFFCURVE",
"102 528 OFFCURVE",
"102 520 CURVE SMOOTH",
"102 10 LINE SMOOTH",
"102 2 OFFCURVE",
"104 0 OFFCURVE",
"113 0 CURVE SMOOTH",
"130 0 LINE SMOOTH",
"140 0 OFFCURVE",
"142 2 OFFCURVE",
"142 12 CURVE SMOOTH",
"142 520 LINE SMOOTH"
);
}
);
};
layerId = "91AB5BCA-6A50-42DA-B2F7-8181BF189245";
paths = (
{
closed = 1;
nodes = (
"100 0 LINE",
"173 517 LINE",
"137 517 LINE",
"64 0 LINE"
);
}
);
width = 237;
}
);
leftKerningGroup = n;
leftMetricsKey = i;
rightKerningGroup = d;
rightMetricsKey = i;
unicode = 0131;
},
{
glyphname = j;
lastChange = "2019-04-16 04:59:24 +0000";
layers = (
{
background = {
paths = (
{
closed = 1;
nodes = (
"258 510 LINE SMOOTH",
"258 522 OFFCURVE",
"252 530 OFFCURVE",
"240 530 CURVE SMOOTH",
"78 530 LINE SMOOTH",
"66 530 OFFCURVE",
"58 522 OFFCURVE",
"58 507 CURVE SMOOTH",
"58 36 LINE SMOOTH",
"58 2 OFFCURVE",
"47 -6 OFFCURVE",
"34 -10 CURVE SMOOTH",
"-1 -16 LINE SMOOTH",
"-14 -19 OFFCURVE",
"-21 -32 OFFCURVE",
"-21 -43 CURVE SMOOTH",
"-20 -145 LINE SMOOTH",
"-20 -166 OFFCURVE",
"-8 -170 OFFCURVE",
"48 -170 CURVE SMOOTH",
"190 -170 OFFCURVE",
"258 -103 OFFCURVE",
"258 29 CURVE SMOOTH"
);
},
{
closed = 1;
nodes = (
"258 734 OFFCURVE",
"252 742 OFFCURVE",
"240 742 CURVE SMOOTH",
"78 742 LINE SMOOTH",
"66 742 OFFCURVE",
"58 734 OFFCURVE",
"58 719 CURVE SMOOTH",
"58 600 LINE SMOOTH",
"58 583 OFFCURVE",
"65 574 OFFCURVE",
"85 574 CURVE SMOOTH",
"226 574 LINE SMOOTH",
"226 574 OFFCURVE",
"258 583 OFFCURVE",
"258 603 CURVE SMOOTH",
"258 721 LINE SMOOTH"
);
}
);
};
layerId = "258ED206-D907-4350-8EBA-CBDDA1C16BF7";
paths = (
{
closed = 1;
nodes = (
"134 -166 OFFCURVE",
"210 -100 OFFCURVE",
"229 28 CURVE SMOOTH",
"304 517 LINE",
"110 517 LINE",
"36 28 LINE",
"33 7 OFFCURVE",
"21 -6 OFFCURVE",
"-17 -14 CURVE",
"-48 -19 LINE",
"-67 -149 LINE",
"-67 -149 OFFCURVE",
"-54 -166 OFFCURVE",
"-3 -166 CURVE"
);
},
{
closed = 1;
nodes = (
"313 579 LINE",
"338 743 LINE",
"144 743 LINE",
"119 579 LINE"
);
}
);
width = 325;
},
{
background = {
paths = (
{
closed = 1;
nodes = (
"143 520 LINE SMOOTH",
"143 527 OFFCURVE",
"141 530 OFFCURVE",
"135 530 CURVE SMOOTH",
"113 530 LINE SMOOTH",
"106 530 OFFCURVE",
"103 527 OFFCURVE",
"103 520 CURVE SMOOTH",
"103 -46 LINE SMOOTH",
"103 -110 OFFCURVE",
"82 -132 OFFCURVE",
"29 -133 CURVE SMOOTH",
"-29 -134 LINE SMOOTH",
"-33 -134 OFFCURVE",
"-35 -136 OFFCURVE",
"-35 -140 CURVE SMOOTH",
"-35 -161 LINE SMOOTH",
"-35 -169 OFFCURVE",
"-29 -170 OFFCURVE",
"30 -170 CURVE SMOOTH",
"121 -170 OFFCURVE",
"143 -133 OFFCURVE",
"143 -51 CURVE SMOOTH"
);
},
{
closed = 1;
nodes = (
"148 737 OFFCURVE",
"143 742 OFFCURVE",
"136 742 CURVE SMOOTH",
"110 742 LINE SMOOTH",
"103 742 OFFCURVE",
"98 737 OFFCURVE",
"98 729 CURVE SMOOTH",
"98 658 LINE SMOOTH",
"98 650 OFFCURVE",
"100 644 OFFCURVE",
"109 644 CURVE SMOOTH",
"136 644 LINE SMOOTH",
"146 644 OFFCURVE",
"148 650 OFFCURVE",
"148 660 CURVE SMOOTH",
"148 729 LINE SMOOTH"
);
}
);
};
layerId = "91AB5BCA-6A50-42DA-B2F7-8181BF189245";
paths = (
{
closed = 1;
nodes = (
"51 -166 OFFCURVE",
"75 -130 OFFCURVE",
"86 -50 CURVE SMOOTH",
"166 517 LINE",
"130 517 LINE",
"51 -45 LINE SMOOTH",
"42 -107 OFFCURVE",
"21 -129 OFFCURVE",
"-27 -130 CURVE SMOOTH",
"-84 -131 LINE",
"-88 -157 LINE SMOOTH",
"-88 -157 OFFCURVE",
"-85 -166 OFFCURVE",
"-31 -166 CURVE SMOOTH"
);
},
{
closed = 1;
nodes = (
"189 647 LINE",
"197 707 LINE",
"153 707 LINE",
"145 647 LINE"
);
}
);
width = 224;
}
);
leftKerningGroup = n;
rightKerningGroup = d;
unicode = 006A;
},
{
glyphname = jdotless;
lastChange = "2019-04-16 04:59:24 +0000";
layers = (
{
anchors = (
{
name = top;
position = "{201, 517}";
}
);
background = {
anchors = (
{
name = top;
position = "{135, 530}";
}
);
paths = (
{
closed = 1;
nodes = (
"235 510 LINE SMOOTH",
"235 522 OFFCURVE",
"229 530 OFFCURVE",
"217 530 CURVE SMOOTH",
"55 530 LINE SMOOTH",
"43 530 OFFCURVE",
"35 522 OFFCURVE",
"35 507 CURVE SMOOTH",
"35 36 LINE SMOOTH",
"35 2 OFFCURVE",
"24 -6 OFFCURVE",
"11 -10 CURVE SMOOTH",
"-24 -16 LINE SMOOTH",
"-37 -19 OFFCURVE",
"-44 -32 OFFCURVE",
"-44 -43 CURVE SMOOTH",
"-43 -145 LINE SMOOTH",
"-43 -166 OFFCURVE",
"-31 -170 OFFCURVE",
"25 -170 CURVE SMOOTH",
"167 -170 OFFCURVE",
"235 -103 OFFCURVE",
"235 29 CURVE SMOOTH"
);
}
);
};
layerId = "258ED206-D907-4350-8EBA-CBDDA1C16BF7";
paths = (
{
closed = 1;
nodes = (
"129 -166 OFFCURVE",
"205 -100 OFFCURVE",
"225 28 CURVE SMOOTH",
"299 517 LINE",
"105 517 LINE",
"31 28 LINE",
"28 7 OFFCURVE",
"15 -6 OFFCURVE",
"-23 -14 CURVE",
"-53 -19 LINE",
"-72 -149 LINE",
"-72 -149 OFFCURVE",
"-60 -166 OFFCURVE",
"-9 -166 CURVE"
);
}
);
width = 333;
},
{
anchors = (
{
name = top;
position = "{134, 517}";
}
);
background = {
anchors = (
{
name = top;
position = "{95, 530}";
}
);
paths = (
{
closed = 1;
nodes = (
"115 520 LINE SMOOTH",
"115 527 OFFCURVE",
"113 530 OFFCURVE",
"107 530 CURVE SMOOTH",
"85 530 LINE SMOOTH",
"78 530 OFFCURVE",
"75 527 OFFCURVE",
"75 520 CURVE SMOOTH",
"75 -46 LINE SMOOTH",
"75 -110 OFFCURVE",
"54 -132 OFFCURVE",
"1 -133 CURVE SMOOTH",
"-57 -134 LINE SMOOTH",
"-61 -134 OFFCURVE",
"-63 -136 OFFCURVE",
"-63 -140 CURVE SMOOTH",
"-63 -161 LINE SMOOTH",
"-63 -169 OFFCURVE",
"-57 -170 OFFCURVE",
"2 -170 CURVE SMOOTH",
"93 -170 OFFCURVE",
"115 -133 OFFCURVE",
"115 -51 CURVE SMOOTH"
);
}
);
};
layerId = "91AB5BCA-6A50-42DA-B2F7-8181BF189245";
paths = (
{
closed = 1;
nodes = (
"36 -166 OFFCURVE",
"61 -130 OFFCURVE",
"72 -50 CURVE SMOOTH",
"152 517 LINE",
"116 517 LINE",
"37 -45 LINE SMOOTH",
"28 -107 OFFCURVE",
"6 -129 OFFCURVE",
"-41 -130 CURVE SMOOTH",
"-99 -131 LINE",
"-103 -157 LINE SMOOTH",
"-104 -165 OFFCURVE",
"-99 -166 OFFCURVE",
"-45 -166 CURVE SMOOTH"
);
}
);
width = 201;
}
);
leftKerningGroup = n;
rightKerningGroup = d;
unicode = 0237;
},
{
glyphname = k;
lastChange = "2019-04-16 04:59:24 +0000";
layers = (
{
anchors = (
{
name = bottom;
position = "{265, 0}";
}
);
background = {
anchors = (
{
name = bottom;
position = "{309, 0}";
}
);
paths = (
{
closed = 1;
nodes = (
"462 337 LINE SMOOTH",
"453 355 OFFCURVE",
"455 361 OFFCURVE",
"464 372 CURVE SMOOTH",
"593 501 LINE SMOOTH",
"606 515 OFFCURVE",
"602 530 OFFCURVE",
"579 530 CURVE SMOOTH",
"442 530 LINE SMOOTH",
"432 530 OFFCURVE",
"421 523 OFFCURVE",
"411 513 CURVE SMOOTH",
"261 344 LINE SMOOTH",
"253 335 OFFCURVE",
"249 340 OFFCURVE",
"249 346 CURVE SMOOTH",
"249 721 LINE SMOOTH",
"249 734 OFFCURVE",
"243 742 OFFCURVE",
"231 742 CURVE SMOOTH",
"68 742 LINE SMOOTH",
"57 742 OFFCURVE",
"49 734 OFFCURVE",
"49 719 CURVE SMOOTH",
"49 25 LINE SMOOTH",
"49 8 OFFCURVE",
"55 0 OFFCURVE",
"76 0 CURVE SMOOTH",
"217 0 LINE SMOOTH",
"240 0 OFFCURVE",
"249 8 OFFCURVE",
"249 29 CURVE SMOOTH",
"249 130 LINE SMOOTH",
"249 146 OFFCURVE",
"252 153 OFFCURVE",
"258 158 CURVE SMOOTH",
"306 203 LINE SMOOTH",
"316 213 OFFCURVE",
"321 211 OFFCURVE",
"327 198 CURVE SMOOTH",
"399 26 LINE SMOOTH",
"406 10 OFFCURVE",
"415 0 OFFCURVE",
"432 0 CURVE SMOOTH",
"603 0 LINE SMOOTH",
"621 0 OFFCURVE",
"628 17 OFFCURVE",
"622 28 CURVE SMOOTH"
);
}
);
};
guideLines = (
{
angle = 50.4927;
position = "{262, 343}";
},
{
angle = 122;
position = "{403, 0}";
}
);
layerId = "258ED206-D907-4350-8EBA-CBDDA1C16BF7";
paths = (
{
closed = 1;
nodes = (
"207 0 LINE",
"230 146 LINE",
"274 190 LINE",
"363 0 LINE",
"551 0 LINE",
"408 303 LINE",
"629 517 LINE",
"427 517 LINE",
"259 343 LINE",
"320 743 LINE",
"126 743 LINE",
"14 0 LINE"
);
}
);
width = 603;
},
{
anchors = (
{
name = bottom;
position = "{222, 0}";
}
);
background = {
anchors = (
{
name = bottom;
position = "{280, 0}";
}
);
paths = (
{
closed = 1;
nodes = (
"313 331 LINE SMOOTH",
"310 336 OFFCURVE",
"311 339 OFFCURVE",
"314 342 CURVE SMOOTH",
"483 515 LINE SMOOTH",
"492 524 OFFCURVE",
"491 530 OFFCURVE",
"481 530 CURVE SMOOTH",
"449 530 LINE SMOOTH",
"442 530 OFFCURVE",
"439 528 OFFCURVE",
"432 520 CURVE",
"148 229 LINE SMOOTH",
"140 221 OFFCURVE",
"138 222 OFFCURVE",
"138 234 CURVE SMOOTH",
"138 732 LINE SMOOTH",
"138 740 OFFCURVE",
"136 742 OFFCURVE",
"129 742 CURVE SMOOTH",
"107 742 LINE SMOOTH",
"100 742 OFFCURVE",
"98 740 OFFCURVE",
"98 732 CURVE SMOOTH",
"98 10 LINE SMOOTH",
"98 2 OFFCURVE",
"100 0 OFFCURVE",
"109 0 CURVE SMOOTH",
"126 0 LINE SMOOTH",
"136 0 OFFCURVE",
"138 2 OFFCURVE",
"138 12 CURVE SMOOTH",
"138 152 LINE SMOOTH",
"138 159 OFFCURVE",
"140 164 OFFCURVE",
"145 169 CURVE SMOOTH",
"273 299 LINE SMOOTH",
"278 304 OFFCURVE",
"279 302 OFFCURVE",
"281 299 CURVE SMOOTH",
"463 7 LINE SMOOTH",
"466 2 OFFCURVE",
"469 0 OFFCURVE",
"475 0 CURVE SMOOTH",
"506 0 LINE SMOOTH",
"515 0 OFFCURVE",
"516 4 OFFCURVE",
"511 12 CURVE SMOOTH"
);
}
);
};
guideLines = (
{
angle = 121.8697;
position = "{303, 140}";
}
);
layerId = "91AB5BCA-6A50-42DA-B2F7-8181BF189245";
paths = (
{
closed = 1;
nodes = (
"95 0 LINE",
"117 158 LINE",
"262 296 LINE",
"389 0 LINE",
"435 0 LINE",
"294 329 LINE",
"491 517 LINE",
"440 517 LINE",
"125 214 LINE",
"199 743 LINE",
"164 743 LINE",
"59 0 LINE"
);
}
);
width = 516;
}
);
leftKerningGroup = h;
leftMetricsKey = n;
rightKerningGroup = k;
unicode = 006B;
},
{
glyphname = kgreenlandic;
lastChange = "2019-04-16 04:59:24 +0000";
layers = (
{
background = {
paths = (
{
closed = 1;
nodes = (
"446 337 LINE SMOOTH",
"437 355 OFFCURVE",
"439 361 OFFCURVE",
"448 372 CURVE SMOOTH",
"577 501 LINE SMOOTH",
"590 515 OFFCURVE",
"586 530 OFFCURVE",
"563 530 CURVE SMOOTH",
"426 530 LINE SMOOTH",
"416 530 OFFCURVE",
"405 523 OFFCURVE",
"395 513 CURVE SMOOTH",
"245 344 LINE SMOOTH",
"237 335 OFFCURVE",
"233 340 OFFCURVE",
"233 346 CURVE SMOOTH",
"233 509 LINE SMOOTH",
"233 522 OFFCURVE",
"227 530 OFFCURVE",
"215 530 CURVE SMOOTH",
"52 530 LINE SMOOTH",
"41 530 OFFCURVE",
"33 522 OFFCURVE",
"33 507 CURVE SMOOTH",
"33 25 LINE SMOOTH",
"33 8 OFFCURVE",
"39 0 OFFCURVE",
"60 0 CURVE SMOOTH",
"201 0 LINE SMOOTH",
"224 0 OFFCURVE",
"233 8 OFFCURVE",
"233 29 CURVE SMOOTH",
"233 130 LINE SMOOTH",
"233 146 OFFCURVE",
"236 153 OFFCURVE",
"242 158 CURVE SMOOTH",
"290 203 LINE SMOOTH",
"300 213 OFFCURVE",
"305 211 OFFCURVE",
"311 198 CURVE SMOOTH",
"383 26 LINE SMOOTH",
"390 10 OFFCURVE",
"399 0 OFFCURVE",
"416 0 CURVE SMOOTH",
"587 0 LINE SMOOTH",
"605 0 OFFCURVE",
"612 17 OFFCURVE",
"606 28 CURVE SMOOTH"
);
}
);
};
layerId = "258ED206-D907-4350-8EBA-CBDDA1C16BF7";
paths = (
{
closed = 1;
nodes = (
"208 0 LINE",
"230 146 LINE",
"308 211 LINE",
"364 0 LINE",
"582 0 LINE",
"457 350 LINE",
"647 517 LINE",
"457 517 LINE",
"257 322 LINE",
"286 517 LINE",
"93 517 LINE",
"14 0 LINE"
);
}
);
width = 628;
},
{
background = {
paths = (
{
closed = 1;
nodes = (
"297 331 LINE SMOOTH",
"294 336 OFFCURVE",
"295 339 OFFCURVE",
"298 342 CURVE SMOOTH",
"467 515 LINE SMOOTH",
"476 524 OFFCURVE",
"475 530 OFFCURVE",
"465 530 CURVE SMOOTH",
"433 530 LINE SMOOTH",
"426 530 OFFCURVE",
"423 528 OFFCURVE",
"416 520 CURVE",
"132 229 LINE SMOOTH",
"124 221 OFFCURVE",
"122 222 OFFCURVE",
"122 234 CURVE SMOOTH",
"122 520 LINE SMOOTH",
"122 528 OFFCURVE",
"120 530 OFFCURVE",
"113 530 CURVE SMOOTH",
"91 530 LINE SMOOTH",
"84 530 OFFCURVE",
"82 528 OFFCURVE",
"82 520 CURVE SMOOTH",
"82 10 LINE SMOOTH",
"82 2 OFFCURVE",
"84 0 OFFCURVE",
"93 0 CURVE SMOOTH",
"110 0 LINE SMOOTH",
"120 0 OFFCURVE",
"122 2 OFFCURVE",
"122 12 CURVE SMOOTH",
"122 152 LINE SMOOTH",
"122 159 OFFCURVE",
"124 164 OFFCURVE",
"129 169 CURVE SMOOTH",
"257 299 LINE SMOOTH",
"262 304 OFFCURVE",
"263 302 OFFCURVE",
"265 299 CURVE SMOOTH",
"447 7 LINE SMOOTH",
"450 2 OFFCURVE",
"453 0 OFFCURVE",
"459 0 CURVE SMOOTH",
"490 0 LINE SMOOTH",
"499 0 OFFCURVE",
"500 4 OFFCURVE",
"495 12 CURVE SMOOTH"
);
}
);
};
layerId = "91AB5BCA-6A50-42DA-B2F7-8181BF189245";
paths = (
{
closed = 1;
nodes = (
"95 0 LINE",
"117 158 LINE",
"262 296 LINE",
"389 0 LINE",
"435 0 LINE",
"294 329 LINE",
"490 517 LINE",
"440 517 LINE",
"125 214 LINE",
"168 517 LINE",
"132 517 LINE",
"59 0 LINE"
);
}
);
width = 516;
}
);
leftKerningGroup = h;
leftMetricsKey = k;
rightKerningGroup = k;
rightMetricsKey = k;
unicode = 0138;
},
{
glyphname = l;
lastChange = "2019-04-16 04:59:24 +0000";
layers = (
{
anchors = (
{
name = bottom;
position = "{95, 0}";
},
{
name = top;
position = "{225, 765}";
},
{
name = topright;
position = "{466, 765}";
}
);
background = {
anchors = (
{
name = bottom;
position = "{91, 0}";
},
{
name = top;
position = "{147, 742}";
},
{
name = topright;
position = "{334, 530}";
}
);
paths = (
{
closed = 1;
nodes = (
"324 129 LINE",
"324 129 OFFCURVE",
"298 131 OFFCURVE",
"289 133 CURVE SMOOTH",
"250 142 OFFCURVE",
"243 163 OFFCURVE",
"243 190 CURVE SMOOTH",
"243 742 LINE",
"46 742 LINE",
"43 173 LINE",
"43 95 OFFCURVE",
"54 -1 OFFCURVE",
"249 2 CURVE SMOOTH",
"275 3 OFFCURVE",
"291 5 OFFCURVE",
"324 9 CURVE"
);
}
);
};
layerId = "258ED206-D907-4350-8EBA-CBDDA1C16BF7";
paths = (
{
closed = 1;
nodes = (
"231 -11 OFFCURVE",
"257 -4 OFFCURVE",
"281 5 CURVE",
"299 123 LINE",
"279 125 LINE",
"228 132 OFFCURVE",
"226 157 OFFCURVE",
"230 182 CURVE SMOOTH",
"315 743 LINE",
"125 743 LINE",
"36 156 LINE",
"25 80 OFFCURVE",
"17 -11 OFFCURVE",
"207 -11 CURVE SMOOTH"
);
}
);
width = 338;
},
{
anchors = (
{
name = bottom;
position = "{96, 1}";
},
{
name = top;
position = "{181, 762}";
},
{
name = topright;
position = "{306, 723}";
}
);
background = {
anchors = (
{
name = bottom;
position = "{126, 0}";
},
{
name = top;
position = "{126, 742}";
},
{
name = topright;
position = "{271, 742}";
}
);
paths = (
{
closed = 1;
nodes = (
"256 36 LINE",
"246 36 OFFCURVE",
"233 36 OFFCURVE",
"217 36 CURVE SMOOTH",
"153 36 OFFCURVE",
"146 87 OFFCURVE",
"146 130 CURVE",
"146 742 LINE",
"106 742 LINE",
"106 130 LINE",
"106 57 OFFCURVE",
"134 2 OFFCURVE",
"205 2 CURVE SMOOTH",
"229 2 OFFCURVE",
"243 3 OFFCURVE",
"256 6 CURVE"
);
}
);
};
layerId = "91AB5BCA-6A50-42DA-B2F7-8181BF189245";
paths = (
{
closed = 1;
nodes = (
"153 -4 OFFCURVE",
"166 -3 OFFCURVE",
"178 0 CURVE",
"182 29 LINE",
"153 29 LINE",
"127 29 OFFCURVE",
"103 54 OFFCURVE",
"112 121 CURVE",
"200 743 LINE",
"164 743 LINE",
"76 121 LINE",
"66 50 OFFCURVE",
"84 -4 OFFCURVE",
"147 -4 CURVE SMOOTH"
);
}
);
width = 259;
}
);
leftKerningGroup = h;
rightKerningGroup = l;
unicode = 006C;
},
{
glyphname = lslash;
lastChange = "2019-04-16 04:59:24 +0000";
layers = (
{
background = {
components = (
{
name = l;
transform = "{1, 0, 0, 1, 48, 0}";
}
);
paths = (
{
closed = 1;
nodes = (
"352 507 OFFCURVE",
"345 511 OFFCURVE",
"328 500 CURVE SMOOTH",
"47 324 LINE SMOOTH",
"35 316 OFFCURVE",
"28 305 OFFCURVE",
"28 290 CURVE SMOOTH",
"28 170 LINE SMOOTH",
"28 153 OFFCURVE",
"34 150 OFFCURVE",
"54 163 CURVE SMOOTH",
"332 345 LINE SMOOTH",
"345 354 OFFCURVE",
"352 366 OFFCURVE",
"352 378 CURVE SMOOTH",
"352 491 LINE SMOOTH"
);
}
);
};
components = (
{
name = l;
transform = "{1, 0, 0, 1, 86, 0}";
}
);
layerId = "258ED206-D907-4350-8EBA-CBDDA1C16BF7";
paths = (
{
closed = 1;
nodes = (
"362 349 LINE",
"362 502 LINE",
"46 304 LINE",
"46 142 LINE"
);
}
);
width = 409;
},
{
background = {
components = (
{
name = l;
transform = "{1, 0, 0, 1, 2, 0}";
}
);
paths = (
{
closed = 1;
nodes = (
"232 437 OFFCURVE",
"230 439 OFFCURVE",
"225 435 CURVE SMOOTH",
"0 225 LINE SMOOTH",
"-3 222 OFFCURVE",
"-5 219 OFFCURVE",
"-5 215 CURVE SMOOTH",
"-5 186 LINE SMOOTH",
"-5 181 OFFCURVE",
"-3 177 OFFCURVE",
"2 181 CURVE SMOOTH",
"226 392 LINE SMOOTH",
"230 396 OFFCURVE",
"232 399 OFFCURVE",
"232 403 CURVE SMOOTH",
"232 433 LINE SMOOTH"
);
}
);
};
components = (
{
name = l;
transform = "{1, 0, 0, 1, -2, 0}";
}
);
layerId = "91AB5BCA-6A50-42DA-B2F7-8181BF189245";
paths = (
{
closed = 1;
nodes = (
"225 388 LINE",
"225 431 LINE",
"-6 215 LINE",
"-6 170 LINE"
);
}
);
width = 197;
}
);
leftKerningGroup = h;
rightKerningGroup = l;
unicode = 0142;
},
{
glyphname = m;
lastChange = "2019-04-16 04:59:04 +0000";
layers = (
{
background = {
guideLines = (
{
angle = 90;
position = "{315, 331}";
showMeasurement = 1;
}
);
paths = (
{
closed = 1;
nodes = (
"199 0 LINE SMOOTH",
"223 0 OFFCURVE",
"232 8 OFFCURVE",
"232 29 CURVE SMOOTH",
"232 349 LINE",
"251 383 OFFCURVE",
"276 399 OFFCURVE",
"306 399 CURVE SMOOTH",
"338 399 OFFCURVE",
"358 381 OFFCURVE",
"358 351 CURVE SMOOTH",
"358 25 LINE SMOOTH",
"358 6 OFFCURVE",
"365 0 OFFCURVE",
"381 0 CURVE SMOOTH",
"527 0 LINE SMOOTH",
"548 0 OFFCURVE",
"557 10 OFFCURVE",
"557 30 CURVE SMOOTH",
"557 333 LINE SMOOTH",
"557 342 OFFCURVE",
"558 350 OFFCURVE",
"565 360 CURVE SMOOTH",
"580 381 OFFCURVE",
"606 399 OFFCURVE",
"631 399 CURVE SMOOTH",
"662 399 OFFCURVE",
"683 381 OFFCURVE",
"683 351 CURVE SMOOTH",
"683 25 LINE SMOOTH",
"683 6 OFFCURVE",
"689 0 OFFCURVE",
"706 0 CURVE SMOOTH",
"852 0 LINE SMOOTH",
"873 0 OFFCURVE",
"883 10 OFFCURVE",
"883 30 CURVE SMOOTH",
"883 373 LINE SMOOTH",
"883 480 OFFCURVE",
"819 540 OFFCURVE",
"729 540 CURVE SMOOTH",
"669 540 OFFCURVE",
"593 497 OFFCURVE",
"556 446 CURVE SMOOTH",
"551 440 OFFCURVE",
"546 440 OFFCURVE",
"544 445 CURVE SMOOTH",
"521 507 OFFCURVE",
"469 541 OFFCURVE",
"402 541 CURVE SMOOTH",
"341 541 OFFCURVE",
"285 507 OFFCURVE",
"242 461 CURVE SMOOTH",
"234 453 OFFCURVE",
"229 457 OFFCURVE",
"229 465 CURVE SMOOTH",
"229 510 LINE SMOOTH",
"229 522 OFFCURVE",
"223 530 OFFCURVE",
"211 530 CURVE SMOOTH",
"51 530 LINE SMOOTH",
"40 530 OFFCURVE",
"32 521 OFFCURVE",
"32 507 CURVE SMOOTH",
"32 25 LINE SMOOTH",
"32 7 OFFCURVE",
"39 0 OFFCURVE",
"58 0 CURVE SMOOTH"
);
}
);
};
guideLines = (
{
angle = 90;
position = "{615, 207}";
showMeasurement = 1;
}
);
layerId = "258ED206-D907-4350-8EBA-CBDDA1C16BF7";
paths = (
{
closed = 1;
nodes = (
"207 0 LINE",
"259 341 LINE",
"264 371 OFFCURVE",
"298 389 OFFCURVE",
"327 389 CURVE SMOOTH",
"356 389 OFFCURVE",
"385 371 OFFCURVE",
"380 341 CURVE SMOOTH",
"328 0 LINE",
"521 0 LINE",
"568 310 LINE SMOOTH",
"576 358 OFFCURVE",
"587 389 OFFCURVE",
"643 389 CURVE SMOOTH",
"672 389 OFFCURVE",
"700 371 OFFCURVE",
"695 341 CURVE SMOOTH",
"643 0 LINE",
"837 0 LINE",
"892 364 LINE SMOOTH",
"908 467 OFFCURVE",
"829 527 OFFCURVE",
"749 527 CURVE SMOOTH",
"694 527 OFFCURVE",
"625 499 OFFCURVE",
"582 455 CURVE",
"557 509 OFFCURVE",
"501 527 OFFCURVE",
"451 527 CURVE SMOOTH",
"371 527 OFFCURVE",
"313 496 OFFCURVE",
"273 455 CURVE",
"283 517 LINE",
"92 517 LINE",
"14 0 LINE"
);
}
);
width = 922;
},
{
background = {
guideLines = (
{
position = "{252, 454}";
}
);
paths = (
{
closed = 1;
nodes = (
"103 0 LINE SMOOTH",
"109 0 OFFCURVE",
"112 3 OFFCURVE",
"112 9 CURVE SMOOTH",
"112 410 LINE",
"188 471 OFFCURVE",
"233 502 OFFCURVE",
"300 502 CURVE SMOOTH",
"380 502 OFFCURVE",
"413 455 OFFCURVE",
"413 377 CURVE SMOOTH",
"413 9 LINE SMOOTH",
"413 3 OFFCURVE",
"417 0 OFFCURVE",
"422 0 CURVE SMOOTH",
"444 0 LINE SMOOTH",
"449 0 OFFCURVE",
"453 3 OFFCURVE",
"453 10 CURVE SMOOTH",
"453 393 LINE SMOOTH",
"453 407 OFFCURVE",
"458 413 OFFCURVE",
"470 423 CURVE SMOOTH",
"509 455 OFFCURVE",
"568 502 OFFCURVE",
"641 502 CURVE SMOOTH",
"721 502 OFFCURVE",
"754 455 OFFCURVE",
"754 377 CURVE SMOOTH",
"754 9 LINE SMOOTH",
"754 3 OFFCURVE",
"757 0 OFFCURVE",
"763 0 CURVE SMOOTH",
"785 0 LINE SMOOTH",
"791 0 OFFCURVE",
"794 3 OFFCURVE",
"794 10 CURVE SMOOTH",
"794 393 LINE SMOOTH",
"794 480 OFFCURVE",
"742 540 OFFCURVE",
"642 540 CURVE SMOOTH",
"573 540 OFFCURVE",
"530 511 OFFCURVE",
"458 457 CURVE SMOOTH",
"452 452 OFFCURVE",
"445 448 OFFCURVE",
"443 454 CURVE SMOOTH",
"430 494 OFFCURVE",
"385 540 OFFCURVE",
"301 540 CURVE SMOOTH",
"232 540 OFFCURVE",
"189 511 OFFCURVE",
"117 457 CURVE SMOOTH",
"111 452 OFFCURVE",
"109 453 OFFCURVE",
"109 460 CURVE SMOOTH",
"109 522 LINE SMOOTH",
"109 528 OFFCURVE",
"107 530 OFFCURVE",
"101 530 CURVE SMOOTH",
"80 530 LINE SMOOTH",
"74 530 OFFCURVE",
"72 527 OFFCURVE",
"72 521 CURVE SMOOTH",
"72 9 LINE SMOOTH",
"72 3 OFFCURVE",
"75 0 OFFCURVE",
"81 0 CURVE SMOOTH"
);
}
);
};
guideLines = (
{
position = "{289, 421}";
}
);
layerId = "91AB5BCA-6A50-42DA-B2F7-8181BF189245";
paths = (
{
closed = 1;
nodes = (
"94 0 LINE",
"145 360 LINE SMOOTH",
"158 453 OFFCURVE",
"237 489 OFFCURVE",
"297 489 CURVE SMOOTH",
"350 489 OFFCURVE",
"409 452 OFFCURVE",
"398 376 CURVE SMOOTH",
"346 0 LINE",
"381 0 LINE",
"432 360 LINE SMOOTH",
"446 462 OFFCURVE",
"529 489 OFFCURVE",
"584 489 CURVE SMOOTH",
"646 489 OFFCURVE",
"698 460 OFFCURVE",
"681 335 CURVE SMOOTH",
"634 0 LINE",
"669 0 LINE",
"716 335 LINE SMOOTH",
"740 501 OFFCURVE",
"653 527 OFFCURVE",
"589 527 CURVE SMOOTH",
"525 527 OFFCURVE",
"468 495 OFFCURVE",
"431 441 CURVE",
"418 497 OFFCURVE",
"358 527 OFFCURVE",
"303 527 CURVE SMOOTH",
"229 527 OFFCURVE",
"183 486 OFFCURVE",
"153 440 CURVE",
"164 517 LINE",
"131 517 LINE",
"59 0 LINE"
);
}
);
width = 795;
}
);
leftKerningGroup = n;
leftMetricsKey = n;
rightKerningGroup = n;
rightMetricsKey = n;
unicode = 006D;
},
{
glyphname = n;
lastChange = "2019-04-16 04:59:04 +0000";
layers = (
{
anchors = (
{
name = bottom;
position = "{269, 0}";
},
{
name = top;
position = "{347, 517}";
}
);
background = {
anchors = (
{
name = bottom;
position = "{296, 0}";
},
{
name = top;
position = "{296, 530}";
}
);
paths = (
{
closed = 1;
nodes = (
"200 0 LINE SMOOTH",
"224 0 OFFCURVE",
"233 8 OFFCURVE",
"233 29 CURVE SMOOTH",
"233 349 LINE",
"252 383 OFFCURVE",
"276 399 OFFCURVE",
"307 399 CURVE SMOOTH",
"339 399 OFFCURVE",
"360 381 OFFCURVE",
"360 351 CURVE SMOOTH",
"360 25 LINE SMOOTH",
"360 6 OFFCURVE",
"366 0 OFFCURVE",
"383 0 CURVE SMOOTH",
"530 0 LINE SMOOTH",
"551 0 OFFCURVE",
"560 10 OFFCURVE",
"560 30 CURVE SMOOTH",
"560 378 LINE SMOOTH",
"560 477 OFFCURVE",
"496 540 OFFCURVE",
"403 540 CURVE SMOOTH",
"341 540 OFFCURVE",
"286 507 OFFCURVE",
"244 461 CURVE SMOOTH",
"236 453 OFFCURVE",
"231 457 OFFCURVE",
"231 465 CURVE SMOOTH",
"231 510 LINE SMOOTH",
"231 522 OFFCURVE",
"225 530 OFFCURVE",
"213 530 CURVE SMOOTH",
"52 530 LINE SMOOTH",
"40 530 OFFCURVE",
"33 521 OFFCURVE",
"33 507 CURVE SMOOTH",
"33 25 LINE SMOOTH",
"33 7 OFFCURVE",
"40 0 OFFCURVE",
"59 0 CURVE SMOOTH"
);
}
);
};
layerId = "258ED206-D907-4350-8EBA-CBDDA1C16BF7";
paths = (
{
closed = 1;
nodes = (
"208 0 LINE",
"257 323 LINE",
"261 352 OFFCURVE",
"298 370 OFFCURVE",
"327 370 CURVE SMOOTH",
"355 370 OFFCURVE",
"384 352 OFFCURVE",
"379 323 CURVE SMOOTH",
"330 0 LINE",
"524 0 LINE",
"577 349 LINE SMOOTH",
"592 446 OFFCURVE",
"513 519 OFFCURVE",
"423 519 CURVE SMOOTH",
"342 519 OFFCURVE",
"312 488 OFFCURVE",
"275 455 CURVE",
"284 517 LINE",
"93 517 LINE",
"14 0 LINE"
);
}
);
width = 609;
},
{
anchors = (
{
name = bottom;
position = "{240, 0}";
},
{
name = top;
position = "{321, 517}";
}
);
background = {
anchors = (
{
name = bottom;
position = "{285, 0}";
},
{
name = top;
position = "{295, 530}";
}
);
paths = (
{
closed = 1;
nodes = (
"114 0 LINE SMOOTH",
"120 0 OFFCURVE",
"123 3 OFFCURVE",
"123 9 CURVE SMOOTH",
"123 410 LINE",
"203 471 OFFCURVE",
"250 502 OFFCURVE",
"321 502 CURVE SMOOTH",
"408 502 OFFCURVE",
"444 455 OFFCURVE",
"444 377 CURVE SMOOTH",
"444 9 LINE SMOOTH",
"444 3 OFFCURVE",
"447 0 OFFCURVE",
"453 0 CURVE SMOOTH",
"475 0 LINE SMOOTH",
"481 0 OFFCURVE",
"484 3 OFFCURVE",
"484 10 CURVE SMOOTH",
"484 393 LINE SMOOTH",
"484 480 OFFCURVE",
"429 540 OFFCURVE",
"322 540 CURVE SMOOTH",
"249 540 OFFCURVE",
"204 511 OFFCURVE",
"128 457 CURVE SMOOTH",
"122 452 OFFCURVE",
"120 453 OFFCURVE",
"120 460 CURVE SMOOTH",
"120 522 LINE SMOOTH",
"120 528 OFFCURVE",
"118 530 OFFCURVE",
"112 530 CURVE SMOOTH",
"91 530 LINE SMOOTH",
"85 530 OFFCURVE",
"83 527 OFFCURVE",
"83 521 CURVE SMOOTH",
"83 9 LINE SMOOTH",
"83 3 OFFCURVE",
"86 0 OFFCURVE",
"92 0 CURVE SMOOTH"
);
}
);
};
layerId = "91AB5BCA-6A50-42DA-B2F7-8181BF189245";
paths = (
{
closed = 1;
nodes = (
"94 0 LINE",
"145 360 LINE SMOOTH",
"157 448 OFFCURVE",
"236 489 OFFCURVE",
"321 489 CURVE SMOOTH",
"401 489 OFFCURVE",
"444 435 OFFCURVE",
"430 335 CURVE SMOOTH",
"382 0 LINE",
"418 0 LINE",
"465 335 LINE SMOOTH",
"484 467 OFFCURVE",
"421 527 OFFCURVE",
"326 527 CURVE SMOOTH",
"249 527 OFFCURVE",
"185 489 OFFCURVE",
"154 440 CURVE",
"164 517 LINE",
"131 517 LINE",
"59 0 LINE"
);
}
);
width = 544;
}
);
leftKerningGroup = n;
rightKerningGroup = n;
unicode = 006E;
},
